<?xml version="1.0" encoding="UTF-8"?>
<svg id="_레이어_1" data-name="레이어_1" xmlns="http://www.w3.org/2000/svg" version="1.1" viewBox="0 0 657.33 245.33">
  <!-- Generator: Adobe Illustrator 29.4.0, SVG Export Plug-In . SVG Version: 2.1.0 Build 152)  -->
  <defs>
    <style>
      .st0 {
        fill: #fe5493;
      }
    </style>
  </defs>
  <path class="st0" d="M110.5,174.98s-.4.02-.39.16c.3.42.44.41.7.4-.03-.43.09-.58.06-.87,0,0-.13,0-.38.3Z"/>
  <path class="st0" d="M117.5,168.78c.39-.16.74-.75,1.11-1.2-.97-.39-.6.89-1.11,1.2Z"/>
  <path class="st0" d="M149.22,176.27c-.24.3-.38.3-.49.6,0,0,.02.29.16.28.24-.3.35-.59.33-.88Z"/>
  <path class="st0" d="M201.55,178.39c.24-.3.48-.74.61-.75.79-.18.89-.61.96-1.34-.02-.29.2-.87.51-.31.59.69,1.12.53,1.36.23.52-.17.75-.61.56-1.32-.34-.85-.25-1.43.25-1.88-.01-.14.38-.3.34-.73.27-1.59.97-2.92,1.37-4.52-.42-.27-.73-.69-1.14-.81l-.26.16v-.14s.26-.01.26-.01c-1.24-.38-2.38.39-2.42,1.55.01.14.02.29.17.42.11-.29.23-.44.21-.73.22-.58.91-.33.98-1.19.29.27.85.54,1.41.8.16.28.17.42.05.57-.51.31-.62.6-1.07.05-.57-.41-.95-.1-1.36-.23.17.42.95.1.86.68-.06.87-.69-.26-1.07.05.44.41.07.86.09,1.15.42.27.8-.04,1.1.38-.23.44-.79.18-.75.61-.26,1.74-1.65,2.8-2.33,4.27-1.39,2.65-7.09,10.09-8.92,12.33-.26.16-.77.47-.94.04-.33-.7-.71-.54-.96-.24-.27.01-.38.3-.53.02-.29-.27.1-.44.09-.58,1.73-1.8,3.05-3.73,4.52-5.38.75-.61,4.98-6.4,5.45-7.14.5-.45.42-1.46,1.23-1.35.13,0,.11-.29.1-.44-.02-.29.1-.44.5-.45.41.13.68.11.78-.32-.15-.14-.56-.26-.85-.54-.17-.42-.44-.41-.55-.12-.45,1.03-1.49,1.5-5.53,7.87.02.29-.05,1.01-.31,1.16-1.16.63-1.74,1.66-2.47,2.55-1.23,1.35-2.58,2.85-3.67,4.33-.49.6-1.38,1.21-1.18,1.92-.06.87-.43,1.31-.67,1.61-1.39,1.07-2.93,1.86-4.18,3.06-.88.76-2.55-.03-3.39,1.16-.11.29-.67.03-.81-.11.21-.73-.4-1.56.21-2.31.24-.3.33-.88.42-1.46.32-1.02.08-2.3.97-2.92,0,0,.12-.15.11-.29.3-1.31.85-2.77,1.14-4.08.21-.73,1.07-1.63.19-2.6-.01-.14-.34-.85.46-.88.69.26.9-.47.99-1.05.09-.58.04-1.15.14-1.59-.13,0-.26.16-.53.02.24-.3.39-.16.53-.02l1.1-1.34c.37-.45.75-.61.67-1.61-.44-.41.19-1.01.43-1.31.38-.3,1.03-.48.43-1.31-.15-.14-.02-.29-.02-.29.78-.32.87-.9.5-2.03,0,0,.12-.15.26-.16.76-.61.95-1.48,1.56-2.23.23-.44.44-1.17.28-1.45-.2-.85-.07-.86.32-1.02.52-.17.62-.6.71-1.18.35-.59.72-1.04.94-1.62.6-.89,1.75-1.52,1.09-3.07l-.02-.29c.91-.33.96-1.34,1.44-2.08,1.53-2.66,2.93-5.16,4.32-7.81.48-.74.53-1.75,1.15-2.35.87-.9,1.28-2.36,1.99-3.54.94-1.62,1.59-3.52,2.53-5.14.12-.15.11-.29.09-.58-.16-2-1.46-3.1-2.99-3.75-.84-.39-1.69-.93-2.57-1.9-1.06-1.53-2.29-1.77-3.41-.71-.74.75-1.63,1.37-2.54,1.69-1.96.66-3.3,2.3-4.99,2.95-1.54.79-2.34,2.55-4.04,3.06-.66.17-.73.89-1.25,1.06-2.4,1.83-4.62,4.23-6.69,6.77s-3.99,5.35-5.92,8.03c-2.42,3.27-4.57,6.39-7.13,9.52-.96,1.34-1.78,2.81-2.75,4.15.17-1.16.6-2.47.93-3.35.57-1.18.46-2.61,1.17-3.79.37-.45,2.86-4.44,3.47-5.19.45-1.03.87-2.48,1.18-3.65.81-1.62,1.18-3.65,1.84-5.4.55-1.46.97-2.92,1.37-4.52q.13,0,.12-.15c.21-.73.3-1.31.52-1.89.08-.72.26-1.74.46-2.61.23-.44.04-1.15-.27-1.71-.01-.14-.17-.42-.17-.42-.46-.7-1.17-1.24-1.72-1.36-.98-.53-1.93-.63-2.77-1.03-.98-.53-1.83-1.07-2.54-1.61-1.43-1.09-2.74-.74-4.04-.25-.81,1.62.16,3.59.82,3.41.12-.15.24-.3.52-.17.41.13.3.42.05.57-.04,1.15-.35,2.32-.53,3.33-.24.3-.34.73-.59,1.03-.16,1.3-.36,2.17-1.33,3.37-.48.74-.82,1.47-1.02,2.35-.38,1.89-1.21,3.22-3.08,6.61-.93,1.77-2.15,3.26-3.38,4.61-.93,1.77-1.76,3.1-3.39,4.46-.5.45-.41,1.6-1.46,1.79-.38.3-.6.89-.92,1.91-.22.58-.45,1.03-.96,1.34-.88.76-1.79,1.09-2,1.81-.56,1.32-1.72,1.95-2.04,2.97-.12.15-.24.3-.23.44-.53.02-.15-.14-.3-.42.23-.44.21-.73.19-1.01.1-.44.08-.72.46-.88.9-.47.96-1.34,1.44-2.08-.84,1.19-1.85,1.95-2.71,3-1.11,1.2-2.37,2.12-3.33,3.6-1.01.76-2.11,2.11-3.22,3.31l-4.79,5.39c-2.79,1.99-4.82,3.38-5.96,4.15.56-1.32.34-2.46.95-3.2.83-1.33,1-2.49,1.57-3.81.23-.44.35-.59-.09-1.15-.21.73-.94,1.62-1.32,1.93-1.02.62-1,.91-.77,2.05-.41-.13-.63-1.12-.3-2,.39-.16.78-.32.46-.88-.02-.29-.53.02-.78.32,0,0-.01-.14-.14-.14.11-.29.23-.44.35-.59,1.08.1,1.16-.63,1.24-1.21-.08-1,.71-1.18,1.23-1.35.1-.44.5-.45.55.12,0,0-.39.16.15.14.03.43.26-.16.24-.3.61-.75.53-1.75,1.38-2.79.6-.89.66-1.75.97-2.92.49-.6.95-1.48,1.16-2.21.09-.58.85-1.04,0-1.72.95.1,1.17-.48,1.41-.78.16-1.3.86-2.63,1.31-3.65.82-1.47,1.77-2.95,1.9-4.68q.38-.3.35-.59c.66-.17.85-1.04,1.21-1.64.88-2.34,1.89-4.83,3.62-6.63,1.21-1.64,2.01-3.25,2.82-4.87.33-.88,1.23-1.35,1.54-2.51.17-1.16.45-2.75.18-4.32-.01-.14-.42-.27-.56-.26-1.54-.79-2.9-1.02-3.82-2.42-.29-.27-.69-.26-1.08-.1-.27.01-.55-.12-.68-.11-.6-.84-1.14-.81-1.87.08-.11.29-.12.15-.39.16-.97-.39-1.15-.95-1.87-1.5-.99-.67-1.81-.78-2.79-1.31-.5.45-.31,1.16-1.16.63-1.67-.79-3.52-2-5.64-1.76-.12.15-.4.02-.53.02-.97-.39-1.48-.08-2.26.24-2.81.13-7.36,1.77-10.65,5.94l-4.27,5.22c-1.2,1.78-2.79,3.57-3.97,5.64-.43,1.31-1.58,1.94-2.01,3.25-.93,1.77-1.98,3.68-2.64,5.44-1.11,1.2-1.78,2.81-2.33,4.27-1.05,1.92-1.71,3.67-2.45,6.15-1.13,2.64-2.7,6.3-3.52,9.5-.28,1.45-1.42,3.94-1.82,5.69-.28,1.45-.69,3.05-.72,4.34-.16,1.3-.35,2.32-.63,3.77-.04,1.15-.46,2.61-.22,3.89.33.7-.09,2.16.6,2.42,1.14.81,1.39,2.24,2.03,3.5.48.98,1.37,1.95,2.3,1.91.27-.01.8-.04,1.17-.48.22-.58.88-.76,1.54-.79.81.11,1.32-.2,2.06-1.1.61-.75.96-1.34,1.86-1.81l.88-.76c1.01-.76,2.69-3.14,3.65-4.62.45-1.03,1.32-1.93,2.9-3.87.35-.59.88-.76,1.35-1.5.6-.89,1.44-2.08,2-3.4.71-1.18,1.58-1.94,2.29-3.12.61-.75,1.49-1.5,1.26-2.64-.06-.72.45-1.03.99-1.05.4-.02.62-.6.61-.75q-.04-.43-.31-.56c-.13,0-.12.15-.09.58.06.72-.39.16-.79.18l-.67.03c.17.42-.22.58-.66.17l.05.57c.29.27.42.27.3.42-.23.44-.63.46-.94.04-.13,0-.44-.41-.04-.43.27-.01.52-.17.62-.6-.41-.13-.81-.11-1.4.92-.12.15-.06.87-.62.6-.44-.41.06-.87.45-1.03.89-.61,1.31-2.07,2.3-2.98.27-.01.26-.16.5-.45-.05-.57.09-.58.48-.74,0,0,.11-.29.4-.02.01.14-.22.58-.22.58-.37.45-.89.61-.66,1.75.9-.47,1.23-1.35,1.15-2.35-.07-.86.32-1.02.44-1.17.24-.3.38-.3.63-.46.92-1.91,2.36-3.99,3.72-5.34.24-.3.48-.74.88-.76.4-.02.94-.04.9-.47-.04-.43-.05-.57.1-.44.97.39,1.14-.77,1.5-1.36.21-.73.31-1.16.82-1.47.64-.32,1-.91,1.36-1.35.59-1.03,1.35-1.5,1.95-2.39q.26-.16.39-.16l.05.57c-.39.16-.33.88-.53,1.75-.56,1.32-1.42,2.36-1.82,3.96-1,2.49-2.31,4.56-3.05,7.04-1.74,4.97-4.04,9.67-5.61,15.06-.61,2.33-1.33,5.09-2.2,7.57-.43,1.31-.98,2.77-1,4.21.02.29-.09.58-.48.74-.61.75-.39,1.74-.43,2.89,0,0,.02.29.16.28.71.54.63,1.12.25,1.43-.35.59-.06.87.08,1,.42.27.56.26.57.41.23,1.14.93,1.54,1.91,2.07.68.11,1.37.37,2.07.77.15.14.28.13.67-.03,1.07-.05.99-1.05.8-1.76.63-.46.6-.89.56-1.32-.04-.43-.12-1.43.53-1.75.51-.31.87-.9,1.62-1.51.35-.59.55-1.46,1.2-1.78.51-.31.76-.61.82-1.47-.05-.57.31-1.16.73-.9.71.54.67-.03.63-.46-.04-.43-.05-.57.06-.87.77-.47,1.22-1.49,2.15-1.53.91-.33.84-1.19,1.17-2.06.61-.75,2.66-3.57,4.1-5.65l4.68-5.1c1.21-1.64,2.58-2.85,3.83-4.05,1.7-2.23,3.15-4.17,4.83-6.54,1.43-2.22,3.32-3.74,4.46-6.09.27-.01.62-.6,1.02-.62-1.2,1.78,4.61-5.96,5.96-7.45.3-1.31.71-2.76,1.54-4.09.11-.29.23-.44.48-.74-.41,1.6-1.09,3.07-1.9,4.68-.09.58-2.75,4.15-3.11,4.59-.71,1.18-.84,2.91-1.66,4.24-.22.58-.17,1.16-.67,1.61-.12.15-.24.3-.22.59-.1,2.02-1.2,3.36-1.86,5.11-.3,1.31-.74,2.48-1.04,3.64-.53,1.75-4.18,9.53-4.99,11.15-.49,2.18-1.68,4.1-2.59,6.01-.28,1.45-.05,2.73.73,3.99.74.83,1.43,1.09,2.02,1.78.75.97,1.89,1.78,3.21,1.58.67-.03,1.05-.33,1.74-.08.23-.44.61-.75.84-1.19.9-2.05,1.82-3.96,2.46-6,.34-.73.53-1.75.88-2.34,1.01-.76,4.32-7.81,5.19-8.71.99-1.05,1.81-2.52,2.93-3.58,1.09-1.49,2.2-4.27,3.3-5.61,1.67-2.52,3.77-4.77,5.71-7.3,2.05-2.82,3.77-4.77,5.82-7.59.96-1.34,1.79-2.67,2.61-4.14l1.86-3.53c1.32-1.93,2.94-3.44,4.26-5.36.5-.45,1.14-.77.66-1.75-.16-.28-.06-.72.2-.87l1-.91c.62-.6,1.25-1.06,1.89-1.52.26-.16.51-.31.67-.03.17.42-.1.44-.22.58-.49.6-1.01.76-1.5,1.36-.26.16-.64.32-.33.88.38-.3.61-.75,1.01-.76,1.29-.63,1.85-1.95,3.14-2.58.26-.16.1-.44-.07-.86-.13,0-.27.01-.26.15-.11.29-.37.45-.66.17-.13,0-.15-.14-.15-.14.1-.44.23-.44.49-.6.66-.17,1.19-.2,1.42-.64.7-1.32,1.72-1.95,2.9-2.29-.28-.13-.15-.14-.02-.29.51-.31.89-.61,1.41-.78.06.72-.32,1.02-.7,1.32-1.33,3.37-3.09,6.46-4.44,9.69-1.82,3.96-4.07,7.66-5.48,11.74.01.14-.11.29-.23.44-.99,1.05-1.4,2.51-1.82,3.96-.27,1.59-.82,3.06-1.65,4.39-.7,1.32-1.39,2.65-1.81,4.11-.21.73-.3,1.31-.63,2.18-.62.6-1.09,1.49-1.28,2.36-.42,3.04-1.98,5.26-2.82,8.18-.2.87-1.22,1.49-.31,2.75.13,0,.01.14-.12.15-.56,1.32-.85,2.77-.73,4.2-.16,1.3-.3,2.89.74,4.14.63,1.12,1.5,1.95,2.27,3.2.63,1.12,1.62,1.8,2.48,2.48,1.42.94,2.28,1.62,3.76,1.7.68.11,1.62.07,2.31.33,1.23.23,2.05.48,2.89-.7.12-.15.39-.16.66-.17,1.42-.64,2.58-1.26,3.54-2.6.6-.89,1.34-1.64,2.1-2.25.77-.47,1.81-.8,2.28-1.68.59-1.03,1.46-1.79,2.06-2.68.5-.45,4.46-6.09,4.42-6.67.23-.44.35-.59.6-.89,1.35-1.5,2.56-3.13,2.06-5.99-1.19.2-1.33,1.78-2.7,1.41ZM127,170.22s.13,0,.16.28q.02.29-.11.29-.4.02-.42-.27s-.02-.29.38-.3ZM125.23,173.18c.13,0,.27-.01.28.13.13,0,.02.29.02.29.07.86-.72,1.04-1.23,1.35q-.13,0-.16-.28c.08-.72.85-1.04,1.09-1.49ZM107.87,178.98h.13c-.04-.44.22-.59.2-.88.02.29.04.43-.2.87v.14s.03.29-.08.58l-.28-.13q-.02-.29.22-.59ZM130.2,155.13h.27c.01.13.03.42-.23.43l-.16-.28c-.01-.14.12-.15.12-.15ZM126.43,163.2c.3.42.06.72.06.72h-.13c-.16-.27-.05-.57.08-.72ZM126.53,164.35c-.12.15-.08.72-.62.6-.13,0-.03-.43-.05-.57-.02-.29.38-.3.67-.03ZM124.3,168.33c.22-.58.21-.73.49-.6.17.42.05.57.06.72.05.57-.38.3-.74.75-.05-.57.21-.73.2-.87ZM106.63,147.27q.27-.01.28.13c.03.43-.22.58-.49.6-.11.29-.13,0-.15-.14.1-.44.09-.58.35-.59ZM103.38,155.18c.01.14-.35.59-.76.61-.05-.57.2-.87.33-.88,0,0,.4-.02.42.27ZM106.59,145.12q-.23.44-.49.6c-.18-.57-.05-.57.49-.6ZM102.39,156.08c.07.86-.27,1.59-1.05,1.92.14.14.17.42-.23.44-.02-.29.11-.29.23-.44-.07-.86.31-1.16,1.05-1.92ZM100.08,160.64c.17.42.05.57-.2.87-.23.44-.76.61-.83,1.33-.19-.71.03-1.29.53-1.75.1-.44.22-.59.5-.45ZM102.64,152.62c.42.27.02.29-.11.29l-.29-.27.4-.02ZM97.56,164.35c.13,0,.56.26.69.26-.02-.29-.31-.56-.06-.72.4-.02.57.41.86.68-.26.16-.4.02-.8.04-.12.15,1.28.95-.05,1.01-.39.16-.52.17-.9.47.37-.45.5-.45.9-.47-.44-.41-.98-.53-.64-1.26l-.4.02c-.04-.43.06-.87.45-1.03.28.13-.09.58-.05,1.01ZM96.57,171.87l-.83,1.33.43-1.31.4-.02ZM93.88,173.43c-.01-.14.69-1.47.82-1.47.4-.02-.16,1.3-.16,1.3-.26.16-.39.16-.66.17ZM93.22,175.18c-.27.01-.39.16-.4.02-.05-.57.34-.73.56-1.32-.09.58.09,1.15-.16,1.3ZM93.14,175.9h.27c.02.27-.23.43-.37.44-.27.01-.02-.29.1-.44ZM91.96,179.55s-.03-.43.23-.44l.03.43-.96,1.34c-.13,0,.7-1.33.7-1.33ZM95.06,171.5c-.04-.43.1-.44.37-.45.02.29.04.43-.37.45ZM96.73,167.26c.06.72-.21.73-.44,1.17-.05-.57.19-1.01.44-1.17ZM102.43,150.04c.04.43-.06.87-.45,1.03-.05-.57.49-.6.45-1.03ZM96.69,165.11l-.26.16s-.52.17-1.07.05c.51-.31,1.06-.19,1.32-.2ZM87.86,183.47c.04.43-.33.88-.3,1.31-.04-.43-.08-1,.3-1.31ZM87.33,186.8c-.27.01-.29-.27-.31-.56q-.01-.14.26-.15c.27-.01.28.13.28.13.02.29.05.57-.22.58ZM89.26,182.54c-.05-.57-.08-1,.41-1.6.35.99-.04,1.15-.41,1.6ZM90.26,181.64c.56.26.84.39.87.82,0,0-.24.3-.38.3-.56-.26-.06-.72-.49-1.13ZM89.96,187.83c-.51.31-.3,1.31-1,.91h-.27c-.01-.13.27,0,.27,0-.01-.14-.04-.43.23-.44.11-.29.08-.72.61-.75.13,0,.42.27.16.28ZM105.82,181.8l-.07-.86c.4-.02.56.26.45.56q.02.29-.38.3ZM112.41,170.44c-.07-.86.19-1.01.71-1.18-.24.3-.35.59-.71,1.18ZM118.92,161.53c.5-.45.48-.74,1.07-.05l-1.07.05ZM120.63,159.44c.09-.58.34-.73.75-.61l.04.43c-.26.16-.39.16-.79.18ZM126.16,153.3c-.27.01-.53.02-.83-.25-.5.45-.85,1.04-1.49,1.5-.22.58.45.55.73.69.04.43.26-.16.3.42.01.14-.26.16-.52.17l-.67.03c.01.14-.11.29-.09.58,0,0,.3.42.03.43-.27.01-.53.02-.71-.54-.01-.14.22-.58-.3-.42-.4.02-.53.02-.77.47l.02.29c.84.39.48.98.52,1.41.02.29-.21.73-.34.73-.53.02-.95-.1-.99-.67-.15-.14-.18-.57.23-.44.13,0,.42.27.4-.02-.01-.14-.28-.13-.28-.13-.53.02-.92.18-1.17.48-1.07,1.63-1.89,3.1-3.13,4.31-1.45,1.93-2.93,3.58-4.52,5.38-1.07,1.63-2.17,2.97-3.29,4.03-1.48,1.65-2.66,3.57-3.9,4.77-.75.61-1.18,1.92-2.07,2.54-1.22,1.49-1.84,2.09-2.62,2.42l-.26.16c-.13,1.73-2.09,3.97-3.11,4.6-1.53.93-1.9,2.96-3.28,4.17-.52.17-.62.6-1.28.78-.13,0-.38.3-.35.59.03.43-.23.44-.5.45-.56-.26-.17-.42-.19-.71-.02-.29.1-.44-.07-.86-.49.6-.9.47-1.87.08,1.3-.49,1.2-1.78,1.68-2.38.22-.59-.11-1.29.42-1.46.4-.02.37-.45.23-.44-.59-.69-.36-1.13.02-1.44-.66.17-.8-1.55-1.81-.78-.08-1,.45-1.03.99-1.05.96.24,1.67-.94,1.62-1.51-.02-.29-.03-.43.1-.44.84-1.19,1.99-3.54,2.3-4.7.21-.73.15-1.44.5-2.03.23-.44-.19-.71-.22-1,1.13-.91,1.92-2.82,2.19-4.41l-.05-.57c1.4-.92,1.51-2.8,2.46-4.42.11-.29-.17-.42-.22-1,.81.11.9-.47,1.11-1.2.21-.73.82-1.47,1.42-2.36l1.04-2.06c.06-.87.67-1.61.88-2.34.35-.59.75-.61,1.12-1.06.57-1.18,1.6-1.8,2.18-2.83.83-1.33,1.58-1.94,2.03-3.11.32-1.02,1.23-1.35,2.12-1.96,0,0,.13,0,.11-.29.73-.9,1.42-2.36,2.84-3,1.43-.5,2.25-1.97,3.41-2.6,1.41-.78,2.81-1.71,3.98-2.19,1.42-.64,2.72-1.13,4.35-.91.67-.03,1.07-.05,1.52.51.15.14.53-.02.67-.03.92-.19,1.61.07,2.46.61.4-.02.42.27.56.26.97.39,1.39.66.81,1.69-1.02,2.35-1.64,4.53-2.81,6.59-.1.44-.48.74-.87.9-.13,0-.39.16-.37.45-.19,1.01-1.23,1.35-1.54,2.51-.23.44-.79.18-.99,1.05.01.14-.12.15-.09.58.15.14.39-.16.39-.16.49-.6.99-1.05,1.36-1.35-.61.75-.07,2.45-1.54,2.51ZM115.49,186.84c-.53-1.56.6-2.47,1.02-3.93.44-1.17.59-2.61,1.19-3.5.24-.3.23-.44.34-.73-.08-1,.41-1.6,1.21-1.64-.46-.7-.53-1.56-.16-2,.73-.9,1.32-1.93,1.49-3.09-.07-.86.28-1.45.67-1.61.7-1.32,1.11-2.78,1.67-4.24.53-1.75,1.48-3.23,2.14-4.98.33-.88.81-1.62,1.11-2.78-.02-.29.24-.3.49-.6.92-1.91,1.82-3.96,2.57-6.3.12-.15.34-.73.85-1.04-.01-.14-.05-.57.12-.15.41.13.04.43.05.57l-1.56,3.95c-.43,1.31-1.13,2.64-1.55,3.95-.8,1.76-1.5,2.94-2.18,4.55-.92,1.91-1.8,4.25-2.7,6.3-.54,1.61-1.06,3.5-1.86,5.11-.34.73-.67,1.61-1.15,2.35.04.43-.19,1.01-.42,1.46-.37.45-.72,1.04-.68,1.47.05.57-.33.88-.45,1.03-.14,1.59-.71,2.76-1.28,4.08-.42,1.46-.85,2.77-1.57,3.81.35-.59-.26-1.57.64-2.04ZM113.76,191.94c-.13,0-.15-.14-.05-.57.38-.3.34-.73.73-.9.05.57-.21.73-.16,1.3-.12.15-.1.44-.52.17ZM112.77,196.3c-.18-.57-.08-1,.71-1.18l-.71,1.18ZM121.67,173.91c.38-.3.67-.03.71.54-.27.01-.66.17-1.09-.24-.01-.14.38-.3.38-.3ZM120.72,178.7c-.05-.57.04-1.15-.13-1.58.84.39.22,1,.13,1.58ZM121.45,176.08c.02.29-.26.16-.29-.27-.17-.42-.18-.57.19-1.01.05.57.59.69.1,1.29ZM119.57,179.32c.4-.02.45.56.46.7.06.72-.16,1.3-1.01.76.12-.15.08-.72.2-.87-.01-.14.22-.58.35-.59ZM117.42,185.89l-.16-.28c-.06-.72.31-1.16.96-1.34-.22.59-.61.75-.81,1.62ZM114.13,196.53h-.13c-.29-.27-.02-.28.1-.43,0,0,.01.14.15.14.02.29-.11.29-.11.29ZM121.47,176.36c1.07-.05,1.14-.77,1.23-1.35.11-.29.35-.59.75-.61-.48.74-.83,1.33-.75,2.33.01.14-.26.16-.52.17-.53.02-.55-.12-.71-.54ZM117.7,189.32q.01.14-.26.16-.01-.14-.17-.42c.24-.3-.06-.72.73-.9,0,0,.01.14.15.14.04.43-.48.74-.45,1.03ZM120.23,185.76c.13,0,.53-.02.57.41.01.14-.37.45-.5.45-.27.01-.53.02-.56-.26-.01-.14.22-.58.49-.6ZM118.61,189c-.01-.14.12-.15.11-.29.39-.16.88-.76.96-1.34-.02-.29.11-.29.4-.02.15.14.28.13.29.27l-1.77,1.37ZM120.88,185.59c-.13,0-.56-.26-.18-.57-.16-.28.11-.29.24-.3q.4-.02.56.26c.02.29-.35.59-.62.6ZM138.45,172.44c-.04-.43.34-.73.77-.47l-.77.47ZM151.2,172.59c-.1.44-.35.59-.62.6.12-.15.24-.3.34-.73.01.14.15.14.28.13ZM151.81,168.54l.29.27c.05.57-.2.87-.84,1.19l-.03-.43.12-.15-.02-.29c-.02-.29.1-.44.49-.6ZM151.2,171.01c-.11.29-.23.44-.52.17-.02-.29.24-.3.52-.17ZM145.4,185.36c-.26.15-.52.17-.78.32v-.14s1-2.34,1-2.34c.01.14.02.29.17.42.23-.44.35-.59.2-.87-.13,0-.12.15-.26.16l1.92-4.4c.1-.44.2-.87.45-1.03.13,0,.41.13.29.27-.09.58-2.34,7.44-3,7.61ZM144.39,187.7c-.27.01-.41-.13-.42-.27-.17-.42.08-.72.33-.88.27-.01.55.12.57.41.17.42-.22.58-.48.74ZM148.19,176.75c-.05-.57.48-.74.73-.9.26-.16.28.13.29.27.17.42.06.72-.32,1.02-.27.01-.53.02-.7-.4ZM150.55,167.88l.4-.02c.13,0,.4-.02.39-.16.02.29-.26.16-.39.16-.37.45-1.02.62-1.52,1.07.22-.59.02-1.44,1.12-1.06ZM147.61,174.62c-.13,0-.27.01-.28-.13-.02-.29.23-.44.23-.44.13,0,.15.14.29.27.01.14-.11.29-.24.3ZM143.36,188.32c.11-.29.24-.3.4-.02l.03.43c.01.14.02.29-.11.29,0,0-.01-.14-.15-.14-.15-.14-.42-.27-.18-.57ZM142.82,191.51c.48-.74-.3-2,.88-2.34.77,1.26-.1,2.02-.16,3.03-.68-.11-.85-.54-.73-.69ZM149.9,174.8l-.03-.43-.23.44h-.27c-.07-.85.15-1.43.64-2.03.11-.29.38-.3.78-.32-.26.16-.35.59-.59,1.03-.13,0-.24.3-.22.58.16.28.4-.02.69.26-.23.44-.5.45-.77.47ZM167.6,159.93c-.1.44-.22.58-.2.87-.28-.13-.8.04-.84-.39.1-.44.52-.17,1.03-.48ZM161.89,167.23c-.13,0-.28-.13-.29-.27.09-.58.8-.04.91-.33.18.57-.21.73-.62.6ZM165.51,163.9c-.52.17-.89.61-1.57.5.03.43.2.85-.32,1.02-.13,0-.27.01-.41-.13-.05-.57.2-.87.73-.89.48-.74.53-1.75,1.55-2.37-.48.74.78,1.4.02,1.87ZM165.74,161.88c-.29-.27-.06-.72.21-.73.4-.02.85.54,1.3,1.09-.8.04-1.19.2-1.5-.36ZM172.45,153.67s.01.14.16.28c-1.35-.08-1.1,1.34-1.44,2.08-.28,1.45-1.44,2.08-2.33,2.69-.13,0-.39.16-.5.45q-.08.72-1.05.33c.35-.59.99-1.05,1.33-1.78.33-.88,1.07-1.63,1.7-2.23.48-.74,1.24-1.21,1.57-2.08.46-.88,1.22-1.49,1.93-2.67.09,1.15-.61,2.33-1.14,2.49q-.26.16-.23.44ZM176.17,148.33c-.22.58-.87.9-.66,1.75-.1.44-.8.04-1.19.2.33-.88.94-1.62,1.27-2.5-.04-.43.37-.45.66-.17.29.27.03.43-.08.72ZM179.19,178.82c.13,0,.15.14.02.29q.01.14-.11.29c-.16-.28-.18-.57.09-.58ZM178.88,171.64c.52-1.89,1.46-3.51,2.66-5.15,0,0,.13,0,.39-.16-.77,2.05-1.55,3.95-2.48,5.72-.12.15-.1.44-.38.3-.29-.27-.3-.42-.19-.71ZM177.56,178.46c-.16-.28-.57-.41-.2-.85-.01-.14.26-.15.41.13.57.41.34.85.09,1.15-.11.29.2.85-.19,1.01-.27.01-.4.02-.55-.12-.3-.42-.46-.7-.36-1.13.23-.44.52-.17.79-.18ZM175.43,183.58c.27-.01.4-.02.42.27.17.42.06.72-.61.75,0,0-.28-.13-.44-.41.11-.29.22-.58.62-.6ZM176.78,182.09c-.11.29-.49.6-.87.9-.08-1,.32-1.02.87-.9ZM174.57,186.21c.17.42.19.71-.34.73.01.14.16.28.16.28h-.13c.13,0-.01-.14-.02-.28-.01-.14-.04-.43.34-.73ZM173.91,191.27c-.27.01-.29-.27-.46-.7-.08-1,.1-2.02.58-2.76.86.68.92,1.4.31,2.14-.12.15-.1.44-.2.87-.11.29.05.57-.23.44ZM178.26,182.16c-.12.15-.27.01-.27.01-.3-.42-.71-.54-.99-.67-.29-.27-.42-.27-.45-.55-.05-.57.37-.45.5-.45.91-.33,1.01.82,1.45,1.37,0,0-.11.29-.24.3ZM197.42,185.33c-.27.01-.29-.27-.44-.41-.01-.14-.04-.43.1-.44.27-.01,4.17-4.79,4.19-4.5.01.14-3.85,5.35-3.85,5.35Z"/>
  <path class="st0" d="M207.59,165.33c.61-.75,1.21-1.64.97-2.92.53-.02.5-.45.6-.89-.01-.14-.17-.42-.29-.27-.39.16-.5.45-.33.88q.01.14-.11.29c-.28-.13-.57-.41-.53.02-.06.87-.84,1.19-.36,2.17.01.14-.38.3-.66.17-.28-.13-.41-.13-.65.32.53-.02,1.01.82,1.36.23Z"/>
  <path class="st0" d="M147.37,179.95c.12-.15.49-.6.44-1.17-.37.45-.61.75-.44,1.17Z"/>
  <path class="st0" d="M209.12,161.09c.91-.33.99-1.05,1.22-1.49-.02-.29.09-.58-.18-.57-.01-.14-.27.01-.27.01-.08.72-.57,1.18-.77,2.05Z"/>
  <path class="st0" d="M116.08,171.14c-.02-.29-.44-.41-.42-.27-.27.01-.8.04-.49.6.02.29.3.42.57.41-.01-.14.37-.45.34-.73Z"/>
  <path class="st0" d="M115.24,172.33c-.58-.55-.87-.82-.94.04.04.43-.48.74-.56,1.32-.12.15-.52.17-.48.74l.4-.02c.13,0,.39-.16.62-.6-.01-.14.24-.3.09-.58-.04-.43.06-.87.86-.9Z"/>
  <path class="st0" d="M248.84,141.78c.64-.32,1.16-.63,1.09-1.49-.66.17-.88.76-1.09,1.49Z"/>
  <path class="st0" d="M245.97,147.66c.26-.16.38-.3.34-.73-.52.17-.63.46-.34.73Z"/>
  <path class="st0" d="M249.8,140.3c.26-.16.37-.45.61-.75-.39.16-.64.32-.61.75Z"/>
  <path class="st0" d="M244.23,149.32c.83.25,1.03-.48,1.24-1.21-.79.18-.88.76-1.24,1.21Z"/>
  <path class="st0" d="M226.41,172.54c.26-.15.23-.44.06-.87-.15-.14-.41-.13-.52.17-.04,1.15-1.24,1.21-1.44,2.08.55.12,1.34-.06,1.76.21-.33-.7-.52-1.41.14-1.59Z"/>
  <path class="st0" d="M244.68,146.57c-.59-.69-.11-1.29-.29-1.86l-.43,1.31c-.22.58.17.42.71.54Z"/>
  <path class="st0" d="M246.24,192.06c.12-1.87.35-3.9.87-5.79.3-1.31.31-2.74.61-4.05.67-1.61.79-3.48,1.33-5.09.43-1.31.73-2.62,1.02-3.93l2.05-7.71c.16-1.3.6-2.47.27-3.32-.36-1.13.05-1.01.43-1.31.26-.15.89-.61.73-.9-.33-.7.17-1.16.24-2.02.66-1.75,1.19-3.5,1.72-5.25.81-1.62.78-3.63,1.87-4.97.72-1.04,1.28-2.36,1.44-3.66.44-1.17,1.06-1.77.56-3.04-.16-.28.11-.29.24-.3l2.47-5.86c-.04-.43-.06-.72.04-1.15.73-.9,1.29-2.21,1.86-3.53.21-.73.55-1.46.37-2.03-.27.01-.41-.13-.45-.56,1.2-.05,1.69-.65,1.82-2.38.37-.45.08-.72-.22-1,.39-.16.68.11.78-.32,1.04-2.06,1.7-3.81,2.36-5.57.67-1.61,1.38-2.79,1.92-4.4.55-1.46,1.66-5.97,2.76-7.31,1.32-1.93,1.73-5.11,3.49-6.48.77-.47,1.11-1.2,1.17-2.06.22-.58.28-1.45.54-1.61,1.45-.35,1.16-2.21,2.19-2.69.38-1.89,2.33-2.69,2.84-4.58.46-.88.21-2.31.01-3.16-.8-1.55-1.4-2.38-3.15-2.45-.13,0,.23-.44-.05-.57-1.14-.81-2.4-1.47-3.85-1.12-1.18.34-1.11,1.2-1.84,2.09-.71,1.18-1.38,2.79-2.23,3.84-.57,1.18-.86,2.63-1.69,3.96-.59,1.03-1.15,2.35-1.85,3.68l-4.39,10.26c-.65,1.9-2.78,7.02-3.56,8.93-.75,2.33-1.78,4.54-2.68,6.59l-3.26,7.76c-.32,1.02-.7,1.32-1.67.94-.68-.11-1.03-1.1-1.56-1.08-2.16-.19-4.04-1.83-6.22-2.31-.97-.39-2.21-.76-3.67-.56-1.35-.08-2.53.26-4.11.61-2.37.54-4.67,1.93-6.54,3.6-.89.61-1.21,1.64-1.84,2.09-1.38,1.21-2.61,2.56-3.83,4.05-2.17,2.97-4.12,5.36-6.04,8.18-1.09,1.49-1.74,3.38-2.69,4.86-.85,1.04-1.28,2.36-1.98,3.68-.34.73-.98,1.19-1.05,1.92-.25,1.88-1.35,3.22-2.16,4.7-.72,2.62-1.9,4.68-2.65,7.02-1.07,3.35-2.24,7-3.03,10.49-.6,2.47-1.62,4.82-2.09,7.28-.05,1.01-.24,2.02-.69,3.05-.22.58-.59,1.03-.65,1.9.1,1.29.08,2.58,1.09,3.54,1.15.95,1.59,3.09,3.35,3.3q.27-.01.28.13c.99.67,2.18.48,3.04-.57.99-1.05,1.27-2.5,2.56-3.13.63-.46,1.07-1.63,1.57-2.08,1.12-1.06,1.83-2.24,2.84-3l4.85-4.67c.74-.75,1.74-1.66,2.6-2.7.59-1.03,1.57-2.08,2.07-2.54,1.38-1.21,2.21-2.54,3.05-3.73,1.68-2.37,3.23-4.74,4.55-6.67.96-1.34,1.97-2.1,2.51-3.71.1-.44.34-.73.98-1.19.5-.45.45-1.03.78-1.9-.48.74-1.76-.21-2.08.81l.28.13c.13,0,.33-.88.66-.17.44.41.19.71-.2.87-.22.59-.73.9-1.24,1.21-.22.58-.33.88-1.02.62-.56-.26-.55-.12-.64.32-.12.15.18.57-.09.58-1.07.05-.85,1.04-1.6,1.8-.39.16-.61.75-.3,1.31.16.28-.22.58-.22.58-.94.04-1.54.79-2.02,1.53l-.4.02c-.13,0-.5.45-.88.76-.84,1.19-1.4,2.51-2.68,3.28-.44,1.17-1.33,1.78-2.04,1.24-.84-.39-1.47.07-1.97.52-.85,1.04-1.55,2.37-2.86,2.72-.4.02-.5.45-.66.17-.44-.41-.17-.42.08-.72.26-.16.38-.3.08-.72-.02-.29-.41-.13-.52.17-1.13.91-1.71,2.09-2.56,3.13-.99,1.05-1.56,2.23-2.29,3.12-.11.29-.62.6-.66.17-.19-.71-.13-1.58.09-2.16l.9-3.78c.42-1.46.57-2.9,1.12-4.36,1.04-2.06,2.04-4.55,2.81-6.59,1.1-2.92,2.37-5.42,3.5-8.06.66-1.75,1.87-3.39,2.81-5.01.48-.74.68-1.47,1.17-2.06,1.11-1.2,1.78-2.81,3.02-4.02.88-.76,1.31-2.07,2.16-3.12,1.28-.78,2.65-1.99,3.63-3.18,1.47-1.65,3.3-2.3,5.09-3.39.26-.15.5-.45.89-.61,1.7-.51,2.97-1.43,4.68-1.79,1.86-.23,3.56-.73,5.67.47-.1.44-.62.6-.87.9-.06.87-.88.76-.95,1.48-.42,1.46-2.25,1.97-2.37,3.84-1.05.33-1.09,1.49-1.83,2.24,1.25.52,1.93-.95,3.15-.86,0,0,.1-.44-.03-.43-.4.02-.15-.14-.16-.28-.08-1,.59-1.03.95-1.48.45-1.03,1.06-1.77,1.38-2.79.56-1.32,2.3-1.4,2.72-2.85-.17,1.16-.37,2.03-.84,2.91-.16,1.3-.75,2.33-1.31,3.65-1.35,3.22-2.12,6.85-3.31,10.35-.64,2.04-1.11,4.51-2.01,6.56-.72,1.04-.46,2.61-.92,3.49-.44,1.17-.46,2.61-.76,3.77-.51,3.62-1.55,7.26-2.73,10.9-.71,2.76-1.54,5.82-1.67,9.13-.14,1.59-.68,3.19-.67,4.92-.1.44-.15,1.44.29,1.86,1.25.52,1.49,1.8,2.08,2.49.44.41.49,1.13.93,1.54.56.26.63,1.12,1.25.52h.13c.47.84,1.13.66,1.64.35,1.32-.2,2.65-1.99,2.01-3.25-.35-.99-.18-2.15-.26-3.15ZM217.38,163.74c.17.42-.09.58-.33.88-.05-.57.08-.72.33-.88ZM214.95,170.03c.02.29.04.43-.2.87-.31-.56-.06-.72.2-.87ZM213.51,173.83c.05.57.07.86-.3,1.31-.18-.57-.2-.85.3-1.31ZM220.1,154.28c.27-.01.53-.02.29.27v.14q-.11.15-.53-.12c-.01-.14.38-.3.24-.3ZM214.94,165c.34.85.11,1.29-.27,1.59q-.06-.72.27-1.59ZM210.41,181.88c-.02-.29.09-.58.22-.58.11-.29.4-.02.16.28.01.14-.11.29-.38.3ZM212.35,177.62h-.27c-.41-.11-.7-.39-1.1-.37-.13,0-.15-.14-.15-.14l.24-.3c.97.39,1.48.08,1.4-.93.26-.16.39-.16.39-.16.27-.01.16.28.16.28-.22.58-.44,1.17-.67,1.61ZM220.29,158.29c-.12.15-.27.01-.28-.13-.02-.29.23-.44.37-.45.27-.01.4-.02.29.27.01.14-.24.3-.38.3ZM221.06,156.25c.33-.88.83-1.33,1.49-1.5-.22.58-.59,1.03-1.49,1.5ZM248.15,172.72c-.08.72-.28,1.45-.35,2.32.01.14-.1.44-.37.45-.4.02-.68-.11-.58-.55.08-.72,0-1.72.46-2.61-.01-.14.11-.29.39-.16.4-.02.56.26.45.55ZM248.95,169.38c-.27.01-.41-.13-.57-.41.1-.44.21-.73.61-.75.26-.16.41.13.29.27.16.28-.08.72-.33.88ZM244.72,178.33c-.13,0-.27.01-.28-.13-.02-.29.11-.29.24-.3.13,0,.27-.01.28.13.02.29-.11.29-.24.3ZM263.56,124.88c.38-.3.74-.75.99-1.05.41.13.31.56.33.7-.1.44-.34.73-.72,1.04.01.14-.51.31-.68-.11-.29-.27-.04-.43.09-.58ZM263.19,126.91c.44.41.48.98.24,1.28-.91.33-1.09,1.49-1.95,2.39.44-1.17.76-2.19.95-3.2-.02-.29.48-.74.77-.47ZM260.57,132.63c.66-.17-.23-1.14.7-1.32-.09.58-.03,1.3-.13,1.73-.11.29-.24.3-.5.45l-.44-.41c-.02-.29-.04-.43.37-.45ZM257.57,140.24c.1-.44.4-.02.53-.02.13,0,.41.13.7.4.01.14-.39.16-.51.31-.71,1.18-1.31,2.07-1.31,3.65.06.72-.42,1.46-.8,1.76-.23.44-.34.73-.42,1.46.07.86-.55,1.46-1.52,1.07-.11.29.05.57.07.86.63,1.12.42,1.85-.45,2.75,0,0-.12.15-.11.29.59.69-.17,1.16-.39,1.74-.2.87-.55,1.46-.47,2.46.33.7-.74.75-1.07,1.63.04-1.15-.02-1.87-.75-2.55-.45-.55.19-1.01.59-1.03,1.08.1,1.31-.35,1.36-1.35.1-.44.33-.88.57-1.18.24-.3.33-.88.03-1.29l-.02-.29c.09-.58.28-1.45-.55-1.84,0,0-.02-.29.1-.44.33-.88.78-1.9,1.36-3.08.18.57.22,1,.49,1.13.78-.32.72-1.04.78-1.9.13-1.73,1.11-2.78,1.78-4.54ZM251.07,160.8c-.3-.42-.46-.7.05-1.01.16.28.57.41.34.85.01.14-.24.3-.39.16ZM249.82,160.28c-.19-.71-.08-1,.3-1.31.11-.29.26-.16.28.13.18.57-.21.73-.57,1.18ZM248.86,163.34l-.11.29c-.13,0-.15-.14-.28-.13l.23-.44c.27-.01.15.14.16.28ZM251.44,153.88l.33-.88c.46.7.2.85.09,1.15-.1.44-.09.58-.49.6l-.15-.14c-.02-.29-.04-.43.21-.73ZM252.3,151.26c.24-.3.51-.31.45.56-.4.02-.29-.27-.45-.56ZM246.93,164.29c-.28-.13-.33-.7-.34-.85.24-.3.61-.75,1.14-.77.19.71-.21.73-.45,1.03.17.42.07.86-.35.59ZM253.29,145.32c-.15-.14-.02-.29-.02-.29.27-.01.42.27.45.56l-.42-.27ZM247.81,161.95l-.23.44c-.16-.28-.57-.41-.17-.42,0,0,.12-.15.26-.16,0,0,.13,0,.15.14ZM250.44,153.07l-.28-.13c.12-.15.26-.16.26-.16.4-.02.28.13.28.13,0,0,.15.14-.26.16ZM250.13,154.23c-.23.44-.2.87-.68,1.47.06-.87.31-1.16.68-1.47ZM255.53,143.21c.15.14-.1.44-.08.72.01.14-.24.3-.38.3l.09-.58c-.04-.43-.05-.57.09-.58.13,0,.27-.01.28.13ZM255.81,141.76c.33-.88.66-1.75,1.13-2.64.24,1.28-.23,2.17-1.13,2.64ZM262.92,123.62h.13c-.34.73-.56,1.31-.77,2.04.01.14.04.43-.38.3-.15-.14-.17-.42-.05-.57.21-.73.44-1.17,1.06-1.77ZM259.98,130.36c.83.25.07.86.12,1.43.16.28-.08.72-.48.74-.27.01-.16-.28-.05-.57-.04-.43.17-1.16.41-1.6-.13,0-.67.03-.92.19q.1-.44.92-.19ZM258.4,130.72c.17.42.18.57.31.56.01.14.02.29-.24.3l-.3-.42.23-.44ZM252.02,147.82c.45.55-.23,2.17-.88,2.34-.11.29.17.42-.06.87-.12.15.19.71-.06.87,0,0-.13,0-.15-.14-.29-.27-.06-.72-.08-1l.35-.59c.2-.87.1-2.02.88-2.34ZM262.38,117.03c-.22.58-.32,1.02-.41,1.6-.11.29-.24.3-.39.16-.28-.13-.17-.42-.18-.57.37-.45.32-1.02.98-1.19ZM260.08,121.73c.33.7-.03,1.29-.14,1.59-.12.15-.27.01-.41-.13-.17-.42.34-.73.55-1.46ZM260.72,119.69c.12-.15.27-.01.41.13.01.14-.54,1.61-.67,1.61,0,0-.28-.13-.29-.27.23-.44.32-1.02.55-1.46ZM258.98,124.65c.12-.15.39-.16.53-.02.16.28.01.14-.1.44l-1.32,1.93c.06-.87.26-1.74.88-2.34ZM256.65,130.65c.07-.72.33-.88.7-1.32-.08.72-.16,1.3-.7,1.32ZM248.36,152.3c.08-.72.13-1.73.61-2.33.72-1.04.89-2.2,1.2-3.36.33-.88.26-1.74.74-2.48.59-1.03,1.2-1.78,1.65-2.8.17-1.16.77-2.05.95-3.2.06-.87.46-.88.84-1.19.35.99-.41,1.6-.48,2.32-.79,3.49-2.16,6.42-3.25,9.49-.33.88-1.06,1.77-.7,2.91.18.57-.85,1.04-1.56.64ZM243.77,170.04c-.29-.27-.31-.56.09-.58.24-.3.35-.59.05-1.01-.34-.85.95-1.48.48-2.32-.01-.14.11-.29.38-.3.61-.75.54-1.61.48-2.32-.04-.43.08-.72.33-.88.49-.6.59-1.03.56-1.32-.53-1.56.32-2.6.8-3.34q.26-.16.23-.44c-.13-1.58.71-2.76,1.13-4.22.12-.15.24-.3.39-.16.28.13.3.42.05.57-.38,1.89-1.19,3.5-1.3,5.38-.74,2.48-1.65,4.39-1.97,7.13-.04,1.15-.61,2.33-1.04,3.64.01.14.03.43-.23.44-.27.01-.4.02-.42-.27ZM243.44,172.5c-.31-.56-.23-1.14.54-1.61-.08.72-.3,1.31-.54,1.61ZM242.27,174.56c-.02-.29.32-1.02.74-.75q.41.13.44.41c.04.43.06.72-.48.74-.27.01-.8.04-.7-.4ZM241.15,182.23c-.07-2.44,1.25-4.37,1.34-6.53.6.84-.37,5.34-1.34,6.53ZM248.08,165.25c.34-.73.77-.47,1.07-.05.23-.44,1-.91.52-1.89-.02-.29.1-.44.35-.59.27-.01.4-.02.55.12.29.27-.1.44-.09.58-.06.87-.42,1.46-.34,2.46.17.42-.2.87-.45,1.03-.52.17-.73-.69-1.14-.81h-.13c-.26.16-.19,1.02-.88.76-.55-.12-.09-1.15.54-1.61ZM246.95,167.88c.8-.04.81.11.84.39-.1.44.19.71-.34.73,0,0-.55-.12-.44-.41.26-.16-.06-.72-.06-.72ZM244.39,174.32l.12-.15c.24-.3.28.13.44.41-.15-.14-.39.16-.56-.26ZM242.87,180.28c-.15-1.86.38-1.89,1.39-1.07-.38.3-1.2.05-1.39,1.07ZM243.51,183.27c-.13,0-.28-.13-.42-.27-.16-.28-.03-.43.23-.44.15.14.81.11.84.39.01.14-.38.3-.64.32ZM243.4,185.15c.11-.29.39-.16.67-.03-.24.3-.52.17-.67.03ZM246.48,178.54c-.13,0-.27.01-.28-.13-.05-.57.06-.87.19-1.01.02.29.47.84.09,1.15Z"/>
  <path class="st0" d="M229.16,165.09c-.44-.41-.67.03-.78.32-.7,1.32-1.96,2.24-2.67,3.43-1.45,1.93-3.05,3.73-4.63,5.67-.34.73-1.64,1.22-1.55,2.37.73-.9,1.91-1.24,2.63-2.27.84-1.19,1.56-2.23,2.57-2.99.99-1.05,1.4-2.51,2.41-3.27.76-.61,1.22-1.49,1.82-2.38.37-.45.34-.73.2-.87Z"/>
  <path class="st0" d="M227.95,170.03s-.42-.27-.55-.12c-.26.16-.1.44.31.56l.07.86c.12-.15.38-.3.37-.45.23-.44.2-.87-.2-.85Z"/>
  <path class="st0" d="M240.31,155.53c-.12.15-.94.04-.76.61.17.42.05.57-.23.44-.13,0-.28-.13-.18-.57.11-.29-.19-.71-.2-.85l-.74.75c-.38.3-.89.61-.59,1.03.31.56.56.26,1.24.38.07.86-.56,1.32-.59,2.61.38-.3.89-.61.99-1.05.21-.73.83-1.33,1.44-2.08.11-.29.37-.45.21-.73-.02-.29-.33-.7-.58-.55Z"/>
  <path class="st0" d="M231.74,162.24c-.01-.14-.02-.29-.18-.57l-.39.16c-.6.89-1.34,1.64-1.9,2.96l.42.27c.48-.74.84-1.19,1.46-1.79.38-.3.62-.6.59-1.03Z"/>
  <path class="st0" d="M240.87,150.91c-.26.16-.53.02-.49.6.42.27.52-.17.49-.6Z"/>
  <path class="st0" d="M235.18,156.77c-.12.15.04.43.18.57l2.37-3.84c-.13,0-.4.02-.64.32l-1.9,2.96Z"/>
  <path class="st0" d="M234.14,158.83c-.37.45-.89.61-1.27.92-.23.44-.88.76-.96,1.34.01.14-.11.29-.1.44.28.13.41.13.4-.02.72-1.04,1.63-1.37,1.93-2.67Z"/>
  <path class="st0" d="M236.87,157.7l-.12.15q.01.14.28.13s.13,0,.26-.15c-.13,0-.15-.14-.41-.13Z"/>
  <path class="st0" d="M244.22,147.59s.15.14.26-.15c-.13,0-.41-.13-.41-.13-.15-.14-.13,0-.12.15,0,0,.01.14.28.13Z"/>
  <path class="st0" d="M242.51,152.85c-.16-.28-.07-.86.21-.73.84.39.48-.74.16-1.3,0,0,.24-.3.38-.3l-.02-.29c.12-.15.83.25.65-.32-.04-.43-.53.02-.81-.11-.13,0-.15-.14-.28-.13.09-.58.6-.89.56-1.32-.79.18-1.39,1.07-2,1.81.51-.31,1.17-.48,1.39.66-1.58.36-2.39,1.98-3.22,3.31.27-.01.56.26.96.24.27-.01.81.11.47.84-.12.15.02.29.04.43.28.13.41.13.53-.02.32-1.02,1.6-1.8.98-2.78Z"/>
  <path class="st0" d="M312.71,145.54c-.13,0-.53.02-.51.31-.11.29.17.42.59.69.13,0,.24-.3.35-.59-.02-.29-.17-.42-.44-.41Z"/>
  <path class="st0" d="M369.98,155.63c1.46-.21,1.58-.36,1.2-1.78-.63.46-.83,1.33-1.2,1.78Z"/>
  <path class="st0" d="M364.61,162.2c.77-.47,1.67-.94,1.7-2.23-.04-.43.08-.72.32-1.02.48-.74.82-1.47.74-2.48.4-.02.66-.17,1.01-.76.45-1.03.48-2.32,1.08-3.21.96-1.34,1.5-2.94,2.04-4.55.48-.74.65-1.9,1.11-2.78.66-1.75,1.43-3.8,2.07-5.84.65-1.9,1.3-3.8,1.66-5.97.39-1.74,1.07-3.35,1.19-5.08-.1-1.29-.18-2.15-.55-3.43-.07-.86-.25-1.43-.94-1.68-.41-.13-.56-.26-.87-.82-.18-.57-.6-.84-1.27-.81-.4.02-.55-.12-.85-.54-1.27-.81-2.32-2.2-4.04-1.83h-.13c-.67.04-1.47.07-2.08.82-.78.32-.6.89-1.07,1.63-1.01.76-2.11,2.11-2.97,3.01-.84,1.19-1.26,2.64-2.41,3.27-.75.61-.95,1.48-1.31,2.07-1.12,1.06-2.07,2.54-2.77,3.86-.12.15-.1.44.05.57-.78.32-1.02.62-1.25,1.06-.89.61-.38,1.89-1.57,2.08-.41,1.6-1.79,2.67-2.49,3.99-.72,1.04-1.31,2.07-2.15,3.26-.88.76-1.46,1.79-1.93,2.67-.43,1.31-1.28,2.36-1.88,3.25-.44,1.17-1.42,2.36-2.28,3.26-.22.58-.27,1.59-1.4.92-.02-.29-.27.01-.4.02-.09.58-.45,1.03-1.1,1.34.34-.73.59-1.03,1.1-1.34.28-1.45.7-2.91,1.25-4.37,1.05-1.92,1.4-4.23,2.41-6.58.84-1.19,1.11-2.78,1.68-4.1.19-1.01.38-1.89.71-2.76.48-.74.54-1.61.6-2.47.06-.87,0-1.58.34-2.46.2-.87.63-2.18-.38-3-.74-.83-1.23-1.96-2.55-1.61-.27.01-.45-.55-.73-.69-.42-.27-.6-.84-1.13-.67-.66.17-1.35-.08-1.8-.64-1.24-.38-2.42-.04-3.34.15-.27.01-.95-.1-1.03.48-.57,1.18-1.85,1.95-3,2.72-1.34,1.64.27,1.71,3.13.58.38-.3.48-.74,1.07-.05.29.27.45.55.22,1-.21.73-.57,1.18-.65,1.9-.17.95-.34,1.9-.4,2.95-.2-.28-.71-.18-1.6.44l-2.5.54c-.96,1.34-1.94,2.53-3.18,3.74-3.19,3.59-6.53,7.05-10.17,10.09-2.64,2.13-3.93,2.76-7.04,4.05-.39.16-.92.18-1.24-.38-.44-.41-.06-.72.16-1.3.75-2.33-.29-3.58.32-5.91.1-.44-.34-.85-.09-1.15,1.52-1.07,3.08-5.02,3.48-6.62,1.43-.5.63-2.18,1.5-2.94.1-.44-.31-.56-.71-.54-.39.16-1.28.78-1.48-.08-.06-.72,1.05-.33,1.43-.5.38-.3.78-.32.9-.47.9-.47,1.22-1.49.63-2.18-.74-.83-.51-1.27-.3-2,.64-2.04,1.71-3.67,1.82-5.69.08-.72.43-1.31-.29-1.86-1.25-.52-2.75-.88-4.04-.25-2.44,1.26-4.08,2.63-5.5,4.85-1.51,2.8-3.6,5.19-3.32,8.63.02.29-.08.72-.19,1.01-1.36,3.08-2.02,6.42-2.69,9.75-.8,3.34-.65,6.79.15,10.06.35.99.7,1.98.11,3.01-1.65,2.8-3.01,5.88-4.64,8.83-3.4,6.05-7.58,12.27-12.54,17.23-2.74,2.57-6.24,4.02-9.45,5.74-.79.18-1.82.66-2.33-.61-.7-1.98-1.41-4.11-.65-6.3.57-1.18-.87-2.41-.7-3.71.69-3.05.9-7.08,2-10.01l4.28-11.69c1.02-2.35,2.18-4.55,3.34-6.76q.12-.15.11-.29l1.64-2.95c.48-.74.81-1.62,1.28-2.36,1.88-3.25,3.87-6.79,5.61-10.17.71-1.18,3.6-1.89,3.88-3.34.19-1.01.82-1.47,1.57-2.08.78-.32,1.41-.78,1.74-1.66.22-.58.87-.9,1.41-.78.7.4,1.48.08,1.7,1.07.22,1,.93,1.54,1.93.63.49-.6.83-1.33,1.75-1.52,1.16-.63,1.21-1.64.31-2.75-.01-.14-.29-.27-.46-.7-.84-2.12-1.41-2.52-3.38-2.01-.27.01-.52.17-.53.02-.93-1.54-2.2-.62-3.4-.57-4.41.2-8.03,1.8-11.14,4.81-2.48,2.41-4.41,5.08-6.18,8.04-2.9,3.87-5.52,8.01-7.68,12.7-.82,1.47-2.07,2.54-2.45,4.42-.19,2.6-1.48,4.81-2.09,7.28-1.08,3.21-1.21,6.52-2.02,9.72-.73,2.62-.96,6.37-.99,9.24-.19,2.6-.37,5.34.78,7.87,2.17,5.22,4.8,9.56,10.68,10.88,1.09.24,2.15.05,3.51.27,1.37.37,2.54-.11,3.69-.74,1.14-.77,1.99-1.96,3.02-2.43,2.6-.98,4.29-3.35,5.96-5.87,1.68-2.38,3.63-4.76,5.32-7.14.61-.75,1.38-1.21,1.44-2.08.97-2.92,2.58-6.15,4.1-8.95,1.64-2.95,3.01-5.88,4.22-9.1.32-1.02.96-1.34,1.9-1.38,1.88.06,3.82-.89,3.55-.88,2.66-.26,4.67-1.93,6.57-3.31,2.67-1.84,5.32-3.83,7.1-6.64,3.46-2.62,6.73-6.81,8.6-10.01-.38,1.34-.78,2.71-1.75,3.67l-.23.44c.15,1.86-2.77,8.75-3.57,10.51-.33.88-.38,1.89-.84,2.91-1.07,1.63-1.32,3.51-1.98,5.26-.26.16-.35.59.07.86.21-.73.42-1.46.79-1.76.64-.32.59-1.03,1.07-1.63.45-1.03.75-2.33,1.06-3.5.41-1.6,3.73-8.5,4.17-9.67.33-.88.96-1.34.88-2.34.12-.15-.03-.43.22-.58.26-.15.53-.02.68.11.15.14.17.42.07.86-.07.72-.71,1.18-.77,2.05-.05,1.01-.21,2.31-.65,3.48-.11.29-.63.46-.61.75.25,1.43-.73,2.62-1.04,3.64-.19,1.01-.38,1.89-.45,2.75-.23.44-.33.88-.44,1.17-.73.9-1.17,2.06-1.62,3.09-.09.58-.77.47-.44,1.17.05.57-.28,1.45-.65,1.9-.5.45-1.11,1.2-.52,1.89.16.28.07.86-.32,1.02-.39.16-.48.74-1.43.5-.13,0-.26.16-.11.29.19.71.09,1.15.13,1.58.28.13.59.69.62.98.01.14.15.14.02.29-.27.01-.01-.14-.02-.29l-.4.02c-.99,1.05-.4,3.32-2.08,4.12-.26,1.74-1.76,3.1-1.61,4.96.02.29-.23.44-.35.59-.27.01-.39.16-.5.45-.87.9-1.5,1.36-2.7,1.41-.79.18-1.01.76-1.23,1.35-.26.16-.1.44.2.85.15.14.28.13.53-.02.5-.45.64-.32.68.11.31.56.35.99-.02,1.44-.51.31-.48.74.23,1.14.13,0,.16.28.31.56.24,1.28,1.48,1.66,2.32,2.2,1.38.51,2.67-.12,4.03.11.27-.01.64-.32.62-.6.06-.87.42-1.46.94-1.62,1.01-.76,1.09-1.49,1.27-2.5-.02-.29.09-.58.32-1.02.9-2.05,2.07-4.26,2.68-6.59.42-1.46.56-3.04,1.25-4.37,1.35-3.22,3.23-6.47,4.95-10,1.38-2.79,2.92-5.31,4.3-8.1.11-.29.37-.45.34-.73-.24-1.28.64-2.04,1.25-2.79.02.29-.22.58.06.72.37-.45.76-.61.59-1.03-.02-.29-.03-.43.23-.44,1.29-.63,1.43-2.22,2.17-2.97.24-.3-.47-.84.06-.87.78-.32,1.13-.91,1.33-1.78-.22.59-.6.89-.96,1.34.2-.87,1.27-2.5,2.03-3.11.03-1.3.93-1.77,1.99-1.96-.17-.42-.67.03-.44-.41-.05-.57-.1-1.29.55-1.46.52-.17.77-.47.56-1.32-.01-.14.1-.44.24-.3.45.55.4-.02.66-.17.34-.73.27-1.59.66-1.75,1.17-.48,1.5-1.36,1.54-2.51-.01-.14.12-.15.1-.44.44.41.86.68,1.09.24.22-.58.31-1.16.54-1.61.45-1.03.81-1.62,2-1.81-.45,1.03-1.21,1.64-1.51,2.8,1.11-1.2,1.93-2.67,3.02-4.02-.67.03-.78.32-1.01.76-.13,0-.24.3-.27.01-.15-.14-.17-.42-.17-.42.11-.29.23-.44.35-.59,1.24-1.21,1.93-2.67,2.91-3.72.35-.59.83-1.33,1.12-1.06.87.82,1.19-.2,1.58-.36.52-.17.77-.47,1.29-.63.62-.6.8-.04.7.4-.35,2.32-.82,4.78-1.3,7.1-.61,2.33-1.51,4.52-2.26,6.86-.41,1.6-.68,3.19-1.51,4.52-1.55,2.37-2.29,4.85-2.87,7.6-1,2.49-2.01,4.98-2.88,7.46-1.03,2.2-1.78,4.54-2.68,6.59-.55,1.46-1.11,2.78-1.69,3.96-.57,1.18-.87,2.48-1.3,3.8-.58,1.18-1,2.49-1.7,3.81-.34.73-.67,1.61-.19,2.6.01.14.19.71.31.56,1.12-1.06,1.21.09,1.41.8.84,2.12,1.83,2.65,3.84,2.7.81.11,1.47-.07,2.28.04.84.39,1.06-.19,1.16-.63.44-1.17.92-1.91,1.09-3.07.26-1.74,1.07-3.35,1.46-5.1.68-3.19,0,0,.93-3.35.1-.44.14-1.59,1.21-1.64-.03-.43-.41-.13-.44-.41.48-.74.98-1.19,1.44-2.08.75-2.33,2.33-4.27,3.63-6.49.48-.74.54-1.61,1.03-2.2.5-.45.61-.75.43-1.31-1.45,1.93-2.75,4.15-3.78,6.21q-.83,1.33-1.58.36ZM296.53,126.43c.13,0,.28.13.28.13l.02.29c-.15-.14-.28-.13-.41-.13-.15-.14-.02-.29.11-.29ZM311.85,143.28c-.01-.14-.16-.28-.42-.27-.39.16,1.23-1.35,1.25-1.06.16.28-.46.88-.83,1.33ZM313.75,140.32q-.15-.14-.17-.42s-.01-.14.12-.15l.15.14c.02.29-.1.44-.1.44ZM336.65,143.18s-.15-.14-.01-.14c-.02-.29-.03-.43.1-.44q.13,0,.15.14c.02.29-.1.44-.23.44ZM329.8,169.36c.28-1.45.74-2.48,1.49-3.09-.03,1.29-.37,2.03-1.49,3.09ZM332.22,164.51c-.64-1.26-.58-2.13.81-3.2.33.7-.2,2.45-.81,3.2ZM333.66,159.13c.37-.45.59-1.03.96-1.34q.13,0,.28.13c-.22.58-.59,1.03-1.24,1.21ZM338.96,158.46c-.06-.72.48-.74.56-1.32-.09.58-.04,1.15-.56,1.32ZM365.76,123.62c-.02-.29.1-.44.63-.46-.1.44-.22.58-.63.46ZM363.68,145.85c-.02-.29.37-.45.99-1.05-.15,1.44-1.02,2.35-1.07,3.35.78-.32.67-.03.6.84-.09.58-.57,1.18-.77,2.05-.27.01-.39.16-.52.17-.15-.14-.16-.28-.04-.43-.01-.14-.02-.29.06-.87-.4.02-.64.32-.58-.55.16-1.3,1.17-2.06,1.32-3.51ZM362.99,152.21l-.74.75c-.04-.43.07-.72.31-1.16.37-.45.28.13.44.41ZM356.49,167.88c-.08-1,.02-1.44,1.03-2.2-.21.73-.56,1.32-1.03,2.2ZM357.6,164.96c-.41-.13-.31-.56-.33-.7-.13-1.58.32-2.6,1.31-3.65-.09.58.38,1.42-.37,2.03-.39.16-.32,1.02-.27,1.59.04.43-.08.72-.34.73ZM359.49,160.27c.01.14-.26.16-.39.16-.01-.14-.16-.28-.16-.28.22-.58.45-1.03,1.23-1.35-.22.59-.32,1.02-.68,1.47ZM360.29,156.93c.03.43.19.71-.05,1.01-.13,0-.27.01-.28-.13-.16-.28.1-.44.33-.88ZM361.62,155.14c-.55-.12-.86-.68-.88-.97-.44-.41.17-1.16.45-1.03.27-.01.71.54,1.15.95-.37.45.08,1-.72,1.04Z"/>
  <path class="st0" d="M351.57,143.66c-.27.01-.39.16-.52.17.16.28.18.57.18.57.27-.01.22-.58.34-.73Z"/>
  <path class="st0" d="M364.8,125.1c-1,.91-1.84,2.09-2.68,3.28-.11.29-.23.44-.21.73,1.1-1.34,2.06-2.68,3.17-3.88-.13,0-.15-.14-.28-.13Z"/>
  <path class="st0" d="M345.51,148.25c-.37.45-.62.6-.73.89.4-.02.38-.3.73-.89Z"/>
  <path class="st0" d="M413.27,160.31c-.23.44-.34.73-.19,1.01-.02-.29.63-.46.19-1.01Z"/>
  <path class="st0" d="M414.13,156.11c.02.29-.35.59-.07.72.28.13.39-.16.5-.45,1.03-.48.78-1.9,1.67-2.52.12-.15.45-1.03.12-1.87-.67,1.61-1.66,2.66-2.21,4.12Z"/>
  <path class="st0" d="M379.76,142.4c-.26.15-.34.73-.2.87.29.27.55.12.94-.04.34-.73.57-1.18.77-2.05-.63.46-.86.9-1.51,1.22Z"/>
  <path class="st0" d="M379.47,143.85c-.3-.42-.69-.26-1.07.05-.59,1.03-1.46,1.79-2.05,2.82-1.22,1.49-2.46,2.7-3.54,4.33-.21.73-.03,1.3-.68,1.47.03.43.3.42.55.12,1.14-.77,1.58-1.94,2.44-2.98,1.05-1.92,2.66-3.57,3.99-5.35.26-.16.51-.31.37-.45Z"/>
  <path class="st0" d="M413.88,157.99c.27-.01.4-.02.39-.16-.01-.14-.02-.29-.16-.28-.27.01-.4.02-.39.16.01.14.16.28.16.28Z"/>
  <path class="st0" d="M412.06,161.95c-.73.9-1.32,1.93-2.19,2.69-.56,1.32-1.38,2.79-2.83,3.14.15.14.29.27.17.42-.31,1.16-1.49,1.5-1.66,2.66.01.14-.12.15-.26.16-.47-.84-.94.04-1.18.34-.5.45-1.1,1.34-1.46,1.79-.24.3-.34.73.19.71.13,0,.15.14.17.42.01.14-.12.15-.26.15-.58-.55-1.2.05-1.43.5-1.7,2.23-3.65,4.62-5.63,6.58-1.49,1.5-2.97,3.01-4.59,4.52-1.11,1.2-2.21,2.54-3.77,3.04-.66.17-1.17.48-1.46.21-.57-.41-.11-1.29.13-1.73.21-.73.55-1.46,1.05-1.92.41-1.6,1.08-3.21,1.63-4.67.09-.58.45-1.03.67-1.61.53-1.75,1.2-3.36,1.6-5.1.31-1.16,1.43-2.22,1.58-3.66.09-.58.42-1.46.37-2.03-.09-1.15.66-1.75,1.25-2.79.71-1.18.98-2.77,1.53-4.24.98-2.77,1.55-5.68,3.5-8.06.23-.44.32-1.02.27-1.59-.13-1.58.45-2.75.88-4.06.42-1.46,1.37-2.94,1.64-4.53.68-1.47.54-3.19,1.36-4.66.49-.6.44-1.17.53-1.75.17-1.16.07-2.45.53-3.33.96-1.34.11-3.6-1.03-4.41-.82-.25-1.37-.37-1.7-1.07-.18-.57-.86-.68-1.26-.66-1.08-.1-1.88-.06-2.99-.44-1.01-.82-2.46-.61-3.53-.56-1.18.34-2.31,1.25-2.73,2.71.15.14.01.14-.26.16-.13,0-.27.01-.39.16-.55,1.46-1.39,2.65-2.5,3.85-1.36,1.35-2.72,2.85-4.07,4.35-.73.9-1.73,1.8-2.45,2.84.79-.18,1.17-.48,1.93-.95,1.13-.91,1.38-2.79,2.95-3.29.13,0,.26-.16.23-.44-.04-.43.1-.44.35-.59.75-.61,1.27-.92,1.75-1.52,1.38-1.21,2.91-2.14,4.27-3.5.74-.75,1.58-.36,1.78.5.12,1.43-.02,3.02-.46,4.19-.64,2.04-1.83,3.82-2.18,6.13-.53,1.75-1.21,3.22-1.77,4.54-.88,2.34-1.39,4.37-2.29,6.43-.41,1.6-.92,3.49-1.62,4.82-.38.3-.62.6-.73.9-.23,2.17-1.26,4.22-1.78,6.12-.92,1.91-1.82,3.96-2.47,5.86-.09.58.34.85-.05,1.01-1.05.33-1.36,1.35-1.71,2.09-1.22,3.07-2.44,6.29-3.25,9.49-.33.88-.39,1.74-.32,2.6.16.28.06.72-.2.87-.5.45-1.01.76-.96,1.34.35.99.58,2.13,1.01,2.54.71.54,1.19,1.38,1.12,2.25l.15.14c.86.68,1.44,1.23,2,1.49.31.56,1.16,1.1,1.39.66.2-.87.74-.75,1.03-.48.7.4,1.24.38,2-.09.51-.31,1.43-.5,2.11-.38,2-.09,3.45-.44,5.01-1.09,1.28-.78,2.41-1.69,3.37-3.03.74-.75,1.47-1.65,2.5-2.27.73-.9.93-1.77,1.66-2.66,1.74-1.66,3.19-3.59,4.51-5.52.33-.88.67-1.61,1.43-2.22l1.57-2.08c.34-.73-.02-1.87,1.16-2.21.17-1.16.74-2.48,1.44-3.66.63-.46,1.25-1.06,1.58-1.94,1.06-1.77,1.86-3.53,3.06-5.17-.4.02-.79.18-1.02.62ZM381.97,171.2c-.13,0-.15-.14-.15-.14l.24-.3c.13,0,.15.14.15.14.01.14-.11.29-.24.3ZM392.04,168.02c-.06-.72-.07-.86.19-1.01.16.28.03.43-.19,1.01ZM403.85,173.1c-.13,0-.27.01-.28-.13.1-.44.34-.73.61-.75.05.57-.06.87-.33.88Z"/>
  <path class="st0" d="M321.87,179.06c-.01-.14-.15-.14-.15-.14-.27.01-.26.16-.22.58.27-.01.38-.3.37-.45Z"/>
  <path class="st0" d="M320.93,180.68q-.12.15-.26.16l.03.43c.13,0,.27-.01.24-.3l-.02-.29Z"/>
  <path class="st0" d="M323.91,172.78c-.41-.13-.52.17-.63.46.02.29-.23.44-.06.87.42.27.35-.59.75-.61.24-.3.35-.59-.06-.72Z"/>
  <path class="st0" d="M469.49,145.39c.14-.81.2-1.61.43-2.44.25-.96-2.1.84-2.55.64-.22-.1-.63-.03-.9.14-1.08.69.24-1.61-.8-1.58-.39-.07-.84.26-1.25.32-.33.05-.63-.03-.96.02-.8,0-1.59-.02-2.44.24-.35.19-.75.64-1.22.58-.06-.12-.25.04-.41.06-.25.04-.47-.06-.63-.03-.22-.1-.39-.07-.55-.05-.16.03-.38.32-.54.35-.9.14-1.89.29-2.81.56-.9.14-1.91.43-2.81.56l-1.48.23c-.41.06-.71-.02-1.12.04-.08.01-.19.16-.25.04-.63-.03-1.16-.22-1.77-.39l-.49.08c-.25.04-.62.36-.84.26-.36-.21-.54.35-.83.66-.19.16-.4.46-.48.47-.41.06-.71-.02-1.13.04-.3-.09-.63-.03-.96.02-.55-.05-1.12.04-1.7.13-.16.03-.46.33-.65.49-.25.04-.55-.05-.82.13-1,.68-1.59-.02-2.39-.03-.16.03-.41.06-.6.22-.29.31-.61.75-.94.8-.93.27-1.91.43-2.9.58-.43.2-.93.27-1.33.73-.4.46-.73.51-.98.15-.34-.34-.66.1-.86.79-.05.27-.32.44-.51.6-.19.16-.43.2-.54.35-.08.01-.15.42-.09.54.19.76-.21,1.22-.64,1.81-.27.17-.56.48-.72.9-.39.85-.61,1.68-.9,2.38l-.07.41-.5,2.84c-.17.95-.01,1.45.56,1.36.41-.06.87-.4,1.28-.46.47.06.93-.27,1.45-1.01.21-.3.51-.6.75-.64.57-.09,1.15-.18,1.64-1.17l.16-.03.9-.14c.33-.05.62-.36.87-.4.83.27,1.64-.25,2.51-.65,1.03-.42,1.91-.43,2.9-.58.82-.13,1.62-.12,2.36-.23.3.08.66-.1,1.01-.29.25-.04.52-.21.76-.25.41-.06.75.28,1.18.08.76-.25,1.55-.63,2.31-.88l-.07.41c.98-.15,2.03-.18,3.04-.47.9-.14,1.91-.42,2.84-.7.08-.01.14.11.22.1l1.9.1.74-.11c.55.05,1.13-.04,1.68,0,.33-.05.76-.25,1.07-.16l1.65.14c-.02.14.16-.03.16-.03.48-.47.86-.79,1.07-.16-.02.14.06.12.14.11.41-.06.71.02,1.04-.03.33-.05.63.03.96-.02.41-.06.84-.26.68.69-.05.27.01.39.07.52.11-.15.21-.3.29-.31.29-.31.56-.48.83-.66l.25-.04.9-.14c.25-.04.49-.08.68-.24.16-.03.27-.17.41-.06.41-.06,1-.68,1.28-1.38.6-1.15.81-2.37.86-3.56.11-1.07.4-2.3.59-3.39ZM433.12,152.95c-.14-.11-.26-.36-.32-.48.11-.15.21-.3.48-.47l.32.48c-.19.16-.4.46-.48.47ZM437.4,152.69c-.12-.25-.15-.5-.13-.64.02-.14.21-.3.42-.59.03.26.17.37.15.5-.05.27-.24.43-.45.73ZM439.87,149.94c-.39-.07-.88,0-1.35-.06-.16.03-.28-.22-.34-.34.08-.01.27-.17.38-.32.11-.15.27-.17.35-.19.43-.2.95-.41,1.44-.48.08-.01.07.52.13.64-.18.55-.25.96-.61.75ZM442.98,149.07c-.19.16-.46.33-.6.22-.22-.1-.34-.34-.56-.44.21-.3.4-.46.67-.63l.89-.53.35.74c-.27.17-.48.47-.75.64ZM447.55,148.5c-.16.03-.2-.23-.23-.49.02-.14.32-.44.4-.46s.2.23.4.47c-.27.17-.5.6-.56.48ZM449.46,148.07c-.25.04-.41.06-.63-.03-.06-.12-.28-.22-.26-.36.05-.27.26-.57.39-.85.39.07.63.03.83.27.14.11.18.37.29.61-.25.04-.46.33-.62.36ZM451.97,147.42c-.08.01-.2-.23-.18-.37-.06-.12.13-.28.24-.43l.23.49c-.11.15-.24.43-.29.31Z"/>
  <path class="st0" d="M79.79,92.7c.12-.15.26-.16.09-.58-.14-.14-.27.01-.41-.13.17.42-.1.44.05.57-.24.3.16.28.28.13Z"/>
  <path class="st0" d="M83.41,92.68c-.4.02-.51.31-.24.3.46.7.96.24,1.48.08-.58-.55-.86-.68-1.24-.38Z"/>
  <path class="st0" d="M112.75,81.3c1.12.06,2.41.11,3.54,0,.32-.03.64.11.8.09.97-.1,1.77,0,2.58-.08.97-.1,1.93-.02,2.72.25,1.94-.19,3.87-.21,5.64-.21.81-.08,1.6.19,2.57.09,1.45-.14,2.92-.63,4.49.24.79.44,1.6.36,2.07.66,1.9.84,3.82,1,5.98-.94.67-.75,1.5-1.35,2.15-1.76.82-.42,1.32-.99,1.04-1.99-.11-1.54-.38-2.88-.49-4.25-.28-1.18.16-4.31.98-4.91.67-.75.68-1.1.57-2.29-.44-1.16-1.09-.92-1.73-1.2-.63-.45-1.26-.73-2.07-.66-.79-.26-1.6-.19-2.24-.29-.32.03-.79-.44-1.27-.56-1.61.16-3.39.34-5.16.34-2.09.03-4.34.09-6.59-.04-1.77.18-3.39.34-4.83.13-1.61-.01-3.24.66-5,.32-.64-.11-1.45.14-2.25.05q-1.13.11-1.18,1.49l-.02.52c.16-.02.32.14-.03.69-1.78.35-3.56.52-5.17.68-1.3.3-2.58.26-4.04.57.31.31.45.81.77.96.3.66.26,1.69-.09,2.42-.18.53-.37,1.41-.71,1.96-.17.36-.83.77-1.15.8l-.16.02.5-.39c-.16.02-.47-.3-.96-.25l-.16.02c-.15-.33-.62-.63-.62-.63-.97.27-2.11.55-2.94,1.15-.16.02-.33.2-.5.39v-.17s-.16.19-.16.19l.16.16c-.67.75-1.06,2.51-1.56,3.08-.15-.33-.3-.49-.63-.45-.32.03-.47-.3-.61-.8l.16-.02v-.17s-.16.02-.16.02l.06-1.73.63-4.19c.01-.34.18-.53.35-.89.5-.57,1.17-1.32,1.19-1.66l-5.01.67c-.17.19-.34.55-.35.72-.35.89-.39,1.93-.42,2.79.1,1.71-1.4,3.06-2.68,2.84-.81.08-1.77,0-2.57-.09-.48.05-.97.27-1.31.65-.51.74-1,.96-1.47.66-.47-.3-1.27-.39-1.58-.7.17-.19.33-.2.66-.41-.97.1-1.28-.04-1.78.35-.97.1-1.94.19-2.9.11-.64-.11-1.28-.22-1.75-.51.81-.25,1.79-.69,2.45-1.1-.15-.33-.47-.47-1.12-.23-1.12-.06-2.26.22-3.23.32-.3-.49.21-1.4.86-1.63l2.44-.76c.32-.03.66-.41.99-.61-.16.02-.16-.16-.16-.16l-3.56.7c-.81.08-1.94.36-2.91.46-.64-.11-1.12-.23-1.76-.17-2.1.38-4.04.57-5.98.94l-4.23.93s-1.9,4.76-1.17,4.93c.73.17.77,1.38.71,2.07-.06.69-.7,1.84-.9,2.39-.21.55.02,2.31.02,2.31l2.07-.25c1.46-.49,3.08-.65,4.54-1.14l2.12-.72c.81-.25,1.63-.5,2.1-.21.14.67.43,1.5.07,2.4-.56,2.12-1.6,4.28-2.48,6.26-.71,1.96-1.59,3.94-2.3,5.9-.34.55-.53,1.26-.71,1.79l-3.16,7.53c-.88,2.15-1.6,4.28-2.15,6.23l-3.16,7.36c-.35.89-.7,1.62-.89,2.5-.53,1.43-.91,3.01-1.28,4.42-.53,1.43-1.4,3.06-1.77,4.65,0,.17-.17.19-.17.36-.16.02-.16-.16-.32-.14q.16.16.15.33c-.52,1.08-1.36,2.03-2.66,2.33-.48.05-1.13.11-1.62.33-1.17,1.15-2.28.91-3.74,1.23-2.11.55-4.2.59-6.31.97-.48.05-.97.27-1.62.33-1.95.71-4.2.41-5.57,2.96-1.63.68-1.37,2.2-1.57,3.42-.2,1.22-.22,1.57,1.05,1.96.48.12.96.08-1.3.47.96.25,4.18.1,4.8.56.79.44,1.1.58,1.76.34.81-.25,1.46-.49,2.1-.38,2.23.64,4.68-.46,7.09-.53.32-.03.97-.1,1.12.06.15.33-.04,1.03-.06,1.55-.01.34-.18.53-.19.88-.7,1.62-.76,3.34-1.63,4.97-1.02,1.65-3.62,7.61-4.65,9.6-.54,1.6-1.25,3.39-2.11,5.02-.2,1.22-.57,2.46-1.1,3.89-.55,1.77-1.25,3.56-1.95,5.01-.55,1.77-.93,3.53-1.32,5.29-.35.89-.71,1.96-.91,3.01-.52.91-.87,1.8-1.06,2.68-.34.55-.52,1.08-.54,1.6-.38,1.58-4.21,11.48-4.43,13.05-.71,1.96-4.71,12.05-5.42,14.01-.7,1.44-1.38,2.72-2.4,4.19-.53,1.43-1.38,2.72.19,3.76-.37,1.41.42,1.85,1.02,2.82.6,1.32,1.52,2.43,2.78,3.16.47.47,1.1.75,1.89,1.02,1.75.51,2.99,1.77,2.71.76.66-.58,1.17-1.15,1.84-1.9,1.33-1.16,1.38-2.72,1.76-4.3.08-2.24.16-4.49,1.36-6.67,1.71-2.92,8.4-22.61,9.48-25.64.89-2.49,1.48-5.3,2.05-7.94,0-.17.34-.38.5-.57.01-.34.18-.53.2-1.05.02-.69.22-1.74.58-2.64.81-.25,1.32-.99,1.52-2.04.03-.86.55-1.95.9-2.67.86-1.63,1.71-2.92,1.61-4.63-.32-.14-.15-.33.02-.52.08-2.24,2.23-3.83,2.15-6.06v-.17c1.35-1.51,2.97-7.37,3.84-9,.02-.52-.12-1.02-.11-1.54-.12-1.19.22-1.74,1.05-2.51.66-.58,1.33-1.16,1.51-1.87.52-.91.55-1.95,1.24-3.04.54-1.6,1.57-3.42,3.51-3.79.32.14.49-.22.98-.44.57-.35,1.25-.59,1.72-.23l3.95-1.02,2.76-.79c.8.09,1.93-.02,3.07-.3.48-.05.97-.27,1.62-.33.65-.06,1.14-.28,1.78-.35,1.77,0,3.55-.35,5.32-.35.48-.05.81-.08,1.46-.49.82-.42,1.63-.68,2.59-.43.8.09,1.43.37,2.08.31s1.14-.46,1.63-.68c.97-.27,2.12-.72,2.73.07.78.61,2.09.14,3.22.03,0,0,.34-.55.35-.72.02-.69-.1-1.71-.24-2.38-.13-.85-.27-1.52.25-2.43.18-.53.36-1.07-.27-1.35-3.32-1.56-7.02-1.54-10.55-1.71-2.1.21-4.36.43-6.78.84l-3.07.3c-.81.08-1.77,0-2.58.08-.22,0-.4-.05-.56-.1l-5.43,1.21c-1.14.28-2.23-.47-2.19-1.67.23-1.91,1.1-3.72,1.96-5.35.68-1.1,1.04-1.99,1.4-3.23.37-1.24,1.06-2.68,1.27-4.08.35-.72.71-1.79.42-2.62-.11-1.36.56-2.29,1.38-2.72,1.15-.8,1.19-1.84,1.38-2.72.71-1.96.94-3.87,1.81-5.51,1.19-1.66,1.89-3.45,2.6-5.24l2.25-4.35c.34-.55.37-1.41.55-1.95.87-1.81,1.25-3.56,2.27-5.04,1.17-1.15,2.17-2.28,2.07-3.99,1.49-1.18,1.38-2.54.94-3.87-.14-.67.52-1.08,1.48-1.01l.48-.05c.14.5.31.31.48.12.97.36,1.19,1.05.77,2.07l3.89,1.05c.61-.36,1.39-.53,2.48-.39,1.28.22,2.74-.1,3.86-.04l4.54-.96,5.51-1.06c.65-.06,1.46-.32,2.09-.03,1.28.04-.83.6.46.64Z"/>
  <path class="st0" d="M92.09,88.98c.4-.02.52-.17.5-.45-.4.02-.91.33-.5.45Z"/>
  <path class="st0" d="M571.22,220.13l-3.23-.98-.52.02c.19.18.22.55.39.54,1.25.32,2.5.64,3.76,1.14.16-.19.33-.2.51-.21l-.38-.36c-.17,0-.36-.17-.54-.16Z"/>
  <g>
    <path class="st0" d="M533.06,11.38c.05.56-.26,1.14-.39,1.7-.26,1.14-21.88,77.06-22.13,78.39l-.71,4.15-.79,3.22-.4,1.52c.02.19-.13.57-.27.95-.54,1.9-1.07,3.98-1.79,5.89-.13.57-.62.96-.75,1.53l-1.47,5.5-1.25,3.99c-.4,1.52-.8,3.03-1.38,4.56l-.85,2.47-1.28,3.62-.82,2.85-1.22,4.36c-.43,1.14-.69,2.28-1.31,3.24-.61,1.15-1.05,2.11-1.13,3.24-.11.75-.56,1.71-.85,2.47-.26,1.14-1.4,2.12-.93,3.6.02.19-.14.38-.13.57-.73,1.72-1.48,3.25-2.04,4.96l-1.25,3.99c-.13.57-.45.96-.59,1.34-.42,1.33-.66,2.65-1.07,3.98-.1.94-.2,1.88-.48,2.64-.45.96-.91,1.73-1.2,2.49-.35,2.08-.9,3.97-1.79,5.89.02.19-.14.38-.13.57-.54,1.9-1.09,3.8-1.81,5.7-.27.95-.17,2.26-1.15,3.05l.05.56c-.13.57.11,1.31-.2,1.88-.27.95-.92,1.54-1.37,2.5l-1.74,4.39c-.13.57-.07,1.31-.37,1.89-.27.95-.73,1.72-1.2,2.49-.45.96-.88,2.1-1.88,2.71-1.16.8-1.07,1.92-.63,3.03.05.56.09,1.12.31,1.67l.95,5.2.05.56c.2.37.23.74.42.92.36.17.73.34,1.07.33.19.18.35-.02.51-.21.17,0,.33-.2.32-.39.19.18.38.36.39.54.03.37.05.56-.1.94.08.93-.04,1.69,1.2,1.82h.17c.42.91.98,1.26,1.85,1.22.89.15,1.08.33,1.17-.61.13-.57.08-1.13.05-1.5l.48-.58c.02.19.2.37.22.55.03.37-.1.94.12,1.49l.79,1.09c.33-.2.49-.4.64-.78.13-.57.48-.58,1.01-.42.55.35,1.25.32,1.79.48.35-.02.52-.02.71.16l.52-.02c1.14-.99,2.48-1.8,3.03-3.51.11-.75.05-1.5.17-2.26.29-.76.39-1.7.67-2.47.1-.94.37-1.89.29-2.82.08-1.13,0-2.25.61-3.21.14-.38.3-.58.29-.76l.8-3.03.83-2.66c.4-1.52.64-2.84.87-4.35.83-2.66,1.66-5.32,2.32-7.97l2-7.58,2.17-5.53c.3-.58.24-1.32.37-1.89.16-.19.13-.57.11-.75,1.11-1.36,1.5-3.06,1.9-4.58l1.26-3.8.16-.19c.3-.58.62-.96.76-1.35.61-1.15,1.19-2.49,1.61-3.82.3-.58.57-1.52.88-2.1.45-.96,1.07-1.92,1.34-2.87.7-2.09,1.61-3.82,2.49-5.92.13-.57.43-1.14.56-1.71l2.55-5.17.65-.59c.2.37.39.54.42.92.33,1.86.13,3.74.98,5.58.22.55.11,1.31.17,2.05l.8,3.34c.56,2.6.95,5.2,1.53,7.99.28,1.3.91,2.58,1.02,3.89.12,1.49,1.26,2.57.86,4.08.27,1.11.36,2.23.61,3.16.05.56.08.93.28,1.3.5,1.85,1.16,3.51,1.65,5.17.28,1.3,1.08,2.57,1.21,4.07.11,1.31.89,2.4,1.35,3.69.5,1.85,1,3.7,1.68,5.55.44,1.1,1.05,2.2,1.49,3.31.22.55.44,1.1.49,1.66.2.37.22.55.41.73.63,1.28,1.42,2.37,1.71,3.86.08.93.5,1.85.91,2.58.85,1.84,1.87,3.66,2.88,5.3,1.01,1.64,1.54,3.87,3.21,5.1,0,0,.02.19.19.18,1.01,1.64,1.86,3.48,3.02,4.92,1.39,2,2.93,3.8,4.64,5.41.96,1.08,2.26,1.96,3.04,3.05,1.15,1.26,2.62,2.13,3.92,3.01.74.53,1.69,1.42,2.67.63.16-.19.52-.02.7-.03.73.34,1.45.68,2.17.84,2.36,1.02,4.7,1.85,7.04,2.68.19.18.35-.02.54.16l2.44-.11c.87-.04,1.71-.45,2.42-.3,1.58.12,3.15.05,4.7-.21l1.77.3c.49-.4.97-.98,1.65-1.2.67-.4,1.52-.63,2.38-.86l.3-.58c.16-.19.13-.57.29-.76.82-.6,1.63-1.38,2.63-1.99.67-.4.79-.97.75-1.53-.22-.55-.27-1.11.48-.58.17,0,.33-.2.51-.21.81-.79,1.62-1.57,2.26-2.35.16-.19.3-.58.29-.76-.41-.73-.28-1.3.37-1.89l.43-1.14c-.03-.37.11-.75.27-.95l1.18-2.68c.14-.38.11-.75.64-.78,0,0,.16-.19.14-.38l-.77-2.96c-.02-.19.14-.38.14-.38.65-.59.43-1.14.37-1.89-.03-.37-.08-.93.08-1.13.81-.79.75-1.53.85-2.47l.6-5.46-.03-.37c-.16.19-.33.2-.32.39.03.37.06.75-.08,1.13l-.48.58-.06-.75c-.05-.56-.09-1.12-.3-1.49-.58-.72-.61-1.1.05-1.5.67-.4.79-.97.75-1.53-.08-.93-1.04-2.01-.05-2.81.17,0-.02-.19-.02-.19-.08-.93-.34-2.05-.42-2.98l-.55-.35.03.37c-.1.94.14,1.68.02,2.43l-.36,2.08-1.25,3.99c-.29.76-.92,1.54-1.02,2.48-.57,1.52-.8,3.03-1.2,4.55-.13.57-.27.95-.24,1.32-.29.76-.57,1.52-.88,2.1-.13.57-.43,1.14-.56,1.71l-.46.77-.93,3.6c-.45.96-.7,2.09-1.15,3.05l-1.85,3.08c-1.11,1.36-1.85,3.08-3.72,3.73-.68.22-1.17.61-1.67,1.01l.51-.21.03.37c.02.19-.16.19-.32.39,0,0-.19-.18-.2-.37l-.02-.19c-.03-.37-.39-.54-.73-.34-.16.19-.52.02-.7.03-.71-.16-1.45-.68-2.1-.09-.17,0-.38-.36-.38-.36-.36-.17-.55-.35-.73-.34,0,0-.33.2-.32.39.19.18.38.36.39.54.19.18.36.17.38.36.19.18.39.54.24.74.02.19-.33.2-.68.22-.17,0-.54-.16-.73-.34-.17,0-.36-.17-.36-.17-.02-.19.14-.38.3-.58.51-.21.32-.39-.22-.55-.17,0-.36-.17-.36-.17-.79-1.09-1.64-.86-2.5-.64-.52.02-.86.23-.29.76.19.18.22.55.05.56-.32.39-1.22.05-1.26-.51-.24-.74-.55-.35-.89-.15-.16.19-.48.58-.54-.16h-.17c.05.57-1.19.44-.59,1.35l-.16.19c-.55-.35-1.38.25-1.63-.68,0,0-.35.02-.54-.16-.35.02-.52.02-.71-.16l-1.83-1.04c-.02-.19-.19-.18-.2-.37,0,0,.16-.19.33-.2l1.28.69c.19.18.54.16.71.16-.02-.19-.05-.56-.23-.74-.76-.72-1.67-1.24-2.43-1.95,0,0-.35.02-.33.2l.05.56c.03.37-.11.75-.1.94-.35.02-.71-.16-1.08-.33-.73-.34-1.3-.88-1.85-1.23-.19-.18-.39-.54-.41-.73-.02-.19.33-.2.49-.4-.02-.19.16-.19.33-.2-.19-.18-.2-.37-.57-.54l-.7.03c-.76-.72-1.01-1.64-1.92-2.16-.55-.35-1.14-1.07-1.53-1.62-.58-.72-.93-.71-1.39.06-.16.19-.33.2-.51.21l-.03-.37c-.05-.56-.09-1.12.4-1.52,0,0-.03-.37-.22-.55-.05-.56-.25-.93-.45-1.29-.39-.54-.6-.91-.98-1.27,0,0-.19-.18-.2-.37l-.63-1.28c.02.19-.13.57-.1.94.02.19-.14.38-.13.57l-.16.19c-.17,0-.36-.17-.38-.36.13-.57.07-1.31.2-1.88q.13-.57-.25-.93c-.55-.35-.95-.89-1.33-1.25-.02-.19-.19-.18-.36-.17-.19-.18-.9-.33-.74-.53-.06-.75-1.67-1.24-.88-2.21-.58-.72-.28-1.3-.17-2.05,0,0-.2-.37-.38-.36-.17,0-.33.2-.32.39l.28,1.3c.02.19-.14.38-.13.57-.17,0-.35.02-.54-.16-.57-.54-.67-1.84-.02-2.43.48-.58.24-1.32-.17-2.05-.58-.72-2.01-1.03-1.42-2.37-.02-.19-.19-.18-.2-.37l-.78-3.15c-.19-.18-.03-.37.13-.57,0,0,.16-.19.17,0,.38.36.76.72.8,1.28.24.74.47,1.48,1.05,2.2.58.72.85,1.84,1.43,2.56.82,1.46,1.11,2.95,1.76,4.42.41.73.82,1.46,1.39,2,.74.53,1.17,1.45,1.23,2.19-.1.94.27,1.11.82,1.46l1.11.7c.17,0,.52-.02.51-.21.33-.2.65-.59.79-.97.14-.38.27-.95.08-1.13-.6-.91-1.18-1.63-1.77-2.36-.2-.37-.24-.74-.44-1.1-.44-1.1-.39-2.61-1.51-3.49l-.03-.37-1.93-4.41c-.19-.18-.55-.35-.73-.34-.54,1.9-.67.4-.89-.15-.02-.19-.2-.37-.22-.55-.22-.55-.61-1.1-.83-1.65-.79-1.09.32-2.45-.81-3.52-.17,0-.02-.19-.03-.37l-.2-2.43c-.03-.37-.2-.37-.22-.55-.17,0-.35.02-.51.21-.17,0-.16.19-.33.2-.02-.19-.2-.37-.2-.37-.09-1.12-.15-1.87-1.24-2.38-.74-.53-.67-1.84-.2-2.43.65-.59.76-1.35.34-2.26-.39-.54-.8-1.28-.86-2.02-.42-.92-.36-2.23-.8-3.34-.63-1.28-.91-2.58-.84-3.9-.03-.37-.24-.74-.44-1.1-.24-.74-.47-1.48-.52-2.04-.22-.55-.08-.93-.12-1.49-.31-1.67-.45-3.35-.93-5.02-.31-1.67-.27-3.36-.59-5.03-.05-.56-.09-1.12-.31-1.67-.05-.56-.27-1.11-.31-1.67l-.38-4.67c-.45-3.35-.74-6.9-1.2-10.44-.05-.56-.27-1.11-.48-1.66l-.33-1.86-.42-.92c-.19-.18-.38-.36-.41-.73-.8-1.28-1.89-1.79-2.98-2.3-.89-.15-1.9.27-2.77.31-.52.02-1.03.23-1.33.81-.79.97-1.6,1.76-3,1.82-1.05.05-2.25.29-2.65,1.8-.14.38-.83.6-1.16.8.02.19-.19-.18-.19-.18l1.26-3.8s-.02-.19.16-.19c.48-.58,1.13-1.17,1.78-1.77.48-.58.75-1.53.18-2.07-.58-.72-.08-.93.29-.76,1.22-.05,1.67-1.01,2.14-1.59.76-1.35,1.51-2.88,2.86-3.5.16-.19.14-.38.14-.38.78-1.16.48-2.64,1.83-3.27.33-.2.3-.58.45-.96l.46-.77c.76-1.35,1.53-2.69,2.47-4.04.64-.78.27-.95-.44-1.1-.19-.18-.54-.16-.52.02-.65.59-1.7.64-1.78,1.77-.68.22-.81.79-.76,1.35.06.75-.26,1.14-.94,1.35-.51.21-.3.58.05.56.73.34.39.54.05.56-.33.2-.86.23-1.22.05-.36-.17-.77-.9-.63-1.28.13-.57.56-1.71.91-1.73,1.04-.05.97-.98,1.27-1.56.65-.59.73-1.72,1.01-2.67-.02-.19.3-.58.48-.58.7-.03.81-.79,1.13-1.17.16-.19.14-.38.13-.57l-.52.02c-.62.96-1.84,1.02-2.27,2.16-.43,1.14-1.6,1.76-2,3.27-.27.95-1.07,1.92-1.31,3.24.02.19-.33.2-.67.4-.16.19-.51.21-.67.4-.49.4-.79.97-1.11,1.36-.67.4-.82.6-.26,1.14l-.11.75c-.17,0-.36-.17-.36-.17-.19-.18-.36-.17-.38-.36.02.19-.14.38-.13.57l.06.75c-.64.78-1.26,1.74-1.72,2.51-.32.39-.83.6-.43,1.14l-.14.38c-.52.02-.51.21-.3.58l-.49.4c.02.19-.33.2-.32.39l-.42,1.33c-.14.38-.82.6-.87.04-.24-.74-.35.02-.35.02-.59,1.34-1.01,2.67-1.42,4,.02.19-.33.2-.49.4-.02-.19-.2-.37-.39-.54-.05-.56-.09-1.12.2-1.88.45-.96.53-2.08.79-3.22.16-.19.3-.58.29-.76.13-.57-.12-1.49.21-1.7.98-.79.24-1.32-.15-1.87-.02-.19-.19-.18-.2-.37.17,0,.33-.2.35-.02.87-.04,1.35-.62,1.46-1.38.14-.38.3-.58.27-.95.26-1.14.17-2.26.63-3.03.76-1.35,1.01-2.67,1.42-4,.42-1.33.1-3,1.06-4.17-.6-.91.04-1.69.31-2.64.23-1.51.63-3.03.87-4.35.29-.76.59-1.34.18-2.07-.19-.18-.03-.37-.05-.56.45-.96,22.26-76.71,21.98-78.01-.05-.56-.26-1.11-.3-1.49-.08-.93.21-1.7.15-2.44M515.26,134.16c-.49.4-1.01.42-1.52.63-.17,0-.36-.17-.36-.17-.19-.18-.05-.56-.06-.75.65-.59.75-1.53,1.79-1.58.35-.02.71.16,1.06.14-.46.77-.59,1.34-.91,1.73ZM520.93,124.35c-.62.96-2.2.85-2.05,2.71.19.18-.13.57-.3.58-.86.23-.45.96-.42,1.33.03.37.22.55.25.93.02.19-.14.38-.32.39,0,0-.17,0-.36-.17-.17,0-.19-.18-.38-.36l.11,1.31-.73,1.72.03.37c-.17,0-.36-.17-.38-.36.16-.19.3-.58.27-.95-.02-.19-.03-.37-.22-.55-.2-.37-.76-.72-.77-.9.14-.38.45-.96.78-1.16.16-.19.33-.2.67-.4l.16-.19c-.6-.91.39-1.7.15-2.44-.02-.19.16-.19.14-.38l2.02-3.09c.16-.19.3-.58.45-.96,0,0,.16-.19.14-.38l.97-.98c.17,0,.16-.19.16-.19,1.39-.06.78-1.16,1.24-1.93.14-.38.46-.77.76-1.35.14-.38.3-.58.43-1.14.14-.38,1.88-2.71,2.4-2.73.84-.41.55.35.6.91.22.55.25.93-.43,1.14-.51.21-.79.97-1.1,1.55-.46.77-.89,1.91-1.53,2.69-.3.58-.79.97-1.29,1.37-.65.59-.78,1.16-.7,2.09.03.37.49,1.66-.75,1.53ZM534.31,189.89c-.17,0-.2-.37-.22-.55l-1.01-1.64c-.2-.37-.25-.93-.28-1.3-.02-.19.14-.38.3-.58l.38.36c.44,1.1,1.05,2.2,1.51,3.49.02.19-.14.38-.13.57-.17,0-.36-.17-.55-.35ZM581.56,222.82c.02.19-.19-.18-.38-.36-.03-.37-.06-.75-.24-.74.33-.2.68-.22.84-.41.02.19-.14.38-.13.57.17,0,.35-.02.54.16,0,0,.19.18.21.37-.16.19-.49.4-.84.41Z"/>
    <path class="st0" d="M631.34,23.12c-2.7-1-5.47-.69-8.26-.57-1.22.05-2.41.48-3.42.9-1.55.26-2.9.88-4.44,1.32-1.87.65-3.55,1.47-5.42,2.12-1.7.64-3.23,1.08-4.53,2.26q-.16.19-.33.2c-.84.41-1.71.45-2.44,2.17-.6,1.15-1.63,1.38-2.63,1.99-.16.19-.48.58-.65.59-.54-.16-1.04.05-1.36.44-1.49,1-3.19,1.64-4.5,2.64-1.16.8-1.94,1.96-2.92,2.75-.16.19-.33.2-.51.21-1.2.24-1.85.83-2.3,1.79l-.95,1.17c-.82.6-2.03.84-2.65,1.8-.3.58-.81.79-1.51.82-.52.02-1,.61-1.32,1-.33.2-.49.4-.65.59-.82.6-1.27,1.56-2.3,1.79,0,0-.16.19-.14.38l-.48.58c-.7.03-1.03.23-1.51.82-.46.77-1.48,1.19-2.29,1.98l-2.6,2.36c-.16.19-.13.57-.1.94l.71.16,1.57-.07c.64-.78,1.48-1.19,1.56-2.32-.02-.19.32-.39.32-.39.54.16.99,1.45.49,1.66-.67.4-.97.98-.72,1.91.02.19-.14.38-.32.39-.6-.91-.87.04-1.2.24-.49.4-.79.97-1.49,1-.17,0-.35.02-.33.2-1.07,1.92-3.3,2.4-3.81,4.67-.16.19-.7.03-.84.41-.17,0-.13.57-.1.94-.67.4-1.14.99-1.81,1.39-.67.4-1.35.62-1.46,1.38.02.19-.33.2-.33.2-.39-.54-.36-.17-.33.2.08.93-.26,1.14-1.13,1.17-.52.02-1.03.23-1.36.44l-2.05,2.71-1.86,2.89c-.17,0-.33.2-.51.21-.38-.36-.33.2-.49.4l-.3.58c-1.84,1.02-2.92,2.75-4.37,4.32-.32.39-.79.97-.75,1.53-.07,1.31-1.48,1.19-1.92,2.15-.16.19-.49.4-.64.78-.32.39-.45.96-.78,1.16-.82.6-1.46,1.38-1.72,2.51-.14.38-.45.96-.95,1.17-.16.19-.73-.34-.86.23-.14.38-.1.94-.43,1.14-.3.58-.42,1.33-1.11,1.36-.51.21-1.36.44-1.27,1.56.02.19-.29.76-.64.78-.33.2-.68.22-.62.96.22.55-.62.96-.05,1.5-.16.19-.33.2-.33.2-.7.03-1.65,1.2-1.78,1.77-.29.76.5,1.85-.69,2.28-.17,0-.14.38.06.75l.38.36c-.02-.19.14-.38.3-.58.48-.58.59-1.34.72-1.91-.03-.37.48-.58.81-.79l.48-.58c.17,0,.32-.39.49-.4,1.17-.61,1.26-1.74,1.88-2.71.14-.38.3-.58.46-.77,1-.61,1.65-1.2,2.27-2.16.43-1.14,1.24-1.93,2.05-2.71,1.14-.99,2.11-1.97,2.69-3.49.32-.39.45-.96.57-1.52.11-.75.68-.22,1-.61l1.91-2.33c.16-.19.49-.4.64-.78.49-.4.97-.98,1.27-1.56.17,0,.33-.2.51-.21q.51-.21.11-.75c-.19-.18-.23-.74-.23-.74.67-.4,1.51-.82,2.19-1.03.68-.22,1-.61,1.3-1.18.14-.38.48-.58.64-.78l2.44-2.17.65-.59.48-.58c.13-.57.26-1.14.57-1.52.98-.79,2.14-1.59,3.14-2.2l.49-.4c.91-1.73,2.75-2.75,4.03-4.11l2.4-2.73c.49-.4.81-.79,1.13-1.17.49-.4,1.01-.42,1.33-.81.67-.4,1.32-1,2.14-1.59l.97-.98c.32-.39.45-.96.76-1.35.67-.4,1.33-.81,1.98-1.4,1.16-.8,2.3-1.79,3.27-2.77.64-.78.62-.96-.3-1.49-.73-.34-1.2-1.82-.72-2.4.49-.4,1.33-.81,2.03-.84.52-.02.68-.22.83-.6.32-.39.46-.77,1.17-.61.71.16,1.36-.44,1.48-1.19.04-1.69,1.23-2.12,2.23-2.72.33-.2,1.08.33,1.61.49.17,0,.19.18.2.37l-1.04.05c-.81.79-1.81,1.39-2.44,2.17-.49.4-.76,1.35-1.24,1.93-.46.77-1.13,1.17-2.01,1.03-.71-.16-1.04.05-1.17.61.03.37-.3.58-.29.76.03.37-.1.94.09,1.12.19.18.73.34,1.08.33.35-.02.68-.22.84-.41l5.44-3.99c.33-.2.64-.78,1.16-.8.7-.03,1-.61,1.49-1,.81-.79,1.45-1.56,2.27-2.16.49-.4.98-.79,1.49-1,.52-.02.86-.23.98-.79.29-.76.79-.97,1.48-1.19.17,0,.35-.02.51-.21.51-.21,1-.61,1.68-.82.51-.21,1.19-.43,1.51-.82.29-.76.79-.97,1.48-1.19.51-.21.65-.59.97-.98.17,0,.16-.19.33-.2l3.22-1.27c.84-.41,1.87-.65,2.51-1.42l.16-.19c1.02,1.83,1.6.3,2.34.83.17,0,.33-.2.49-.4.33-.2.48-.58.67-.4.87-.04,1.11-1.36,1.87-.65l.16-.19c.51-.21.84-.41,1.36-.44,1.01-.42,2.04-.65,3.07-.89,1.19-.43,2.39-.67,3.61-.72.52-.02,1.25.32,1.74-.08l1.13-1.17M606.57,32.28l1.18-2.68s.16-.19.35-.02c.55.35,1.42.31,2.07-.28.32-.39.46-.77.79-.97.33-.2.48-.58,1.2-.24.54.16,1.47.87,2.34.83.16-.19.35-.02.52-.02.02.19.19.18.21.37-.51.21-1.01.42-1.6-.3-.33.2-.86.23-1,.61-.13.57-.4,1.52-.76,1.35-.49-1.66-.85-1.84-.87.04-.17,0-.33.2-.33.2-.67.4-1.35.62-1.65,1.2-.3.58-.65.59-1.16.8-.35.02-.89-.15-.83.6l-.33.2c-.2-.37-.74-.53-.77-.9-.02-.19.3-.58.64-.78ZM593.25,40.37c1.06.14,1.23.13.97-.98-.22-.55-.05-.56.32-.39.7-.03,1.58.12,1.67-1.01-.02-.19.16-.19.33-.2,1.39-.06,2.35-1.23,3.52-1.84l.3-.58c-.19-.18-.2-.37-.22-.55-.03-.37.13-.57.1-.94.36.17.55.35.73.34.19.18.35-.02.54.16.17,0,.33-.2.52-.02.73.34,1.06.14,1.35-.62.11-.75.51-.21.86-.23.68-.22,1.04-.05.76.72-.16.19.05.56-.11.75.02.19-.14.38-.14.38-.16.19-.52.02-.54-.16-.39-.54-.74-.53-1.06-.14l-1.46,1.38-.49.4c-.74-.53-.87.04-.65.59.03.37-.14.38-.49.4-.7.03-1.58-.12-1.84,1.02.02.19-.51.21-.68.22l-1.7.64-1.98,1.4c-.16.19-.52.02-.87.04-.19-.18-.05-.56-.24-.74l.52-.02ZM577.76,51.93c.51-.21.98-.79,1.3-1.18.43-1.14.61-1.15,1.68-.82.36.17.86-.23,1.36-.44.17,0,.32-.39.49-.4-.02-.19.33-.2.35-.02l.03.37-.78,1.16c-.16.19-.32.39-.49.4-.52.02-.87.04-.83.6-.16.19-.68.22-1.01.42-.17,0-.52.02-.68.22l-1.78,1.77c-.17,0-.33.2-.51.21l-.39-.54c-.09-1.12.23-1.51,1.26-1.74Z"/>
  </g>
  <path class="st0" d="M563.51,204.92c1.31,1.07,2.45,2.14,3.25,3.41.38.36.92.52,1.12.89.77.9,1.67,1.24,2.5.64q.17,0,.33-.2c-.17,0-.19-.18-.36-.17-.55-.35-.95-.89-1.17-1.45-.22-.55-.6-.91-1.45-.68l-.39-.54s-.02-.19-.2-.37c-.02-.19-.36-.17-.54-.16l.48-.58c-.02-.19.14-.38.14-.38-.17,0-.36-.17-.36-.17-.17,0-.54-.16-.54-.16-.22-.55-.09-1.12-.3-1.49-.39-.54-.98-1.27-1.33-1.25-.7.03-.89-.15-1.11-.7l-.19-.18-.32.39c-.19-.18-.76-.72-.6-.91.27-.95-.47-1.48-.88-2.21-.2-.37-.57-.54-.68.22.03.37-.11.75-.65.59-.54-.16-.51.21-.3.58l1.21,2.01c.2.37.38.36.52-.02l.32-.39c.39.54,1.28.69,1.01,1.64-.46.77.11,1.31.48,1.66Z"/>
  <path class="st0" d="M539.05,93.6c-.51.21-1,.61-1.51.82l.03.37c.19.18.54.16.71.16l.48-.58s.17,0,.19.18c.33-.2.7-.03.86-.23.79-.97,1.57-2.13,2.19-3.1.17,0,.14-.38-.03-.37-.2-.37-.22-.55.3-.58.17,0,.35-.02.51-.21.62-.96,1.24-1.93,2.46-1.98.17,0,.16-.19.14-.38.48-.58.21-1.7,1.27-1.56l-.12-1.49c.68-.22.64-.78.78-1.16.14-.38.45-.96.79-.97.7-.03,1-.61,1.32-1,.82-.6,1.63-1.38,1.53-2.69-.02-.19.14-.38.32-.39.33-.2,1.11.7.82-.6,1.23.13,1.07-1.92,2.32-1.6l.16-.19c.14-.38.1-.94.42-1.33.14-.38.64-.78.98-.79.52-.02.86-.23.81-.79-.22-.55.1-.94.61-1.15.17,0,.33-.2.49-.4l1.23-2.12c.16-.19.67-.4,1-.61.32-.39.81-.79.79-.97-.39-.54.13-.57.29-.76,1.17-.61,1.76-1.95,2.56-2.92.48-.58.64-.78,1.35-.62l.49-.4c.3-.58.43-1.14.91-1.73.14-.38.07-1.31.97-.98.17,0,.16-.19.16-.19.67-.4,1.14-.99,1.63-1.38.32-.39.81-.79.95-1.17.11-.75.46-.77.95-1.17.68-.22,1.35-.62,1.65-1.2.3-.58.6-1.15,1.32-1,.17,0,.68-.22.67-.4-.08-.93.42-1.33,1.1-1.55l.48-.58c.51-.21.83-.6,1.32-1l.49-.4c-.22-.55-.42-.92-.8-1.28,0,0-.35.02-.51.21q-.33.2-.71-.16h-.17c-.46.78-1.29,1.38-1.4,2.13-.11.75-.64.78-1.14.99l-1.95,1.77.05.56c.42.92.25.93-.61,1.15-.51.21-1,.61-1.51.82-.33.2-.81.79-1.33.81-.52.02-.49.4-.81.79-.64.78-1.07,1.92-2.26,2.35-.86.23-1.67,1.01-1.41,1.94.08.93-.29.76-.62.96-.51.21-1.36.44-1.48,1.19.02.19-.14.38-.14.38-.89-.15-1,.61-1.32,1-.33.2-.48.58-.64.78-.86.23-1.16.8-1.62,1.57-.29.76-.57,1.52-1.45,1.56-.17,0-.33.2-.49.4-.46.77-.75,1.53-1.23,2.12-.16.19-.3.58-.48.58-.86.23-1.16.8-1.45,1.56-.3.58-.43,1.14-.94,1.35-.17,0-.16.19-.14.38.05.56-.7,2.09-1.05,2.11h-.17c-1.08-.32-1.41-.12-1.49,1.01-.42,1.33-1.23,2.12-2.04,2.9-.65.59-1.14.99-1.62,1.57-1.29,1.37-2.21,2.91-2.58,4.8.02.19-.3.58-.48.58-.52.02-.67.4-.79.97-.16.19-.51.21-.67.4-.33.2-.51.21-.86.23.19.18.38.36.39.54l.05.56c-.14.38-.3.58-.46.77-.32.39-.48.58-.81.79Z"/>
  <path class="st0" d="M542.34,95.32c-.84.41-1.68.82-2.51,1.42-.16.19-.08,1.13.09,1.12,1.27.51,2.74-.68,2.79-2.19-.02-.19-.2-.37-.38-.36Z"/>
</svg>