<svg width="184" height="37" viewBox="0 0 184 37" fill="none" xmlns="http://www.w3.org/2000/svg">
<path d="M1.09375 23.1797C0.65625 23.1797 0.4375 22.9062 0.4375 22.3594C0.4375 21.9531 0.617188 21.5078 0.976562 21.0234C1.35156 20.5391 1.57812 20.2188 1.65625 20.0625C1.73438 19.9062 1.9375 19.6641 2.26562 19.3359C2.60938 19.0078 2.90625 18.8125 3.15625 18.75C3.42188 18.6875 3.95312 18.6172 4.75 18.5391C7.1875 18.3047 9.84375 18.1719 12.7188 18.1406C15.8438 13.4062 18.3906 9.89062 20.3594 7.59375C17.4375 8.125 13.8516 8.39062 9.60156 8.39062C3.83594 8.39062 0.953125 7.10156 0.953125 4.52344C0.953125 3.78906 1.32031 3.14844 2.05469 2.60156C2.80469 2.05469 3.74219 1.78125 4.86719 1.78125C6.00781 1.78125 6.57812 1.91406 6.57812 2.17969C6.57812 2.32031 6.39844 2.39062 6.03906 2.39062C5.69531 2.39062 5.36719 2.52344 5.05469 2.78906C4.75781 3.03906 4.60938 3.28125 4.60938 3.51562C4.60938 3.875 5.375 4.14062 6.90625 4.3125C8.4375 4.48438 10.7969 4.57031 13.9844 4.57031C17.1875 4.57031 20.6562 4.28125 24.3906 3.70312C25.625 2.6875 26.7812 1.92188 27.8594 1.40625C28.9531 0.890625 30.0625 0.632812 31.1875 0.632812C32.3125 0.632812 33.0469 0.882813 33.3906 1.38281C33.7344 1.88281 33.9062 2.25781 33.9062 2.50781C33.9219 2.75781 33.7422 3.08594 33.3672 3.49219C32.9922 3.89844 32.4688 4.3125 31.7969 4.73438C30.2188 5.70312 28.1484 6.28125 25.5859 6.46875C22.8516 9.92188 20.0312 13.8281 17.125 18.1875C18.3281 18.2344 19.4531 18.3281 20.5 18.4688C21.5469 18.5938 22.0703 19 22.0703 19.6875C22.0703 19.9688 21.625 20.5078 20.7344 21.3047C20.6406 21.4141 20.5234 21.5781 20.3828 21.7969C20.1328 22.1719 19.8828 22.3594 19.6328 22.3594C19.3984 22.3594 19.125 22.3281 18.8125 22.2656C17.5938 22.2188 16.6797 22.1953 16.0703 22.1953L14.5469 22.2188C9.04688 30.7812 6.20312 35.2344 6.01562 35.5781C5.84375 35.9062 5.64844 36.1562 5.42969 36.3281C5.22656 36.5 4.96875 36.5859 4.65625 36.5859C4.34375 36.5859 3.90625 36.5312 3.34375 36.4219C2.78125 36.3281 2.35938 36.2031 2.07812 36.0469C1.79688 35.9062 1.65625 35.7266 1.65625 35.5078C1.65625 35.2734 1.72656 34.9453 1.86719 34.5234C2.24219 33.4766 4.86719 29.4375 9.74219 22.4062C6.57031 22.5625 4.05469 22.7266 2.19531 22.8984L1.09375 23.1797ZM30.8594 2.01562C30.6094 2.09375 30.3047 2.21875 29.9453 2.39062L30.8594 2.01562ZM39.2266 18.1875C40.4141 18.1875 41.0078 18.5938 41.0078 19.4062C41.0078 19.8438 40.9062 20.1641 40.7031 20.3672C40.5 20.5703 40.0625 21.25 39.3906 22.4062C38.7344 23.5469 38 25.0156 37.1875 26.8125C36.3906 28.5938 35.875 30.1172 35.6406 31.3828C35.5938 31.5391 35.5703 31.7578 35.5703 32.0391C35.5703 32.8984 35.8047 33.3281 36.2734 33.3281C36.7422 33.3281 37.2969 33.1094 37.9375 32.6719C38.5781 32.2188 39.1484 31.7422 39.6484 31.2422C40.1484 30.7266 40.6328 30.2031 41.1016 29.6719C41.5859 29.1406 41.875 28.8359 41.9688 28.7578C42.0625 28.6797 42.2031 28.6406 42.3906 28.6406C42.6875 28.6406 42.8672 28.8672 42.9297 29.3203C42.9922 29.7734 43.0234 30.2422 43.0234 30.7266C43.0234 31.2109 42.9766 31.5469 42.8828 31.7344C42.4297 32.625 41.4297 33.6953 39.8828 34.9453C38.3516 36.1953 36.9531 36.8203 35.6875 36.8203C34.4375 36.8203 33.5156 36.4375 32.9219 35.6719C32.3281 34.9062 32.0312 34.0625 32.0312 33.1406C32.0312 32.2031 32.1875 31.3828 32.5 30.6797C31.2031 32.3672 29.7109 33.7969 28.0234 34.9688C26.3516 36.1406 24.9844 36.7266 23.9219 36.7266C22.8594 36.7266 21.9922 36.4062 21.3203 35.7656C20.4609 34.9688 20.0312 33.8672 20.0312 32.4609C20.0312 31.0391 20.3438 29.6172 20.9688 28.1953C21.6094 26.7578 22.4453 25.4531 23.4766 24.2812C24.5078 23.0938 25.6406 22.0156 26.875 21.0469C29.4688 19.0156 31.8594 18 34.0469 18C34.8906 18 35.5781 18.1406 36.1094 18.4219C36.6406 18.7031 36.9766 19.0547 37.1172 19.4766C37.4922 18.9141 37.8047 18.5625 38.0547 18.4219C38.3203 18.2656 38.7109 18.1875 39.2266 18.1875ZM36.1094 20.7891C33.4375 20.7891 30.6719 22.2734 27.8125 25.2422C26.7969 26.3047 25.8594 27.5781 25 29.0625C24.1562 30.5469 23.7344 31.5625 23.7344 32.1094C23.7344 32.6562 23.8906 32.9297 24.2031 32.9297C24.6406 32.9297 25.8594 32.0703 27.8594 30.3516C29.8594 28.6172 31.1875 27.3438 31.8438 26.5312C32.5625 25.625 33.9844 23.7109 36.1094 20.7891ZM53.125 32.3906C53.125 33.0781 53.5938 33.4219 54.5312 33.4219C55.0312 33.4219 55.6562 33.1719 56.4062 32.6719C57.1719 32.1719 57.8594 31.625 58.4688 31.0312C60.0938 29.4219 61.0156 28.6172 61.2344 28.6172C61.6406 28.6172 61.8438 29.2031 61.8438 30.375C61.8438 31.5469 61.4766 32.3516 60.7422 32.7891C58.5078 34.8047 56.7812 36.0312 55.5625 36.4688C54.875 36.7031 54.1172 36.8125 53.2891 36.7969C52.4609 36.7812 51.6406 36.4219 50.8281 35.7188C50.0156 35.0156 49.6094 34.1641 49.6094 33.1641C49.6094 32.1484 49.875 31 50.4062 29.7188C50.9375 28.4375 51.4766 27.3438 52.0234 26.4375C52.5859 25.5156 53.2734 24.4531 54.0859 23.25C54.8984 22.0312 55.3281 21.2734 55.375 20.9766L55.3281 20.9297C54.8125 20.9766 53.5312 21.9922 51.4844 23.9766C49.4531 25.9609 47.7734 27.6875 46.4453 29.1562C45.1172 30.625 43.5312 32.5859 41.6875 35.0391C41.1719 35.7109 40.75 36.0469 40.4219 36.0469C40.0938 36.0469 39.6562 35.9453 39.1094 35.7422C38.5469 35.5234 38.2031 35.3672 38.0781 35.2734C37.9531 35.1797 37.8906 35.0391 37.8906 34.8516C37.8906 34.6641 37.9453 34.4375 38.0547 34.1719C38.1641 33.8906 38.2734 33.6641 38.3828 33.4922C38.4766 33.3047 38.6406 33.0234 38.875 32.6484C39.1094 32.2734 39.5703 31.4844 40.2578 30.2812C40.9609 29.0625 42.0312 27.25 43.4688 24.8438C44.9062 22.4375 45.7656 20.9844 46.0469 20.4844C46.6406 19.4531 47.125 18.7031 47.5 18.2344C48.2031 17.3438 49.3906 16.8984 51.0625 16.8984C51.4375 16.8984 51.625 17.1328 51.625 17.6016C51.625 18.3359 50.9453 19.7188 49.5859 21.75L48.6016 23.2266C51.3047 20.2266 53.5859 18.3281 55.4453 17.5312C56.3516 17.1406 57.1641 16.9453 57.8828 16.9453C58.6172 16.9453 59.1953 17.1406 59.6172 17.5312C60.0547 17.9219 60.2734 18.3594 60.2734 18.8438C60.2734 19.3125 60.1094 19.8828 59.7812 20.5547C59.4531 21.2109 59.1172 21.8047 58.7734 22.3359C58.4453 22.8516 58.0078 23.5078 57.4609 24.3047C56.9141 25.1016 56.6172 25.5391 56.5703 25.6172C56.5234 25.6797 56.3984 25.8672 56.1953 26.1797C56.0078 26.4766 55.8672 26.6953 55.7734 26.8359C55.6797 26.9766 55.5234 27.2266 55.3047 27.5859C55.0859 27.9297 54.9062 28.2188 54.7656 28.4531C54.6406 28.6875 54.4766 28.9766 54.2734 29.3203C54.0859 29.6641 53.9297 29.9609 53.8047 30.2109C53.6953 30.4609 53.5781 30.7344 53.4531 31.0312C53.2344 31.5781 53.125 32.0312 53.125 32.3906ZM89.0781 0.867188C89.375 0.867188 89.6094 0.960938 89.7812 1.14844C89.9531 1.33594 90.0391 1.53125 90.0391 1.73438C90.0391 1.92188 89.8828 2.28125 89.5703 2.8125C89.2734 3.32812 88.5781 4.46875 87.4844 6.23438C86.3906 7.98438 85.5391 9.35938 84.9297 10.3594C81.3828 16.125 78.6016 21 76.5859 24.9844C74.5703 28.9688 73.5625 31.375 73.5625 32.2031V32.3906C73.5625 33.0312 73.7969 33.3516 74.2656 33.3516C74.7344 33.3516 75.2969 33.1328 75.9531 32.6953C76.625 32.2578 77.2109 31.7891 77.7109 31.2891C78.2109 30.7891 78.7109 30.2734 79.2109 29.7422C79.7266 29.1953 80.0391 28.875 80.1484 28.7812C80.2578 28.6875 80.3984 28.6406 80.5703 28.6406C80.8359 28.6406 81.0078 28.8125 81.0859 29.1562C81.1641 29.4844 81.2031 29.9531 81.2031 30.5625C81.2031 31.1562 81.1562 31.5469 81.0625 31.7344C80.6094 32.6094 79.6094 33.6797 78.0625 34.9453C76.5312 36.1953 75.0781 36.8203 73.7031 36.8203C71.3594 36.8203 70.1875 35.8281 70.1875 33.8438C70.1875 32.6094 70.6562 30.9922 71.5938 28.9922C70.3281 30.6328 69.0391 32.0312 67.7266 33.1875C65.2891 35.3125 63.1719 36.375 61.375 36.375C60.375 36.375 59.6328 36.0234 59.1484 35.3203C58.6797 34.6172 58.4453 33.6094 58.4453 32.2969C58.4453 30.9688 58.9609 29.3828 59.9922 27.5391C61.0234 25.6953 62.3047 24.0391 63.8359 22.5703C65.3828 21.0859 67.0938 19.8516 68.9688 18.8672C70.8438 17.8672 72.5703 17.3672 74.1484 17.3672C74.6484 17.3672 75.2344 17.6719 75.9062 18.2812C76.3594 17.5625 77.1953 16.125 78.4141 13.9688C82.2422 7.51562 84.7734 3.57812 86.0078 2.15625C86.6641 1.29687 87.6875 0.867188 89.0781 0.867188ZM74.4766 20.4844C72.2266 20.9844 70.1328 22.0312 68.1953 23.625C66.2578 25.2188 64.8047 26.8906 63.8359 28.6406C62.8672 30.375 62.3828 31.5 62.3828 32.0156C62.3828 32.5312 62.4922 32.7891 62.7109 32.7891C63.6484 32.7891 65.9688 30.6953 69.6719 26.5078C71.5156 24.4453 73.1172 22.4375 74.4766 20.4844ZM95.3359 18.1406C95.8047 18.1406 96.2812 18.3516 96.7656 18.7734C97.2656 19.1953 97.5156 19.8438 97.5156 20.7188C97.5156 21.5781 97.2109 22.7031 96.6016 24.0938C95.9922 25.4688 95.1562 26.875 94.0938 28.3125C93.0312 29.7344 91.8594 31.0781 90.5781 32.3438C89.3125 33.5938 87.9375 34.625 86.4531 35.4375C84.9844 36.2344 83.6484 36.6328 82.4453 36.6328C81.2422 36.6328 80.2734 36.2578 79.5391 35.5078C78.8203 34.7422 78.4609 33.6875 78.4609 32.3438C78.4609 30.9844 78.7891 29.4844 79.4453 27.8438C80.1172 26.2031 80.9766 24.7578 82.0234 23.5078C83.0703 22.2422 84.2031 21.1094 85.4219 20.1094C87.9688 18.0625 90.2031 17.0391 92.125 17.0391C92.9844 17.0391 93.6328 17.25 94.0703 17.6719C94.2266 17.8125 94.3047 17.9375 94.3047 18.0469V18.1875C94.5234 18.1562 94.8672 18.1406 95.3359 18.1406ZM92.9688 21.2578H92.8047C92.2578 21.2578 91.9844 20.8594 91.9844 20.0625C90.8438 20.4375 89.6484 21.0938 88.3984 22.0312C87.1484 22.9688 86.0312 24.0781 85.0469 25.3594C83.0469 27.9219 82.0312 30.0859 82 31.8516C82 32.7266 82.3203 33.1641 82.9609 33.1641C83.6016 33.1641 84.5547 32.7422 85.8203 31.8984C87.0859 31.0547 88.3359 29.8516 89.5703 28.2891C90.8203 26.7266 91.75 25.375 92.3594 24.2344C92.9844 23.0781 93.2969 22.2969 93.2969 21.8906C93.2969 21.4688 93.1875 21.2578 92.9688 21.2578ZM97 36.1406L95.8516 36.0938H95.4297C95.2734 36.0469 95.1094 35.9531 94.9375 35.8125C94.75 35.6719 94.6094 35.5703 94.5156 35.5078C94.4219 35.4453 94.375 35.3359 94.375 35.1797C94.375 35.0078 94.4375 34.7188 94.5625 34.3125C97.6094 27.6094 100.555 22.25 103.398 18.2344C103.711 17.7969 104.211 17.4688 104.898 17.25C105.602 17.0156 106.281 16.8984 106.938 16.8984C107.328 16.8984 107.523 17.2031 107.523 17.8125C107.523 17.9844 107.461 18.2188 107.336 18.5156C107.211 18.7969 106.898 19.2656 106.398 19.9219C105.898 20.5781 105.305 21.3281 104.617 22.1719C103.93 23.0156 103.539 23.5 103.445 23.625C105.586 21.4062 107.516 19.7578 109.234 18.6797C110.969 17.5859 112.219 17.0391 112.984 17.0391C113.766 17.0391 114.359 17.2656 114.766 17.7188C115.188 18.1562 115.398 18.6328 115.398 19.1484C115.398 19.6484 115.359 20.0703 115.281 20.4141C115.219 20.7422 115.094 21.0938 114.906 21.4688C114.719 21.8281 114.555 22.1406 114.414 22.4062C114.289 22.6562 114.07 22.9922 113.758 23.4141C113.445 23.8203 113.227 24.1016 113.102 24.2578C112.992 24.4141 112.75 24.7109 112.375 25.1484C112.016 25.5859 111.82 25.8281 111.789 25.875C112.227 25.4375 112.836 24.7891 113.617 23.9297C114.398 23.0703 115.055 22.3516 115.586 21.7734C116.133 21.1953 116.812 20.5469 117.625 19.8281C118.438 19.0938 119.195 18.5 119.898 18.0469C121.586 16.9844 123.297 16.4531 125.031 16.4531C125.625 16.4531 126.125 16.6406 126.531 17.0156C126.938 17.3906 127.141 17.8438 127.141 18.375C127.141 18.8906 126.508 20.1406 125.242 22.125C123.977 24.0938 122.711 26.0781 121.445 28.0781C120.195 30.0625 119.57 31.3125 119.57 31.8281C119.57 32.5469 119.703 32.9766 119.969 33.1172C120.234 33.2422 120.555 33.2891 120.93 33.2578C121.305 33.2266 121.828 32.9844 122.5 32.5312C123.188 32.0781 123.797 31.6094 124.328 31.125C125.188 30.3438 125.984 29.5859 126.719 28.8516C126.875 28.7109 127.047 28.6406 127.234 28.6406C127.531 28.6406 127.711 28.8672 127.773 29.3203C127.836 29.7734 127.867 30.2422 127.867 30.7266C127.867 31.2109 127.82 31.5469 127.727 31.7344C127.273 32.6094 126.273 33.6797 124.727 34.9453C123.18 36.2109 121.695 36.8438 120.273 36.8438C120.102 36.8438 119.977 36.8359 119.898 36.8203C118.289 36.6641 117.172 36.2266 116.547 35.5078C115.938 34.7734 115.633 33.9062 115.633 32.9062C115.633 31.9062 115.969 30.6953 116.641 29.2734C117.328 27.8516 118.078 26.5625 118.891 25.4062C119.703 24.25 120.445 23.2109 121.117 22.2891C121.805 21.3516 122.148 20.8438 122.148 20.7656C122.148 20.6875 122.086 20.6484 121.961 20.6484C121.477 20.6484 120.398 21.4297 118.727 22.9922C115.867 25.6641 113.398 28.2422 111.32 30.7266C110.773 31.3828 109.477 33.0469 107.43 35.7188C107.195 36.0312 106.82 36.1875 106.305 36.1875C105.805 36.1875 105.281 36.0938 104.734 35.9062C104.188 35.7031 103.914 35.4453 103.914 35.1328C103.914 34.9766 105.156 32.7891 107.641 28.5703C110.125 24.3359 111.367 22.0312 111.367 21.6562C111.367 21.2656 111.133 21.0703 110.664 21.0703C110.211 21.0703 109.266 21.7578 107.828 23.1328C103.875 26.9141 100.812 30.6719 98.6406 34.4062C98.5 34.625 98.2266 34.9688 97.8203 35.4375C97.4141 35.9062 97.1406 36.1406 97 36.1406ZM129.766 26.6484H129.648C129.336 26.6797 129.023 26.5938 128.711 26.3906C128.414 26.1875 128.266 25.9375 128.266 25.6406C128.266 25.3438 128.344 25.0781 128.5 24.8438C128.672 24.6094 128.781 24.3672 128.828 24.1172C128.891 23.8672 129.172 23.5078 129.672 23.0391C130.188 22.5703 130.617 22.3203 130.961 22.2891C131.32 22.2422 131.945 22.1875 132.836 22.125C133.727 22.0625 134.617 22 135.508 21.9375C136.398 21.8594 137.258 21.8203 138.086 21.8203C138.914 21.8203 139.391 21.8672 139.516 21.9609C139.656 22.0391 139.805 22.25 139.961 22.5938C140.133 22.9219 140.289 23.1641 140.43 23.3203C140.57 23.4766 140.641 23.7344 140.641 24.0938C140.641 24.4375 140.5 24.7422 140.219 25.0078C139.938 25.2578 139.617 25.4141 139.258 25.4766C138.914 25.5234 138.523 25.5781 138.086 25.6406C137.648 25.6875 137.156 25.7422 136.609 25.8047C136.078 25.8516 135.57 25.9062 135.086 25.9688C134.602 26.0312 134.047 26.125 133.422 26.25C132.219 26.4844 131 26.6172 129.766 26.6484ZM180.156 2.0625L181 2.29688C182.984 2.59375 183.977 3.1875 183.977 4.07812C183.977 4.32812 183.883 4.53906 183.695 4.71094C181.586 6.60156 178.781 8.64062 175.281 10.8281C169.938 14.1562 163.875 17.375 157.094 20.4844C159.312 21.75 162.32 23.8516 166.117 26.7891C171.211 30.5547 174.344 32.4375 175.516 32.4375C175.922 32.4375 176.266 32.3281 176.547 32.1094C176.844 31.875 177.008 31.7578 177.039 31.7578C177.305 31.7578 177.438 31.8828 177.438 32.1328C177.438 32.3516 177.172 32.9766 176.641 34.0078C176.125 35.0391 175.68 35.7188 175.305 36.0469C174.945 36.375 174.367 36.5391 173.57 36.5391C172.773 36.5391 171.711 36.1484 170.383 35.3672C169.055 34.5859 167.602 33.6094 166.023 32.4375C164.461 31.25 162.898 30.0469 161.336 28.8281C157.383 25.7812 154.719 23.9766 153.344 23.4141C148.531 31.0078 146.055 34.9375 145.914 35.2031C145.789 35.4688 145.617 35.6875 145.398 35.8594C145.195 36.0156 145.062 36.0938 145 36.0938L143.992 36.2344L143.172 36.1875C142.953 36.1875 142.797 36.2188 142.703 36.2812C142.609 36.3594 142.508 36.4141 142.398 36.4453C142.289 36.4766 142.195 36.5234 142.117 36.5859C142.039 36.6641 141.914 36.7031 141.742 36.7031C141.586 36.7031 141.359 36.5703 141.062 36.3047C140.781 36.0547 140.641 35.8359 140.641 35.6484C140.641 35.4609 140.75 35.1328 140.969 34.6641C141.203 34.1953 144.086 29.8438 149.617 21.6094H149.172C148.125 21.6094 147.602 21.3281 147.602 20.7656C147.602 20.1875 147.859 19.6172 148.375 19.0547C148.906 18.4766 149.438 18.1875 149.969 18.1875C150.5 18.1875 151.086 18.2344 151.727 18.3281C154.68 13.9688 156.953 10.5469 158.547 8.0625C156.734 9.76562 155.016 10.6172 153.391 10.6172C152.609 10.6172 151.992 10.3516 151.539 9.82031C151.086 9.27344 150.859 8.65625 150.859 7.96875C150.859 7.28125 151.031 6.71875 151.375 6.28125C151.734 5.84375 152.078 5.53906 152.406 5.36719C152.734 5.19531 152.961 5.10938 153.086 5.10938C153.211 5.10938 153.273 5.17188 153.273 5.29688L153.086 5.85938C153.086 6.07812 153.422 6.1875 154.094 6.1875C154.766 6.1875 155.703 5.82031 156.906 5.08594C158.109 4.33594 159.289 3.59375 160.445 2.85938C161.602 2.10938 162.469 1.73438 163.047 1.73438C163.625 1.73438 164 1.80469 164.172 1.94531C164.359 2.07031 164.523 2.15625 164.664 2.20312C164.82 2.23437 164.945 2.28906 165.039 2.36719C165.133 2.44531 165.211 2.54688 165.273 2.67188C165.336 2.78125 165.453 2.90625 165.625 3.04688C165.797 3.1875 165.883 3.375 165.883 3.60938C165.883 3.84375 165.82 4.0625 165.695 4.26562C163.711 7.26562 161.273 11.0469 158.383 15.6094C162.258 13.5938 166.688 11.0156 171.672 7.875C176.656 4.71875 179.352 2.85938 179.758 2.29688C179.852 2.14062 179.984 2.0625 180.156 2.0625Z" fill="white"/>
</svg>
