<svg width="218" height="85" viewBox="0 0 218 85" fill="none" xmlns="http://www.w3.org/2000/svg">
<path d="M203.975 50.4106L205.206 50.3945L204.694 49.6318L197.392 38.7456L215.274 27.5298L216.527 26.744L215.296 26.7601L208.807 26.845L208.6 26.8478L208.39 26.982L193.862 36.2786L190.851 36.318L190.351 36.3245L190.135 36.7755L188.145 40.9318L187.93 41.3828L188.429 41.3762L191.44 41.3368L197.195 50.3678L197.278 50.4983L197.486 50.4955L203.975 50.4106ZM182.151 50.6963L182.651 50.6897L182.866 50.2388L193.756 27.4902L193.972 27.0392L193.472 27.0458L188.899 27.1056L188.4 27.1122L188.184 27.5632L177.294 50.3117L177.078 50.7627L177.578 50.7561L182.151 50.6963Z" fill="white" stroke="black"/>
<path d="M177.405 41.3007L177.905 41.2941L178.121 40.8431L179.898 37.131L180.114 36.68L179.614 36.6866L163.118 36.9025L162.618 36.9091L162.402 37.3601L160.625 41.0722L160.41 41.5232L160.91 41.5166L177.405 41.3007Z" fill="white" stroke="black"/>
<path d="M141.248 51.2188L140.748 51.2253L136.175 51.2852L135.675 51.2917L135.891 50.8407L141.336 39.4665C141.557 39.0041 141.553 38.7344 141.444 38.574L141.44 38.5682L141.44 38.5682C141.331 38.3982 141.07 38.2788 140.529 38.2857C140.529 38.2857 140.528 38.2857 140.528 38.2857L136.285 38.3553L130.266 50.9301L130.05 51.3811L129.55 51.3876L124.978 51.4475L124.478 51.454L124.694 51.003L131.923 35.9008C132.086 35.5594 132.312 35.2334 132.603 34.9282C132.891 34.6205 133.22 34.3502 133.589 34.1231C133.956 33.889 134.342 33.7058 134.741 33.5743C135.147 33.4403 135.542 33.3718 135.922 33.3667L135.921 33.3667L135.706 33.8177L135.922 33.3667L141.248 51.2188ZM141.248 51.2188L141.464 50.7678L146.908 39.3935C147.107 38.978 147.263 38.5793 147.374 38.1979M141.248 51.2188L147.374 38.1979M147.374 38.1979L152.068 38.1504L152.069 38.1504C152.614 38.1432 152.851 38.2641 152.938 38.4209L152.942 38.4272L152.946 38.4333C153.048 38.593 153.048 38.8649 152.824 39.3318L147.38 50.7061L147.164 51.157L147.664 51.1505L152.236 51.0906L152.736 51.0841L152.952 50.6331L158.397 39.2589C158.754 38.5127 158.976 37.8319 159.051 37.2217C159.125 36.6277 159.096 36.0984 158.958 35.6388C158.827 35.1744 158.602 34.7802 158.281 34.4598C157.974 34.1385 157.611 33.8776 157.19 33.6787C156.788 33.4825 156.35 33.3414 155.876 33.2567C155.415 33.1629 154.948 33.1177 154.476 33.1238L154.477 33.1238L154.26 33.5748L154.476 33.1238L147.374 38.1979Z" fill="white" stroke="black"/>
<path d="M123.257 47.3075L123.259 47.3051C123.774 46.6802 124.207 45.9923 124.564 45.246L127.237 39.662C127.542 39.0269 127.736 38.3545 127.831 37.6476C127.94 36.9183 127.869 36.2496 127.621 35.6432C127.373 35.0119 126.901 34.501 126.22 34.1061C125.513 33.6967 124.53 33.511 123.299 33.5272L115.051 33.6351C114.36 33.6442 113.567 33.7634 112.68 33.9842C111.76 34.2133 110.833 34.5845 109.901 35.0931C108.968 35.6009 108.083 36.257 107.245 37.0501L107.245 37.0501L107.243 37.0522C106.386 37.8682 105.701 38.8407 105.169 39.9508L102.496 45.5349C101.96 46.655 101.713 47.6313 101.788 48.4448L101.788 48.4448L101.788 48.4516C101.878 49.2213 102.143 49.8598 102.59 50.3581L102.59 50.3582L102.595 50.3637C103.054 50.8426 103.637 51.1876 104.346 51.3947C105.031 51.5949 105.719 51.6948 106.41 51.6858L114.658 51.5778C115.128 51.5716 115.639 51.5194 116.19 51.4233L116.19 51.4234L116.2 51.4215C116.776 51.3128 117.362 51.1535 117.959 50.9442C118.574 50.7325 119.189 50.465 119.804 50.1427L119.804 50.1428L119.813 50.138C120.447 49.7966 121.053 49.3935 121.627 48.9308L121.627 48.9308L121.633 48.9264C122.218 48.4482 122.759 47.9072 123.257 47.3075ZM111.493 38.977L111.493 38.9771L111.502 38.971C111.779 38.7944 112.154 38.6681 112.68 38.6612L120.893 38.5537C121.409 38.5469 121.667 38.6606 121.78 38.8266C121.887 38.9826 121.891 39.2636 121.65 39.7666L118.992 45.3189C118.769 45.7845 118.503 46.0702 118.232 46.2476C117.976 46.4159 117.607 46.5441 117.064 46.5512L108.851 46.6588C108.325 46.6656 108.067 46.5476 107.957 46.3761C107.847 46.203 107.848 45.9231 108.069 45.4619L110.742 39.8779C110.963 39.4155 111.227 39.1423 111.493 38.977Z" fill="white" stroke="black"/>
<path d="M98.2045 47.6353L98.2064 47.633C98.7213 47.008 99.1548 46.3201 99.5121 45.5738L108.42 26.9657L108.635 26.5147L108.136 26.5213L103.563 26.5811L103.063 26.5877L102.847 27.0387L93.9398 45.6467C93.7169 46.1123 93.4504 46.398 93.1798 46.5754C92.9232 46.7437 92.5545 46.872 92.0118 46.8791L83.7639 46.987C83.2556 46.9937 83.001 46.8785 82.8894 46.7071C82.79 46.5371 82.7972 46.2475 83.0316 45.758L85.6894 40.2057C85.9107 39.7433 86.1749 39.4701 86.4403 39.3049L86.4403 39.3049L86.4498 39.2988C86.7261 39.1222 87.1012 38.9959 87.6274 38.989L95.8401 38.8815L96.3401 38.875L96.5559 38.424L98.5303 34.2994L98.7462 33.8484L98.2463 33.855L89.9984 33.963C89.3073 33.972 88.5146 34.0912 87.6278 34.312C86.7078 34.5411 85.7802 34.9124 84.8488 35.4209C83.9159 35.9287 83.0303 36.5848 82.1924 37.3779L82.1924 37.3779L82.1901 37.3801C81.334 38.1961 80.6485 39.1686 80.1171 40.2787L77.4441 45.8627C77.246 46.2764 77.0858 46.7168 76.9609 47.1825L76.9607 47.1825L76.9578 47.1948C76.8485 47.6578 76.7963 48.1175 76.8 48.5736L76.8 48.5736L76.8 48.5773C76.8092 49.03 76.8897 49.4624 77.0398 49.8746L77.0398 49.8746L77.0421 49.8805C77.2083 50.3017 77.4661 50.6738 77.8128 50.9973L77.8126 50.9974L77.8208 51.0044C78.191 51.321 78.664 51.5691 79.2341 51.752C79.8196 51.9397 80.5306 52.0244 81.3577 52.0136L89.6056 51.9056C90.0753 51.8995 90.5867 51.8473 91.1378 51.7511L91.1378 51.7512L91.1476 51.7494C91.7234 51.6406 92.3101 51.4813 92.907 51.272C93.522 51.0603 94.1371 50.7928 94.7516 50.4705L94.7516 50.4706L94.7606 50.4658C95.3951 50.1244 96.0002 49.7213 96.5749 49.2586L96.5749 49.2586L96.5802 49.2542C97.1655 48.776 97.7064 48.235 98.2045 47.6353Z" fill="white" stroke="black"/>
<path d="M71.1667 52.152L71.6667 52.1454L71.8826 51.6944L76.4389 42.1762C76.9021 41.2085 77.1904 40.3281 77.2935 39.5399C77.395 38.7648 77.3539 38.0765 77.1641 37.4797C76.9934 36.8804 76.7015 36.3723 76.286 35.9594C75.8964 35.5451 75.4314 35.2073 74.8909 34.9473C74.3694 34.6778 73.7962 34.485 73.171 34.3705C72.5675 34.2576 71.9601 34.2041 71.3485 34.2121L61.0431 34.347C60.6631 34.3519 60.268 34.4205 59.8614 34.5546C59.4624 34.6861 59.077 34.8692 58.7095 35.1033C58.3413 35.3305 58.0121 35.6007 57.7239 35.9084C57.4331 36.2137 57.2073 36.5397 57.0439 36.8811L49.8146 51.9833L49.5987 52.4343L50.0987 52.4278L54.671 52.3679L55.171 52.3614L55.3869 51.9104L61.4055 39.3373L68.9072 39.2391C69.4004 39.2326 69.8106 39.3023 70.1454 39.443L70.1512 39.4454L70.157 39.4477C70.5092 39.5802 70.7691 39.7754 70.9433 40.0323C71.1178 40.2895 71.2037 40.604 71.1965 40.9819L71.1964 40.9881L71.1965 40.9942C71.2037 41.348 71.0992 41.7633 70.8666 42.2492L66.3103 51.7674L66.0944 52.2184L66.5944 52.2118L71.1667 52.152Z" fill="white" stroke="black"/>
<path d="M43.3502 51.8936C44.4056 51.4767 45.3572 50.9588 46.1943 50.3349C47.0277 49.7156 47.7391 49.0474 48.3226 48.3314L48.3241 48.3295C48.8929 47.6268 49.3318 46.9621 49.6304 46.3385L52.4021 40.5483C52.9238 39.4585 53.1588 38.5073 53.0726 37.7141C52.9949 36.9429 52.7309 36.3117 52.2698 35.8324C51.8351 35.3526 51.2693 35.007 50.5726 34.7994C49.909 34.5981 49.232 34.498 48.5408 34.5071L38.4992 34.6385L37.9992 34.6451L37.7833 35.096L35.9077 39.0144L35.6918 39.4654L36.1917 39.4588L46.2334 39.3274C46.6823 39.3215 46.9569 39.4397 47.1079 39.6627L47.1078 39.6628L47.1113 39.6676C47.2647 39.8822 47.2675 40.1814 47.0584 40.6182L44.3019 46.3768C44.106 46.7859 43.8238 47.0987 43.4588 47.348C43.1278 47.5741 42.73 47.7148 42.2152 47.7215L34.0025 47.829C33.5765 47.8346 33.2774 47.726 33.0809 47.5066C32.9224 47.3033 32.9139 47.0157 33.1195 46.5862C33.3153 46.177 33.5976 45.8642 33.9625 45.615L33.9625 45.615L33.97 45.6098C34.3065 45.3752 34.7038 45.2323 35.2138 45.2256L43.4616 45.1176L43.9616 45.1111L44.1775 44.6601L46.0607 40.7259L46.2766 40.2749L45.7767 40.2814L37.5288 40.3894C36.3197 40.4052 35.1613 40.6195 34.0628 41.0531L34.0628 41.0531L34.0595 41.0544C33.0139 41.472 32.0614 41.9953 31.2105 42.6274L31.2094 42.6283C30.3899 43.239 29.6844 43.9081 29.0972 44.6335C28.5284 45.3362 28.0895 46.0008 27.791 46.6244C27.2689 47.7151 27.0321 48.6707 27.1128 49.4732L27.1127 49.4732L27.113 49.4756C27.1959 50.2357 27.4538 50.8649 27.8955 51.3536L27.8954 51.3536L27.9008 51.3592C28.3513 51.8263 28.9181 52.1657 29.602 52.3733L29.6038 52.3739C30.2784 52.5747 30.961 52.6747 31.6523 52.6657L39.9001 52.5577C41.1083 52.5419 42.2617 52.328 43.3502 51.8936ZM43.3502 51.8936C43.3496 51.8938 43.3491 51.894 43.3485 51.8942L43.3087 51.4974L43.3518 51.8929C43.3513 51.8931 43.3507 51.8933 43.3502 51.8936Z" fill="white" stroke="black"/>
<path d="M27.0923 43.4917L27.5922 43.4851L27.8081 43.0342L29.7977 38.8779L30.0136 38.4269L29.5136 38.4334L15.0579 38.6227L14.5579 38.6292L14.342 39.0802L12.3525 43.2365L12.1366 43.6875L12.6365 43.6809L27.0923 43.4917ZM33.5974 34.1371L34.0973 34.1306L34.3132 33.6796L36.2876 29.555L36.5035 29.1041L36.0035 29.1106L15.4103 29.3802C15.0211 29.3853 14.6202 29.4531 14.211 29.588C13.8094 29.7204 13.4216 29.9051 13.0519 30.1414L13.0446 30.146L13.0375 30.1507C12.6835 30.3859 12.3642 30.6572 12.0805 30.9607C11.7881 31.2735 11.56 31.6033 11.3959 31.946L1.50117 52.6164L1.28528 53.0674L1.78524 53.0608L6.35761 53.001L6.85757 52.9944L7.07345 52.5434L15.7727 34.3705L33.5974 34.1371Z" fill="white" stroke="black"/>
<path d="M121.741 4.11975C93.3224 7.44349 65.4368 21.1489 55.1219 28.3845C64.9511 21.902 86.4236 13.6939 87.6571 13.2413C88.8905 12.7887 108.038 4.97313 131.887 4.11973C153.748 3.33745 163.733 8.33737 165.969 9.14222C167.608 9.73244 173.507 12.7469 175.083 14.5947C174.046 12.8815 170.797 10.6795 167.789 9.24734L167.752 9.22966C164.122 7.50167 150.061 0.807559 121.741 4.11975Z" fill="white" stroke="black" stroke-width="0.5" stroke-miterlimit="2.3662"/>
<path d="M95.8882 78.6237C123.898 74.3852 151.025 59.7906 160.986 52.2279C151.48 59.0225 130.511 67.9171 129.306 68.4092C128.101 68.9013 109.42 77.3287 85.8486 78.9513C64.2419 80.4387 54.19 75.7651 51.9501 75.0331C50.3075 74.4963 44.3992 71.827 42.7448 69.8792C44.1924 71.5835 47.4692 73.559 50.1457 74.9868C53.6075 76.8336 67.88 82.862 95.8882 78.6237Z" fill="white" stroke="black" stroke-width="0.5" stroke-miterlimit="2.3662"/>
<path d="M75.7688 18.8283C74.864 18.6237 73.897 18.6003 72.8661 18.8111C74.5765 17.4742 75.502 15.98 75.6974 13.9838C75.8898 12.0198 75.371 9.59326 74.2706 6.38664C74.4993 6.78048 74.7344 7.1826 74.98 7.58836C75.7142 8.80153 76.5289 10.0223 77.5035 11.0509C78.4795 12.0809 79.6219 12.925 81.0129 13.3756C82.0485 13.7111 83.2112 13.825 84.5307 13.645C83.1329 14.6526 82.2404 15.952 81.9457 17.7629C81.6438 19.6185 81.9744 21.9881 82.9789 25.0979C82.0079 23.5972 80.8197 21.9858 79.3844 20.7536C78.3272 19.8461 77.1263 19.1353 75.7688 18.8283Z" fill="white" stroke="black" stroke-width="0.5" stroke-miterlimit="1" stroke-linecap="round"/>
<path d="M65.8777 13.2953C65.6083 13.2004 65.3246 13.1504 65.0267 13.1529C65.1897 12.9937 65.3342 12.8258 65.4602 12.6468C65.7813 12.1903 65.9733 11.6731 66.0525 11.0628C66.1414 10.3787 66.0886 9.57274 65.9181 8.59467C66.1148 8.99581 66.3323 9.38781 66.581 9.74252C66.9614 10.2851 67.4241 10.7539 68.0123 11.0324C68.3507 11.1927 68.7233 11.2865 69.1346 11.2995C68.669 11.7399 68.3554 12.3092 68.2147 13.0696C68.0837 13.7777 68.1037 14.646 68.2768 15.7236C68.012 15.2502 67.711 14.7875 67.3686 14.3898C66.9507 13.9044 66.4582 13.4997 65.8777 13.2953Z" fill="white" stroke="black" stroke-width="0.5" stroke-miterlimit="1" stroke-linecap="round"/>
<path d="M137.788 68.8749C138.344 66.6014 139.977 64.8452 142.913 62.7283C139.398 63.4328 137.111 63.4922 135.185 62.5151C134.118 61.9738 133.18 61.124 132.209 59.931C131.477 59.0316 130.72 57.9299 129.873 56.6067C129.93 56.8246 129.986 57.0376 130.041 57.2459C130.387 58.5588 130.683 59.6841 130.892 60.6658C131.209 62.1573 131.334 63.3594 131.114 64.435C130.721 66.3595 129.242 67.7963 126.118 69.7909C129.683 69.0469 131.87 69.1723 133.695 70.4452C134.715 71.1565 135.603 72.2136 136.557 73.6243C137.235 74.6267 137.954 75.82 138.78 77.2103C137.703 73.5544 137.266 71.007 137.788 68.8749Z" fill="white" stroke="black" stroke-width="0.5" stroke-miterlimit="1" stroke-linecap="round"/>
</svg>
