<svg width="222" height="85" viewBox="0 0 222 85" fill="none" xmlns="http://www.w3.org/2000/svg">
<path d="M204.759 50.8616L207.221 50.8294L206.197 49.304L199.109 38.7362L216.468 27.8485L218.974 26.2769L216.512 26.3091L210.023 26.3941L209.608 26.3995L209.188 26.668L194.87 35.8303L192.067 35.867L191.238 35.8778L195.256 27.4837L195.688 26.5817L194.688 26.5948L190.115 26.6547L189.115 26.6677L188.684 27.5697L177.794 50.3182L177.362 51.2202L178.362 51.2071L182.935 51.1473L183.935 51.1342L184.366 50.2322L188.385 41.8381L189.214 41.8272L192.017 41.7905L197.689 50.6911L197.855 50.952L198.27 50.9465L204.759 50.8616Z" fill="white" stroke="black" stroke-width="2"/>
<path d="M178.189 41.7517L179.189 41.7386L179.621 40.8366L181.398 37.1245L181.83 36.2225L180.83 36.2356L164.334 36.4515L163.334 36.4646L162.902 37.3666L161.125 41.0787L160.694 41.9807L161.694 41.9676L178.189 41.7517Z" fill="white" stroke="black" stroke-width="2"/>
<path d="M142.532 51.6632L141.532 51.6763L136.959 51.7362L135.96 51.7493L136.391 50.8473L141.836 39.473C142.021 39.0876 141.975 38.9533 141.941 38.9034L141.937 38.8976L141.934 38.8917C141.896 38.833 141.774 38.7309 141.314 38.7367C141.313 38.7367 141.313 38.7367 141.312 38.7367L137.57 38.7981L131.766 50.9235L131.334 51.8255L130.334 51.8386L125.762 51.8985L124.762 51.9116L125.194 51.0096L132.423 35.9074C132.613 35.51 132.88 35.1232 133.228 34.7576C133.565 34.3974 133.956 34.0759 134.395 33.8042C134.828 33.5291 135.282 33.3141 135.748 33.1605C136.228 33.002 136.694 32.9217 137.137 32.9157L137.136 32.9157L136.706 33.8177L137.138 32.9157L142.532 51.6632ZM142.532 51.6632L142.963 50.7612L148.408 39.387C148.529 39.1341 148.636 38.8861 148.727 38.6432M142.532 51.6632L148.727 38.6432M148.727 38.6432L152.85 38.6014L152.853 38.6014C153.321 38.5952 153.407 38.7003 153.425 38.7322L153.432 38.7447L153.44 38.7568C153.471 38.8052 153.513 38.9439 153.325 39.3383L147.88 50.7126L147.448 51.6146L148.448 51.6015L153.02 51.5416L154.02 51.5285L154.452 50.6266L159.897 39.2523C160.272 38.4686 160.511 37.7402 160.593 37.0777C160.671 36.4476 160.642 35.8775 160.492 35.3769C160.351 34.8775 160.108 34.4488 159.757 34.0985C159.43 33.757 159.042 33.4776 158.591 33.2639C158.163 33.0558 157.696 32.9049 157.189 32.8137C156.702 32.715 156.203 32.6662 155.693 32.6728C155.692 32.6728 155.692 32.6728 155.691 32.6728L148.727 38.6432Z" fill="white" stroke="black" stroke-width="2"/>
<path d="M124.667 47.439L124.671 47.4343C125.228 46.7581 125.689 46.0235 126.064 45.2394L128.737 39.6554C129.067 38.9669 129.273 38.2498 129.372 37.5098C129.489 36.7253 129.412 36.0071 129.148 35.3587C128.877 34.6712 128.365 34.1219 127.64 33.702C126.866 33.2533 125.804 33.0593 124.515 33.0762L116.267 33.1841C115.518 33.1939 114.672 33.3229 113.745 33.5537C112.751 33.8011 111.753 34.2013 110.758 34.7447C109.743 35.2973 108.791 36.0049 107.904 36.8451L107.904 36.8451L107.899 36.8494C106.958 37.7462 106.226 38.7947 105.67 39.9574L102.997 45.5414C102.435 46.7136 102.162 47.7647 102.244 48.6569L102.245 48.6637L102.246 48.6705C102.341 49.4858 102.622 50.1723 103.107 50.7119L103.112 50.7175L103.117 50.723C103.607 51.2345 104.233 51.6058 104.997 51.8289C105.713 52.0383 106.445 52.1466 107.194 52.1367L115.442 52.0288C115.948 52.0222 116.493 51.966 117.074 51.8647L117.084 51.863L117.094 51.8611C117.707 51.7453 118.331 51.5757 118.965 51.3537C119.623 51.127 120.28 50.8411 120.934 50.4984L120.943 50.4937L120.951 50.4889C121.64 50.1185 122.294 49.6821 122.913 49.184L122.913 49.184L122.924 49.1754C123.558 48.6567 124.138 48.0754 124.667 47.439ZM112.684 39.2974L112.694 39.2914L112.703 39.2853C112.802 39.2218 113.021 39.118 113.464 39.1122L121.677 39.0047C122.111 38.999 122.236 39.0949 122.278 39.156C122.306 39.1972 122.358 39.3381 122.15 39.7732L119.492 45.3255C119.305 45.7173 119.121 45.8742 119.022 45.9395C118.95 45.9865 118.744 46.0942 118.28 46.1003L110.067 46.2078C109.625 46.2136 109.503 46.1142 109.464 46.0526C109.422 45.9879 109.385 45.8384 109.569 45.4554L112.242 39.8714C112.426 39.4859 112.601 39.3488 112.684 39.2974Z" fill="white" stroke="black" stroke-width="2"/>
<path d="M99.6146 47.7668L99.6184 47.7621C100.176 47.086 100.637 46.3513 101.012 45.5673L109.92 26.9592L110.351 26.0572L109.351 26.0703L104.779 26.1301L103.779 26.1432L103.347 27.0452L100.309 33.3929L99.4621 33.404L91.2143 33.512C90.4652 33.5218 89.6196 33.6507 88.6924 33.8816C87.6991 34.1289 86.7009 34.5291 85.7056 35.0725C84.6906 35.6251 83.739 36.3327 82.8513 37.1729L82.8512 37.1729L82.8467 37.1773C81.9059 38.074 81.1737 39.1226 80.6171 40.2852L77.9441 45.8692C77.7303 46.316 77.5604 46.7849 77.4294 47.2733L77.4261 47.2856L77.4232 47.2978C77.3066 47.7917 77.2515 48.2795 77.2554 48.7608L77.2554 48.7609L77.2555 48.7684C77.2654 49.2534 77.3516 49.7146 77.5109 50.1519L77.5131 50.158L77.5154 50.1639C77.6952 50.6193 77.9733 51.0199 78.3445 51.3662L78.3524 51.3735L78.3606 51.3805C78.762 51.7238 79.2709 51.9894 79.8759 52.1834C80.5115 52.3872 81.2731 52.4759 82.1419 52.4646L90.3897 52.3566C90.8954 52.35 91.4407 52.2939 92.0217 52.1925L92.0314 52.1908L92.0413 52.189C92.6547 52.0731 93.2789 51.9035 93.9126 51.6815C94.5709 51.4548 95.2276 51.1689 95.8812 50.8262L95.8901 50.8215L95.8991 50.8167C96.5875 50.4463 97.242 50.0099 97.8607 49.5118L97.8607 49.5119L97.8714 49.5032C98.506 48.9846 99.0861 48.4032 99.6146 47.7668ZM96.6242 39.3325L97.4708 39.3214L94.4398 45.6533C94.2523 46.0451 94.0691 46.202 93.9694 46.2673C93.8977 46.3143 93.6917 46.422 93.2276 46.4281L84.9798 46.536C84.5683 46.5414 84.4428 46.4512 84.3978 46.3867C84.3644 46.3244 84.3349 46.1622 84.5315 45.7515L87.1893 40.1992C87.3739 39.8137 87.549 39.6766 87.6315 39.6252L87.6412 39.6192L87.6507 39.6131C87.75 39.5496 87.9687 39.4458 88.4115 39.44L96.6242 39.3325Z" fill="white" stroke="black" stroke-width="2"/>
<path d="M71.9509 52.603L72.9508 52.5899L73.3825 51.6879L77.9388 42.1697C78.4198 41.165 78.7253 40.2378 78.8352 39.3984C78.9416 38.5852 78.8999 37.8542 78.6974 37.2155C78.5164 36.5821 78.2065 36.0407 77.7627 35.5986C77.3537 35.1646 76.8648 34.809 76.2954 34.5345C75.7473 34.2517 75.1427 34.0483 74.4815 33.9271C73.852 33.8094 73.2131 33.7526 72.5644 33.7611L62.259 33.896C61.8156 33.9018 61.3497 33.9821 60.8684 34.1408C60.4024 34.2944 59.9487 34.5094 59.5157 34.7845C59.0766 35.0562 58.6862 35.3777 58.3484 35.7379C58.0006 36.1035 57.7341 36.4903 57.5439 36.8876L50.3146 51.9899L49.8829 52.8918L50.8828 52.8787L55.4551 52.8189L56.4551 52.8058L56.8868 51.9038L62.6896 39.7817L69.6913 39.6901C70.1267 39.6844 70.4776 39.7458 70.7593 39.8642L70.7708 39.869L70.7825 39.8734C71.082 39.9862 71.297 40.1493 71.4406 40.3611C71.5846 40.5734 71.6582 40.8358 71.652 41.1607L71.6517 41.1731L71.652 41.1852C71.6578 41.4726 71.5736 41.8233 71.3666 42.2557L66.8103 51.7739L66.3786 52.6759L67.3785 52.6628L71.9509 52.603Z" fill="white" stroke="black" stroke-width="2"/>
<path d="M49.7373 48.4573L49.7404 48.4534C50.3364 47.7172 50.8067 47.0081 51.1303 46.332L53.9021 40.5417C54.4493 39.3986 54.71 38.3714 54.6156 37.4987C54.533 36.6802 54.2515 35.998 53.7499 35.4752C53.2842 34.9622 52.6756 34.5899 51.9246 34.366C51.228 34.1548 50.506 34.0463 49.7567 34.0561L39.715 34.1875L38.7151 34.2006L38.2834 35.1026L36.4077 39.0209L35.9759 39.9229L36.9758 39.9098L47.0175 39.7784C47.1728 39.7763 47.291 39.7933 47.3821 39.8253L46.9925 39.8304L38.7447 39.9384C37.4755 39.955 36.2286 40.1803 35.0229 40.6563L35.0229 40.6563L35.0164 40.6589C33.9047 41.1029 32.878 41.665 31.9539 42.3516L31.9517 42.3533C31.0734 43.0079 30.3136 43.7279 29.6809 44.5095C29.0849 45.2457 28.6147 45.9549 28.291 46.631C27.743 47.7759 27.4811 48.8067 27.5696 49.6877L27.5696 49.6877L27.5701 49.6924C27.6581 50.499 27.9331 51.1772 28.4128 51.7079L28.418 51.7136L28.4234 51.7192C28.9041 52.2175 29.5121 52.5827 30.2491 52.8064L30.2528 52.8075C30.9595 53.018 31.6869 53.1265 32.4364 53.1166L40.6842 53.0087C41.9515 52.9921 43.194 52.7675 44.3914 52.2898C45.5106 51.8477 46.5377 51.2912 47.451 50.6107C48.3406 49.9496 49.1068 49.231 49.7373 48.4573ZM44.2457 45.5686L45.1979 45.5561L44.8019 46.3833C44.6532 46.694 44.4612 46.8944 44.2334 47.05C44.0732 47.1594 43.8394 47.2652 43.4311 47.2705L35.2184 47.378C34.9065 47.3821 34.7059 47.307 34.5699 47.1592C34.4913 47.0538 34.4676 46.8967 34.6194 46.5797C34.7681 46.269 34.9602 46.0686 35.188 45.913L35.1956 45.9078L35.2031 45.9026C35.3689 45.7869 35.5993 45.6818 35.9979 45.6766L44.2457 45.5686Z" fill="white" stroke="black" stroke-width="2"/>
<path d="M27.8764 43.9427L28.8763 43.9296L29.3081 43.0276L31.2976 38.8713L31.7294 37.9693L30.7295 37.9824L16.2738 38.1717L15.4447 38.1825L17.0568 34.8149L34.3815 34.5881L35.3814 34.575L35.8132 33.6731L37.7876 29.5485L38.2193 28.6465L37.2194 28.6596L16.6262 28.9292C16.1761 28.9351 15.7045 29.0138 15.218 29.1742C14.7468 29.3295 14.2883 29.5476 13.851 29.8271L13.8365 29.8363L13.8223 29.8458C13.4048 30.1232 13.0308 30.4417 12.702 30.7933C12.3559 31.1635 12.0874 31.5526 11.8959 31.9526L2.00121 52.6229L1.56944 53.5249L2.56935 53.5118L7.14173 53.452L8.14164 53.4389L8.57341 52.5369L12.5916 44.1428L13.4206 44.1319L27.8764 43.9427Z" fill="white" stroke="black" stroke-width="2"/>
<path d="M55.5477 27.5658L56.6725 29.2193C61.5061 26.0314 69.2584 22.3887 76.0098 19.4696C82.7435 16.5581 88.4025 14.3999 89.0016 14.1801C89.0632 14.1575 89.169 14.1167 89.3172 14.0596C92.1447 12.97 110.43 5.92396 132.922 5.11909C143.77 4.73093 151.645 5.77801 157.065 7.0109C161.472 8.01309 164.243 9.13017 165.766 9.74442C166.12 9.88697 166.406 10.0024 166.63 10.0831C167.371 10.3497 169.198 11.2185 171.058 12.2679C171.98 12.7879 172.889 13.3403 173.657 13.8695C174.442 14.4107 175.017 14.8853 175.322 15.2438L176.939 14.0768C176.31 13.039 175.099 11.9632 173.757 11.0026C172.387 10.0214 170.771 9.08349 169.218 8.34442L169.181 8.32679L168.91 8.89613L169.181 8.32677C165.422 6.53677 151.171 -0.212121 122.625 3.12652C94.0178 6.4723 65.9774 20.2497 55.5477 27.5658Z" fill="white" stroke="black" stroke-width="2" stroke-miterlimit="2.3662"/>
<path d="M162.591 53.0244L161.405 51.4144C156.731 54.7549 149.185 58.6445 142.603 61.7792C136.039 64.9055 130.513 67.2445 129.928 67.4834C129.868 67.508 129.765 67.5521 129.62 67.614C126.859 68.794 109.007 76.4235 86.7799 77.9536C76.0605 78.6915 68.2336 77.8996 62.8286 76.8431C58.4354 75.9842 55.657 74.9581 54.1281 74.3934C53.7732 74.2623 53.4855 74.1561 53.2607 74.0826C52.5102 73.8373 50.6754 73.062 48.8116 72.0972C47.8856 71.6179 46.9727 71.1022 46.1984 70.5945C45.4074 70.0759 44.8255 69.6069 44.5069 69.2319L43.7448 69.8792L42.9826 70.5266C43.8006 71.4896 45.0785 72.4724 46.4316 73.37C47.8021 74.2791 49.3204 75.1465 50.675 75.8691C54.3393 77.8239 68.8312 83.8808 97.0378 79.6125C125.237 75.3453 152.518 60.6723 162.591 53.0244Z" fill="white" stroke="black" stroke-width="2" stroke-miterlimit="2.3662"/>
<path d="M71.8329 18.693L72.7424 20.4678C74.1664 19.8692 75.4029 19.801 76.4931 20.0475C77.5974 20.2972 78.6191 20.8856 79.5702 21.7021C81.4985 23.3575 82.976 25.8016 84.132 27.7269L85.9245 26.8578C84.3389 22.6739 83.8654 19.8941 84.1795 17.9637C84.4744 16.1509 85.4872 14.9657 87.35 13.9965L86.6245 12.1448C84.9008 12.6165 83.5288 12.5527 82.3982 12.1864C81.2595 11.8176 80.2875 11.1164 79.4109 10.1912C78.5292 9.26061 77.7694 8.13077 77.0493 6.94113C76.7787 6.49394 76.5045 6.02174 76.2308 5.55037C75.8067 4.81992 75.3838 4.09145 74.9768 3.4611L73.2024 4.35996C74.9177 8.85599 75.66 11.7516 75.4534 13.8619C75.2623 15.8132 74.2381 17.2213 71.8329 18.693Z" fill="white" stroke="black" stroke-width="2" stroke-miterlimit="1" stroke-linecap="round"/>
<path d="M64.4744 12.7813L65.3946 14.5488C65.8506 14.3588 66.1868 14.3773 66.4625 14.4743C66.766 14.5812 67.0873 14.8173 67.4213 15.2053C68.1075 16.0023 68.625 17.1661 69.0587 18.1583L70.9422 17.5036C70.3971 15.429 70.2891 14.1333 70.4438 13.297C70.5794 12.5642 70.9186 12.1566 71.5416 11.826L70.8329 9.97187C70.2512 10.1156 69.8513 10.0467 69.5473 9.90271C69.2223 9.74883 68.9118 9.46327 68.6045 9.0249C68.2962 8.58528 68.0284 8.0463 67.7657 7.45057C67.673 7.24043 67.5751 7.00828 67.4754 6.77208C67.3155 6.39325 67.1512 6.004 66.9974 5.67837L65.1264 6.36131C65.7218 8.60991 65.9338 9.97076 65.8129 10.9019C65.7567 11.3354 65.6291 11.6557 65.4378 11.9275C65.2405 12.208 64.9411 12.4853 64.4744 12.7813Z" fill="white" stroke="black" stroke-width="2" stroke-miterlimit="1" stroke-linecap="round"/>
<path d="M144.842 61.2539L145.623 63.0554C142.06 65.4942 140.497 67.1485 140.002 69.1721C139.487 71.2759 140.054 74.0069 141.587 78.8316L139.775 79.6467C139.524 79.2264 139.285 78.8231 139.055 78.4361C138.076 76.7879 137.273 75.4355 136.522 74.3245C135.595 72.9547 134.81 72.0496 133.98 71.4704C132.408 70.3742 130.388 70.2522 125.954 71.3384L125.198 69.512C129.276 67.039 130.571 65.7426 130.889 64.1848C131.056 63.3699 130.977 62.3759 130.669 60.9257C130.466 59.9727 130.183 58.8955 129.843 57.6057C129.663 56.9217 129.467 56.178 129.259 55.3612L131.077 54.5863C132.288 56.5323 133.264 58.0182 134.178 59.1419C135.088 60.2596 135.897 60.967 136.751 61.4003C138.447 62.2608 140.611 62.1916 144.842 61.2539Z" fill="white" stroke="black" stroke-width="2" stroke-miterlimit="1" stroke-linecap="round"/>
</svg>
