<svg width="214" height="85" viewBox="0 0 214 85" fill="none" xmlns="http://www.w3.org/2000/svg">
<path d="M202.191 49.9596L195.701 50.0446L189.864 40.8831L186.645 40.9252L188.635 36.769L191.853 36.7268L206.591 27.296L213.08 27.2111L194.675 38.755L202.191 49.9596ZM180.366 50.2453L175.794 50.3052L186.684 27.5566L191.256 27.4968L180.366 50.2453Z" fill="white"/>
<path d="M175.621 40.8497L159.125 41.0656L160.902 37.3535L177.398 37.1376L175.621 40.8497Z" fill="white"/>
<path d="M134.391 50.8342L138.964 50.7743L144.408 39.4001C144.692 38.8078 144.879 38.2589 144.969 37.7532L150.285 37.6994C150.907 37.6912 151.296 37.828 151.452 38.1097C151.625 38.3807 151.583 38.7859 151.324 39.3253L145.88 50.6995L150.452 50.6397L155.897 39.2654C156.236 38.5568 156.44 37.9236 156.509 37.3657C156.578 36.8078 156.55 36.3194 156.424 35.9007C156.303 35.4714 156.097 35.1115 155.805 34.8211C155.518 34.5201 155.18 34.2775 154.79 34.0934C154.412 33.9092 154.003 33.7779 153.563 33.6996C153.128 33.6107 152.693 33.5691 152.26 33.5748L144.869 33.6558L140.754 33.7097L133.706 33.8177C133.39 33.8218 133.066 33.8786 132.734 33.9881C132.402 34.0975 132.084 34.2488 131.782 34.4419C131.485 34.6245 131.217 34.8434 130.979 35.0988C130.745 35.3436 130.56 35.6087 130.423 35.8943L123.194 50.9965L127.766 50.9366L134.001 37.9125L138.744 37.8347C139.365 37.8266 139.766 37.9632 139.946 38.2446C140.131 38.5155 140.094 38.9206 139.836 39.4599L134.391 50.8342Z" fill="white"/>
<path d="M122.065 45.2525C121.725 45.9611 121.319 46.6022 120.847 47.1759C120.379 47.7391 119.877 48.2396 119.342 48.6775C118.811 49.1048 118.255 49.4747 117.674 49.787C117.099 50.0888 116.525 50.3381 115.953 50.5347C115.393 50.7312 114.844 50.8803 114.306 50.9819C113.785 51.0728 113.308 51.1211 112.874 51.1268L104.626 51.2348C103.993 51.243 103.349 51.1516 102.695 50.9605C102.041 50.7694 101.5 50.4507 101.073 50.0044C100.663 49.5473 100.415 48.9568 100.331 48.2327C100.263 47.4979 100.485 46.5965 100.996 45.5283L103.669 39.9443C104.176 38.8867 104.815 37.9903 105.586 37.2551C106.374 36.5091 107.194 35.9046 108.044 35.4415C108.912 34.9677 109.769 34.6255 110.615 34.4147C111.462 34.2039 112.202 34.0944 112.835 34.0861L121.083 33.9782C122.255 33.9628 123.161 34.1401 123.799 34.5101C124.437 34.8801 124.87 35.3526 125.095 35.9277C125.326 36.4922 125.391 37.1114 125.289 37.7853C125.2 38.4591 125.016 39.0868 124.738 39.6685L122.065 45.2525ZM120.15 39.7601C120.423 39.189 120.468 38.768 120.283 38.4972C120.098 38.2264 119.706 38.0949 119.108 38.1027L110.896 38.2102C110.286 38.2182 109.755 38.367 109.301 38.6567C108.853 38.9358 108.5 39.3451 108.242 39.8844L105.569 45.4685C105.311 46.0078 105.271 46.4182 105.451 46.6996C105.631 46.981 106.026 47.1177 106.636 47.1097L114.848 47.0022C115.47 46.9941 116.001 46.8453 116.443 46.5557C116.884 46.2662 117.234 45.8517 117.492 45.3124L120.15 39.7601Z" fill="white"/>
<path d="M97.0121 45.5803C96.6729 46.2889 96.267 46.9301 95.7943 47.5038C95.3267 48.0669 94.825 48.5674 94.2891 49.0053C93.7584 49.4326 93.2027 49.8025 92.6221 50.1149C92.0465 50.4167 91.4728 50.6659 90.901 50.8626C90.341 51.0591 89.7919 51.2081 89.2539 51.3098C88.7328 51.4007 88.2553 51.4489 87.8215 51.4546L79.5736 51.5626C78.7881 51.5729 78.1277 51.4922 77.5924 51.3205C77.0571 51.1489 76.62 50.9181 76.281 50.6283C75.9589 50.3277 75.7215 49.984 75.5688 49.5972C75.4278 49.2102 75.3531 48.8065 75.3445 48.3863C75.3411 47.9554 75.3904 47.5239 75.4924 47.0917C75.6112 46.6487 75.7618 46.2369 75.944 45.8561L78.6171 40.2721C79.1233 39.2145 79.7621 38.3181 80.5335 37.5829C81.3217 36.8369 82.1411 36.2324 82.9919 35.7693C83.8595 35.2956 84.7166 34.9533 85.5631 34.7425C86.4096 34.5318 87.1494 34.4222 87.7825 34.414L96.0304 34.306L94.056 38.4305L85.8433 38.538C85.2337 38.546 84.7022 38.6949 84.249 38.9846C83.8008 39.2637 83.4476 39.6729 83.1894 40.2123L80.5316 45.7646C80.2633 46.3251 80.2132 46.7461 80.3813 47.0277C80.5612 47.3091 80.9501 47.4459 81.548 47.438L89.7959 47.3301C90.4172 47.3219 90.9487 47.1731 91.3902 46.8836C91.8317 46.594 92.1816 46.1796 92.4398 45.6402L101.347 27.0321L105.92 26.9723L97.0121 45.5803Z" fill="white"/>
<path d="M69.3826 51.701L64.8103 51.7608L69.3665 42.2426C69.6247 41.7032 69.7496 41.2234 69.741 40.8032C69.7493 40.3722 69.651 40.0056 69.446 39.7035C69.2411 39.4014 68.9363 39.1742 68.5316 39.0219C68.1436 38.8588 67.6741 38.7809 67.1231 38.7881L59.1214 38.8928L52.8869 51.9169L48.3145 51.9768L55.5438 36.8745C55.6805 36.589 55.8657 36.3238 56.0994 36.0791C56.3381 35.8237 56.606 35.6047 56.9031 35.4222C57.2053 35.2291 57.5224 35.0778 57.8544 34.9683C58.1864 34.8589 58.5107 34.8021 58.8272 34.798L69.1326 34.6631C69.7071 34.6555 70.2831 34.7058 70.8605 34.8139C71.4496 34.9217 71.9916 35.1038 72.4864 35.3601C72.998 35.6056 73.439 35.9256 73.8093 36.3201C74.1965 36.7039 74.4703 37.1785 74.6307 37.7439C74.8079 38.2986 74.8483 38.9444 74.7518 39.6814C74.6554 40.4183 74.3844 41.2521 73.9389 42.1828L69.3826 51.701Z" fill="white"/>
<path d="M47.1304 46.3451C46.857 46.9162 46.4495 47.5363 45.9078 48.2055C45.3712 48.8641 44.7141 49.4823 43.9366 50.06C43.1759 50.6269 42.2999 51.1061 41.3087 51.4974C40.3292 51.8885 39.265 52.0916 38.116 52.1067L29.8682 52.2147C29.2351 52.2229 28.5973 52.1315 27.9549 51.9402C27.3242 51.7488 26.7986 51.4351 26.3781 50.9992C25.9744 50.5526 25.7337 49.9725 25.6559 49.2588C25.5831 48.5346 25.7948 47.6543 26.2909 46.6179C26.5643 46.0468 26.9718 45.4266 27.5135 44.7575C28.0552 44.0883 28.7065 43.4702 29.4672 42.9032C30.2447 42.3255 31.1232 41.8411 32.1027 41.4499C33.0939 41.0586 34.164 40.8554 35.3129 40.8404L43.5608 40.7324L41.6775 44.6666L33.4297 44.7746C32.8083 44.7827 32.2441 44.9635 31.737 45.317C31.235 45.6598 30.8625 46.0851 30.6195 46.5927C30.3613 47.1321 30.3523 47.5526 30.5923 47.8542C30.8492 48.1451 31.2473 48.2871 31.7866 48.28L39.9993 48.1725C40.6207 48.1644 41.1823 47.9889 41.6843 47.646C42.1863 47.3031 42.5588 46.8778 42.8018 46.3702L45.5584 40.6117C45.8166 40.0723 45.834 39.6465 45.6107 39.3341C45.3992 39.0216 45.012 38.869 44.4492 38.8764L34.4076 39.0078L36.2833 35.0895L46.3249 34.9581C46.958 34.9498 47.5899 35.0413 48.2206 35.2328C48.863 35.424 49.3861 35.743 49.7898 36.1896C50.2102 36.6255 50.4569 37.2055 50.5296 37.9297C50.6074 38.6434 50.3983 39.5184 49.9021 40.5548L47.1304 46.3451Z" fill="white"/>
<path d="M25.3081 43.0407L10.8524 43.2299L12.842 39.0736L27.2977 38.8844L25.3081 43.0407ZM31.8133 33.6861L13.4886 33.926L4.5735 52.55L0.0011241 52.6098L9.89584 31.9395C10.0325 31.6539 10.2202 31.3835 10.459 31.1281C10.6977 30.8728 10.9623 30.6486 11.2527 30.4556C11.5549 30.2625 11.872 30.1112 12.204 30.0018C12.536 29.8923 12.8661 29.8355 13.1944 29.8312L33.7877 29.5616L31.8133 33.6861Z" fill="white"/>
<path d="M165.789 9.24734L165.746 9.33763C167.245 10.0514 168.804 10.957 170.117 11.8969C170.921 12.4724 171.628 13.0579 172.172 13.6176C171.902 13.404 171.602 13.1849 171.281 12.9639C170.478 12.41 169.539 11.8399 168.599 11.3098C166.721 10.2505 164.83 9.34609 164.003 9.04813C163.8 8.97508 163.532 8.8668 163.195 8.73095C161.69 8.1232 158.818 6.96368 154.309 5.93829C148.792 4.6835 140.822 3.62835 129.883 4.01979C107.201 4.83144 88.7692 11.9358 85.9371 13.0274C85.7892 13.0844 85.6838 13.125 85.6226 13.1474C85.0041 13.3744 79.3259 15.5403 72.5732 18.4599C67.763 20.5397 62.4035 23.0037 57.9389 25.4229C70.5945 17.9162 94.972 7.11733 119.753 4.21908C148.044 0.910226 162.086 7.59534 165.706 9.31886L165.709 9.31995L165.746 9.33762L165.789 9.24734Z" fill="white" stroke="white" stroke-width="0.2" stroke-miterlimit="2.3662"/>
<path d="M43.3992 72.0171C44.0068 72.3809 44.6567 72.7381 45.3059 73.0741C47.1976 74.0533 49.0906 74.8575 49.919 75.1282C50.1223 75.1946 50.3913 75.2941 50.7289 75.419C52.2392 75.9776 55.1209 77.0436 59.6176 77.9226C65.1203 78.9983 73.0437 79.7953 83.8554 79.051C106.274 77.5078 124.272 69.814 127.037 68.6319C127.181 68.5702 127.284 68.5262 127.344 68.5018C127.948 68.255 133.494 65.9076 140.076 62.7723C144.762 60.5405 149.978 57.9076 154.312 55.3479C142.042 63.2569 118.292 74.8298 93.8732 78.5248C65.8849 82.7602 51.6343 76.7345 48.1928 74.8986C46.8562 74.1856 45.3708 73.3364 44.0397 72.4534C43.8214 72.3086 43.6075 72.163 43.3992 72.0171Z" fill="white" stroke="white" stroke-width="0.2" stroke-miterlimit="2.3662"/>
<path d="M73.824 18.5845C73.1448 18.4309 72.4336 18.3761 71.6903 18.4393C73.0199 17.2089 73.7701 15.8073 73.9463 14.0081C74.0995 12.4434 73.8132 10.6057 73.161 8.357C73.7968 9.36282 74.5024 10.3578 75.3221 11.2229C76.3178 12.2738 77.4944 13.1465 78.9359 13.6134C79.7838 13.8881 80.7099 14.0181 81.7275 13.9701C80.6574 14.9314 79.9568 16.1383 79.699 17.7228C79.4414 19.306 79.6325 21.2347 80.2804 23.6287C79.491 22.5352 78.5833 21.4534 77.5472 20.5639C76.4689 19.6382 75.2321 18.9029 73.824 18.5845Z" fill="white" stroke="white" stroke-miterlimit="1" stroke-linecap="round"/>
<path d="M63.9608 13.0595C63.8258 13.012 63.6878 12.9748 63.5469 12.9486C63.5876 12.8969 63.6269 12.8443 63.6646 12.7907C64.0118 12.2972 64.2166 11.7406 64.3005 11.095C64.3511 10.7048 64.3576 10.2793 64.3248 9.81152C64.3418 9.83652 64.359 9.86136 64.3763 9.88605C64.7714 10.4495 65.2645 10.9549 65.9053 11.2584C66.1315 11.3655 66.3705 11.4448 66.6229 11.4936C66.3051 11.9065 66.0829 12.408 65.9689 13.0241C65.8804 13.5019 65.8582 14.0438 65.9002 14.6612C65.791 14.5104 65.677 14.3648 65.558 14.2267C65.1234 13.7218 64.5966 13.2834 63.9608 13.0595Z" fill="white" stroke="white" stroke-miterlimit="1" stroke-linecap="round"/>
<path d="M135.545 68.8155C136.063 66.6967 137.481 65.0286 139.894 63.1739C136.948 63.684 134.867 63.6488 133.072 62.738C131.963 62.1752 130.998 61.2969 130.015 60.0888C129.527 59.4895 129.03 58.8027 128.504 58.0242C128.756 58.9877 128.973 59.8455 129.136 60.6139C129.455 62.1135 129.589 63.3572 129.359 64.485C128.993 66.2775 127.733 67.647 125.293 69.3159C128.188 68.8411 130.154 69.0658 131.838 70.2401C132.896 70.9779 133.805 72.0653 134.764 73.4843C135.172 74.0873 135.594 74.759 136.045 75.4994C135.335 72.7442 135.098 70.6398 135.545 68.8155Z" fill="white" stroke="white" stroke-miterlimit="1" stroke-linecap="round"/>
</svg>
