<?xml version="1.0" encoding="UTF-8"?>
<svg id="_레이어_1" data-name="레이어 1" xmlns="http://www.w3.org/2000/svg" viewBox="0 0 856.34 258.14">
  <defs>
    <style>
      .cls-1 {
        fill: none;
      }

      .cls-2 {
        fill: #fe5493;
      }
    </style>
  </defs>
  <path class="cls-2" d="M134.55,184.88s-.6.01-.59.23c.43.64.63.63,1.03.62-.04-.64.15-.86.13-1.29,0,0-.2,0-.58.44Z"/>
  <path class="cls-2" d="M145.25,175.88c.59-.23,1.14-1.09,1.7-1.75-1.43-.62-.93,1.3-1.7,1.75Z"/>
  <path class="cls-2" d="M192.34,188.32c-.38.44-.58.44-.75.87,0,0,.02.43.22.42.38-.44.55-.87.53-1.3Z"/>
  <path class="cls-2" d="M270.43,193.54c.38-.44.74-1.09.94-1.09,1.19-.24,1.35-.88,1.49-1.96-.02-.43.33-1.29.78-.44.86,1.06,1.65.83,2.02.39.79-.23,1.15-.88.89-1.95-.47-1.28-.32-2.14.45-2.8-.01-.21.58-.44.54-1.08.47-2.37,1.56-4.32,2.23-6.69-.62-.42-1.06-1.05-1.67-1.26l-.39.22v-.21s.39,0,.39,0c-1.83-.61-3.57.49-3.68,2.21.01.21.02.43.23.64.18-.43.36-.65.34-1.08.35-.86,1.38-.45,1.5-1.74.42.42,1.25.84,2.07,1.25.22.43.24.64.05.86-.78.44-.95.88-1.6.03-.83-.63-1.41-.19-2.02-.39.24.64,1.41.19,1.26,1.05-.13,1.29-1.02-.41-1.6.03.64.63.07,1.29.09,1.72.62.42,1.2-.02,1.63.61-.36.65-1.19.24-1.15.88-.46,2.58-2.57,4.12-3.65,6.29-2.18,3.9-10.98,14.8-13.8,18.07-.39.22-1.16.67-1.4.03-.46-1.06-1.05-.84-1.42-.4-.4,0-.58.44-.8.01-.42-.42.16-.65.15-.86,2.65-2.62,4.7-5.45,6.97-7.85,1.15-.88,7.68-9.37,8.42-10.46.76-.66.68-2.16,1.89-1.97.2,0,.18-.43.16-.65-.02-.43.16-.65.76-.66.61.2,1.01.2,1.18-.45-.21-.21-.82-.41-1.25-.84-.24-.64-.63-.63-.81-.2-.72,1.52-2.28,2.19-8.56,11.53.02.43-.12,1.5-.5,1.73-1.75.89-2.67,2.41-3.79,3.72-1.89,1.97-3.97,4.15-5.65,6.33-.75.87-2.1,1.76-1.84,2.82-.13,1.29-.69,1.94-1.07,2.38-2.12,1.54-4.45,2.66-6.36,4.41-1.34,1.1-3.81-.14-5.11,1.6-.18.43-1,.02-1.21-.19.34-1.08-.53-2.35.41-3.44.38-.44.53-1.3.68-2.16.52-1.51.21-3.44,1.56-4.32,0,0,.19-.22.18-.43.49-1.94,1.37-4.1,1.87-6.04.34-1.08,1.67-2.39.39-3.87-.01-.21-.47-1.28.73-1.3,1.02.41,1.36-.67,1.52-1.53.15-.86.11-1.72.27-2.37-.2,0-.39.22-.8.01.38-.44.59-.23.8-.01l1.69-1.96c.56-.65,1.15-.88,1.07-2.38-.64-.63.32-1.51.69-1.94.58-.44,1.56-.67.69-1.94-.21-.21-.02-.43-.02-.43,1.18-.45,1.33-1.31.83-3.02,0,0,.19-.22.39-.22,1.15-.88,1.48-2.17,2.42-3.26.36-.65.7-1.73.48-2.16-.27-1.28-.07-1.29.52-1.51.79-.23.95-.88,1.1-1.74.55-.87,1.12-1.52,1.47-2.39.93-1.3,2.68-2.2,1.75-4.54l-.02-.43c1.38-.45,1.49-1.96,2.23-3.05,2.38-3.91,4.58-7.6,6.77-11.5.74-1.09.86-2.59,1.81-3.47,1.33-1.31,2.01-3.47,3.11-5.21,1.47-2.39,2.51-5.2,3.98-7.58.19-.22.18-.43.15-.86-.17-3-2.06-4.68-4.32-5.72-1.23-.62-2.48-1.46-3.76-2.94-1.53-2.33-3.35-2.73-5.07-1.19-1.14,1.09-2.49,1.98-3.87,2.43-2.95.91-6.51,3.31-9.06,4.22-2.34,1.12-3.59,3.71-6.16,4.41-.99.23-4.12,2.8-4.9,3.03-3.65,2.64-7.06,6.14-10.26,9.85-4.19,4.86-6.46,8.22-9.15,11.76-3.74,4.79-5.59,10.85-9.54,15.43-1.49,1.96.22,1.14-1.28,3.1.31-1.72,1-3.67,1.53-4.96.9-1.73.79-3.88,1.89-5.61.56-.65,4.44-6.52,5.38-7.61.72-1.52,1.4-3.67,1.9-5.4,1.27-2.38,1.9-5.4,2.96-8,.88-2.16,1.56-4.32,2.23-6.69q.2,0,.19-.22c.34-1.08.49-1.94.84-2.81.14-1.08.46-2.58.79-3.88.36-.65.11-1.72-.34-2.57-.01-.21-.24-.64-.24-.64-.66-1.06-1.7-1.9-2.52-2.1-1.45-.83-2.86-1.02-4.09-1.64-1.45-.83-2.69-1.67-3.74-2.51-2.09-1.68-4.07-1.21-6.03-.53-1.27,2.38.1,5.36,1.08,5.13.19-.22.38-.44.79-.23.61.2.44.64.05.86-.11,1.72-.61,3.44-.93,4.95-.38.44-.54,1.08-.92,1.52-.29,1.94-.62,3.23-2.13,4.98-.74,1.09-1.28,2.17-1.61,3.46-.65,2.8-1.94,4.76-4.86,9.75-1.46,2.6-3.34,4.78-5.23,6.75-1.46,2.6-2.75,4.56-5.24,6.53-.76.66-.67,2.37-2.26,2.62-.57.44-.93,1.3-1.44,2.82-.35.86-.72,1.52-1.49,1.96-1.34,1.1-2.71,1.55-3.05,2.63-.89,1.95-2.64,2.84-3.16,4.35-.19.22-.38.44-.36.65-.8.01-.21-.21-.43-.64.36-.65.34-1.08.32-1.51.16-.65.14-1.08.73-1.3,1.36-.67,1.49-1.96,2.23-3.05-1.3,1.74-2.84,2.84-4.16,4.37-1.7,1.75-3.63,3.07-5.11,5.24-1.54,1.1-3.23,3.06-4.93,4.81l-7.37,7.86c-4.24,2.87-7.33,4.86-9.07,5.96.89-1.95.6-3.66,1.54-4.75,1.29-1.96,1.6-3.68,2.49-5.63.36-.65.55-.87-.09-1.72-.34,1.08-1.47,2.39-2.04,2.83-1.55.89-1.53,1.32-1.23,3.03-.61-.2-.89-1.7-.37-3,.59-.23,1.18-.45.73-1.3-.02-.43-.8.01-1.18.45,0,0-.01-.21-.21-.21.18-.43.36-.65.55-.87,1.61.18,1.75-.89,1.9-1.75-.08-1.5,1.1-1.74,1.89-1.97.16-.65.76-.66.81.2,0,0-.59.23.21.21.04.64.39-.22.38-.44.94-1.09.86-2.59,2.17-4.12.93-1.3,1.06-2.59,1.56-4.32.75-.87,1.48-2.17,1.82-3.25.15-.86,1.32-1.53.06-2.58,1.41.19,1.76-.68,2.14-1.11.29-1.94,1.39-3.89,2.1-5.4,1.28-2.17,2.76-4.34,3.02-6.92q.58-.44.55-.87c.99-.23,1.32-1.53,1.87-2.4,1.41-3.46,3.01-7.14,5.66-9.76,1.87-2.4,3.14-4.78,4.41-7.16.53-1.3,1.89-1.97,2.4-3.69.3-1.72.77-4.09.44-6.45-.01-.21-.62-.42-.82-.41-2.27-1.25-4.29-1.64-5.61-3.76-.42-.42-1.02-.41-1.61-.18-.4,0-.81-.2-1.01-.2-.87-1.27-1.67-1.26-2.8.05-.18.43-.19.22-.59.23-1.43-.62-1.68-1.47-2.73-2.31-1.46-1.05-2.67-1.24-4.11-2.07-.76.66-.5,1.73-1.75.89-2.47-1.24-5.17-3.12-8.36-2.85-.19.22-.6.01-.8.01-1.43-.62-2.21-.17-3.38.28-4.2.08-11.07,2.35-16.13,8.45l-6.58,7.63c-1.86,2.61-4.31,5.23-6.14,8.27-.69,1.94-2.44,2.83-3.14,4.78-1.46,2.6-3.1,5.42-4.16,8.02-1.7,1.75-2.77,4.13-3.65,6.29-1.64,2.82-2.7,5.42-3.9,9.09-1.79,3.9-4.29,9.31-5.62,14.05-.48,2.16-2.28,5.84-2.94,8.42-.48,2.15-1.15,4.53-1.24,6.46-.29,1.94-.61,3.45-1.09,5.6-.1,1.72-.79,3.88-.48,5.8.46,1.06-.22,3.22.8,3.63,1.67,1.26,1.99,3.4,2.89,5.31.68,1.49,1.96,2.97,3.36,2.94.4,0,1.2-.02,1.76-.68.35-.86,1.34-1.1,2.34-1.12,1.21.19,1.99-.25,3.11-1.56.94-1.09,1.49-1.96,2.85-2.63l1.34-1.1c1.54-1.1,4.15-4.58,5.63-6.76.72-1.52,2.04-2.83,4.49-5.66.55-.87,1.34-1.1,2.08-2.18.93-1.3,2.23-3.05,3.13-4.99,1.1-1.74,2.44-2.84,3.55-4.57.94-1.09,2.28-2.19,1.99-3.9-.06-1.07.72-1.52,1.52-1.53.6-.01.95-.88.94-1.09q-.04-.64-.45-.85c-.2,0-.19.22-.15.86.06,1.07-.59.23-1.19.24l-1,.02c.24.64-.35.86-.99.23l.05.86c.42.42.62.42.44.64-.36.65-.96.66-1.4.03-.2,0-.64-.63-.04-.64.4,0,.79-.23.95-.88-.61-.2-1.21-.19-2.13,1.33-.19.22-.13,1.29-.95.88-.63-.63.13-1.29.72-1.52,1.35-.88,2.03-3.04,3.56-4.36.4,0,.39-.22.76-.66-.05-.86.15-.86.74-1.09,0,0,.18-.43.6-.01.01.21-.35.87-.35.87-.56.65-1.35.88-1.06,2.59,1.36-.67,1.89-1.97,1.81-3.47-.07-1.29.52-1.51.7-1.73.38-.44.58-.44.96-.66,1.44-2.82,3.68-5.86,5.77-7.83.38-.44.74-1.09,1.34-1.1.6-.01,1.4-.03,1.36-.67-.04-.64-.05-.86.16-.65,1.43.62,1.74-1.11,2.29-1.97.34-1.08.5-1.73,1.28-2.17.98-.45,1.53-1.32,2.09-1.97.92-1.52,2.08-2.18,3.01-3.49q.39-.22.59-.23l.05.86c-.59.23-.53,1.3-.86,2.59-.89,1.95-2.21,3.47-2.88,5.85-1.6,3.68-3.63,6.72-4.83,10.39-2.79,7.35-6.41,14.28-8.97,22.27-1.01,3.45-2.18,7.55-3.58,11.23-.69,1.94-1.57,4.11-1.66,6.25.02.43-.15.86-.74,1.09-.94,1.09-.66,2.59-.76,4.31,0,0,.02.43.22.42,1.05.84.89,1.7.32,2.14-.55.87-.13,1.29.08,1.5.62.42.82.41.83.63.29,1.71,1.33,2.34,2.78,3.17,1.01.2,2.03.61,3.07,1.23.21.21.41.21,1-.02,1.6-.03,1.52-1.53,1.26-2.6.96-.66.93-1.3.89-1.95-.04-.64-.12-2.14.86-2.59.78-.44,1.33-1.31,2.48-2.19.55-.87.88-2.16,1.86-2.61.78-.44,1.15-.88,1.28-2.17-.05-.86.5-1.73,1.13-1.31,1.05.84,1-.02.96-.66-.04-.64-.05-.86.13-1.29,1.16-.67,1.88-2.18,3.28-2.21,1.38-.45,1.3-1.74,1.83-3.04.94-1.09,4.11-5.23,6.34-8.27l7.19-7.43c1.87-2.4,3.97-4.15,5.87-5.9,2.62-3.27,4.86-6.1,7.47-9.58,2.22-3.26,5.1-5.46,6.91-8.93.4,0,.95-.88,1.55-.89-1.86,2.61,7.12-8.72,9.2-10.9.49-1.94,1.17-4.1,2.47-6.05.18-.43.36-.65.74-1.09-.67,2.37-1.75,4.54-3.02,6.92-.15.86-4.26,6.09-4.83,6.74-1.1,1.74-1.36,4.32-2.65,6.27-.35.87-.31,1.72-1.07,2.38-.19.22-.38.44-.35.87-.23,3.01-1.93,4.97-2.98,7.57-.49,1.94-1.2,3.67-1.7,5.4-.86,2.59-6.62,14.07-7.89,16.46-.82,3.23-2.67,6.06-4.11,8.87-.48,2.15-.17,4.08.93,5.99,1.07,1.27,2.09,1.68,2.95,2.74,1.08,1.48,2.75,2.74,4.74,2.49,1-.02,1.57-.46,2.6-.05.36-.65.94-1.09,1.3-1.74,1.43-3.03,2.88-5.85,3.91-8.87.54-1.08.86-2.59,1.41-3.46,1.54-1.1,6.77-11.5,8.09-12.81,1.52-1.53,2.8-3.7,4.51-5.23,1.68-2.18.46-3.3,2.16-5.26,2.6-3.7,2.83-6.97,5.82-10.68,3.17-4.14,5.81-6.97,8.99-11.11,1.49-1.96,2.78-3.91,4.06-6.08l4.41-5.2c2.04-2.83,4.52-5.02,6.57-7.85.76-.66,3.23-1.1,2.55-2.59-.22-.43-.06-1.07.33-1.29l4.52-4.3c.95-.88,1.92-1.54,2.88-2.2.39-.22.78-.44,1-.02.24.64-.16.65-.35.86-.75.87-1.54,1.1-2.29,1.97-.39.22-.98.45-.53,1.3.58-.44.94-1.09,1.54-1.1,1.95-.89,2.84-2.84,4.79-3.74.39-.22.16-.65-.07-1.29-.2,0-.4,0-.39.22-.18.43-.56.65-.99.23-.2,0-.21-.21-.21-.21.16-.65.36-.65.75-.87.99-.23,1.79-.25,2.15-.9,1.09-1.95,2.64-2.84,4.42-3.3-.41-.21-.21-.21-.02-.43.78-.44,1.35-.88,2.14-1.11.06,1.07-.52,1.51-1.09,1.95-2.13,4.98-4.87,9.53-7.01,14.29-2.88,5.85-6.38,11.28-8.64,17.33.01.21-.18.43-.36.65-1.52,1.53-2.2,3.69-2.88,5.85-.47,2.37-1.35,4.53-2.64,6.49-1.09,1.95-2.18,3.9-2.87,6.06-.34,1.08-.49,1.94-1.02,3.24-.95.88-1.68,2.18-2.01,3.47-.75,4.52-3.17,7.78-4.53,12.1-.33,1.29-1.88,2.18-.57,4.09.2,0,.01.21-.19.22-.89,1.95-1.37,4.1-1.26,6.25-.29,1.94-.56,4.3.94,6.21.89,1.7,2.16,2.97,3.27,4.88.89,1.7,2.35,2.75,3.61,3.8,2.08,1.46,3.34,2.51,5.55,2.69,1.01.2,2.41.17,3.43.58,1.82.4,3.04.8,4.35-.94.19-.22.59-.23.99-.23,2.15-.9,3.9-1.79,5.39-3.75.93-1.3,2.07-2.4,3.22-3.28,1.16-.66,2.74-1.12,3.47-2.42.92-1.52,2.26-2.62,3.18-3.92.76-.66,6.91-8.93,6.86-9.78.36-.65.55-.87.93-1.3,2.08-2.18,3.95-4.58,3.31-8.86-1.79.25-2.06,2.61-4.09,2.01ZM159.39,178.41s.2,0,.22.43q.02.43-.18.43-.6.01-.62-.42s-.02-.43.58-.44ZM156.63,182.75c.2,0,.4,0,.41.21.2,0,.02.43.02.43.07,1.29-1.12,1.52-1.89,1.97q-.2,0-.22-.43c.14-1.08,1.32-1.53,1.68-2.18ZM130.47,190.75h.2c-.04-.65.35-.87.33-1.3.02.43.04.64-.33,1.29v.21s.04.43-.14.86l-.41-.21q-.02-.43.35-.87ZM164.75,155.99h.4c.01.21.04.64-.36.64l-.22-.43c-.01-.21.19-.22.19-.22ZM158.81,167.91c.44.64.06,1.07.06,1.07h-.2c-.22-.42-.05-.85.14-1.07ZM158.91,169.62c-.19.22-.14,1.08-.95.88-.2,0-.04-.64-.05-.86-.02-.43.58-.44,1-.02ZM155.43,175.48c.35-.86.34-1.08.75-.87.23.64.05.86.06,1.07.05.86-.58.44-1.14,1.09-.05-.86.34-1.08.33-1.29ZM129.85,143.33q.4,0,.41.21c.04.64-.35.86-.75.87-.18.43-.2,0-.21-.21.16-.65.15-.86.55-.87ZM124.7,155.01c.01.21-.55.87-1.15.88-.05-.86.33-1.29.53-1.3,0,0,.6-.01.62.42ZM129.88,140.11q-.36.65-.75.87c-.25-.85-.05-.86.75-.87ZM123.17,156.33c.07,1.29-.47,2.37-1.64,2.82.21.21.23.64-.36.65-.02-.43.18-.43.36-.65-.07-1.29.5-1.73,1.64-2.82ZM119.54,163.05c.24.64.05.86-.33,1.29-.36.65-1.15.88-1.29,1.96-.26-1.07.09-1.93.86-2.59.16-.65.35-.87.76-.66ZM123.69,151.17c.62.42.02.43-.18.43l-.42-.42h.6ZM115.64,168.48c.2,0,.82.41,1.02.41-.02-.43-.45-.85-.06-1.07.6-.01.83.63,1.26,1.05-.39.22-.6.01-1.2.02-.19.22,1.88,1.47-.12,1.5-.59.23-.79.23-1.36.67.56-.65.76-.66,1.36-.67-.64-.63-1.45-.83-.91-1.91h-.6c-.04-.63.13-1.28.72-1.5.41.21-.15.86-.12,1.5ZM113.86,179.68l-1.29,1.96.69-1.94h.6ZM109.78,181.9c-.01-.21,1.08-2.17,1.28-2.17.6-.01-.29,1.94-.29,1.94-.39.22-.59.23-.99.23ZM108.72,184.49c-.4,0-.59.23-.6.01-.05-.86.54-1.08.89-1.95-.15.86.09,1.72-.29,1.94ZM108.58,185.57h.4c.02.42-.36.64-.56.65-.4,0-.02-.43.16-.65ZM106.68,190.97s-.04-.64.36-.65l.04.64-1.49,1.96c-.2,0,1.09-1.95,1.09-1.95ZM111.63,179.07c-.04-.64.16-.65.56-.65.02.43.04.64-.56.65ZM114.28,172.8c.06,1.07-.34,1.08-.7,1.73-.05-.86.32-1.51.7-1.73ZM123.47,147.31c.04.64-.13,1.29-.72,1.52-.05-.86.75-.87.72-1.52ZM114.3,169.58l-.39.22s-.79.23-1.6.03c.78-.44,1.59-.24,1.99-.25ZM100.4,196.66c.04.64-.53,1.3-.49,1.94-.04-.64-.08-1.5.49-1.94ZM99.47,201.62c-.4,0-.42-.42-.45-.85q-.01-.21.39-.22c.4,0,.41.21.41.21.02.43.05.86-.35.86ZM102.52,195.34c-.05-.86-.08-1.5.67-2.37.48,1.49-.1,1.72-.67,2.37ZM104.05,194.02c.82.41,1.23.62,1.27,1.26,0,0-.38.44-.58.44-.82-.41-.06-1.07-.69-1.7ZM103.36,203.26c-.78.44-.49,1.94-1.53,1.32h-.4c-.01-.21.4,0,.4,0-.01-.21-.04-.64.36-.65.18-.43.14-1.08.94-1.09.2,0,.62.42.22.43ZM127.3,194.88l-.07-1.29c.6-.01.82.41.65.85q.02.43-.58.44ZM137.58,178.17c-.07-1.29.32-1.51,1.1-1.74-.38.44-.55.87-1.1,1.74ZM147.66,165.11c.76-.66.74-1.09,1.6-.03l-1.6.03ZM150.29,162.05c.15-.86.54-1.08,1.15-.88l.04.64c-.39.22-.59.23-1.19.24ZM158.79,153.1c-.4,0-.8.01-1.22-.41-.76.66-1.32,1.53-2.28,2.19-.35.86.65.85,1.06,1.05.04.64.39-.22.44.64.01.21-.39.22-.79.23l-1,.02c.01.21-.18.43-.15.86,0,0,.43.64.04.64-.4,0-.8.01-1.05-.84-.01-.21.35-.86-.44-.64-.6.01-.8.01-1.16.67l.02.43c1.23.62.68,1.49.72,2.13.02.43-.34,1.08-.54,1.08-.8.01-1.41-.19-1.46-1.05-.21-.21-.25-.85.36-.65.2,0,.62.42.6-.01-.01-.21-.41-.21-.41-.21-.8.01-1.39.24-1.76.68-1.67,2.39-2.95,4.56-4.85,6.31-2.24,2.83-4.51,5.23-6.97,7.85-1.67,2.39-3.36,4.35-5.07,5.89-2.27,2.4-4.11,5.23-6.02,6.98-1.15.88-1.84,2.82-3.2,3.71-1.88,2.18-2.83,3.06-4.01,3.51l-.39.22c-.26,2.58-3.28,5.85-4.83,6.74-2.33,1.33-2.96,4.35-5.06,6.1-.79.23-.95.88-1.94,1.11-.2,0-.58.44-.55.87.04.64-.36.65-.76.66-.82-.41-.24-.64-.26-1.07-.02-.43.16-.65-.07-1.29-.75.87-1.36.67-2.8.05,1.96-.68,1.86-2.61,2.61-3.48.35-.87-.11-1.93.68-2.16.6-.01.56-.65.36-.65-.86-1.06-.49-1.71.08-2.15-.99.23-1.13-2.34-2.67-1.24-.08-1.5.72-1.52,1.52-1.53,1.42.4,2.53-1.33,2.48-2.19-.02-.43-.04-.64.16-.65,1.3-1.74,3.11-5.21,3.62-6.93.34-1.08.28-2.15.83-3.02.36-.65-.26-1.07-.28-1.5,1.73-1.32,2.97-4.13,3.44-6.5l-.05-.86c2.13-1.33,2.37-4.12,3.84-6.51.18-.43-.24-.64-.28-1.5,1.21.19,1.36-.67,1.7-1.75.34-1.08,1.28-2.17,2.21-3.47l1.63-3.03c.13-1.29,1.07-2.38,1.41-3.46.55-.87,1.15-.88,1.72-1.53.9-1.73,2.46-2.62,3.37-4.14,1.29-1.96,2.44-2.83,3.15-4.56.52-1.51,1.89-1.97,3.24-2.85,0,0,.2,0,.18-.43,1.13-1.31,2.21-3.47,4.36-4.37,2.16-.68,3.44-2.85,5.19-3.74,2.14-1.11,4.27-2.44,6.03-3.12,2.15-.9,4.11-1.58,6.53-1.19,1-.02,1.6-.03,2.25.82.21.21.8-.01,1-.02,1.39-.24,2.41.17,3.66,1.01.6-.01.62.42.82.41,1.43.62,2.06,1.04,1.14,2.55-1.61,3.46-2.63,6.7-4.46,9.74-.16.65-.74,1.09-1.33,1.31-.2,0-.59.23-.56.65-.32,1.51-1.89,1.97-2.4,3.69-.36.65-1.19.24-1.52,1.53.01.21-.19.22-.15.86.21.21.59-.23.59-.23.75-.87,1.52-1.53,2.09-1.97-.94,1.09-.2,3.65-2.4,3.69ZM141.53,202.78c-.73-2.35,1-3.67,1.68-5.83.7-1.73.99-3.88,1.91-5.19.38-.44.36-.65.54-1.08-.08-1.5.67-2.37,1.87-2.4-.66-1.06-.73-2.35-.17-3,1.13-1.31,2.04-2.83,2.35-4.55-.07-1.29.48-2.15,1.07-2.38,1.09-1.95,1.77-4.11,2.65-6.27.86-2.59,2.34-4.76,3.39-7.36.53-1.3,1.27-2.38,1.77-4.11-.02-.43.38-.44.75-.87,1.44-2.82,2.88-5.85,4.09-9.3.19-.22.54-1.08,1.32-1.53-.01-.21-.05-.86.19-.22.61.2.04.64.05.86l-2.48,5.84c-.69,1.94-1.78,3.9-2.48,5.84-1.26,2.6-2.36,4.34-3.43,6.72-1.44,2.82-2.85,6.28-4.29,9.31-.87,2.38-1.71,5.18-2.98,7.57-.54,1.08-1.07,2.38-1.81,3.47.04.64-.32,1.51-.68,2.16-.56.65-1.12,1.52-1.08,2.17.05.86-.53,1.3-.72,1.52-.27,2.37-1.17,4.1-2.07,6.05-.68,2.16-1.37,4.1-2.49,5.63.55-.87-.33-2.35,1.03-3.02ZM138.75,210.34c-.2,0-.21-.21-.05-.86.58-.44.54-1.08,1.13-1.31.05.86-.34,1.08-.29,1.94-.19.22-.16.65-.79.23ZM137.11,216.81c-.25-.85-.08-1.5,1.1-1.74l-1.1,1.74ZM151.28,183.71c.58-.44,1-.02,1.05.84-.4,0-.99.23-1.62-.4-.01-.21.58-.44.58-.44ZM149.67,190.82c-.05-.86.1-1.72-.13-2.36,1.23.62.28,1.5.13,2.36ZM150.86,186.94c.02.43-.39.22-.42-.42-.24-.64-.25-.85.32-1.51.05.86.86,1.06.11,1.93ZM147.92,191.71c.6-.01.65.85.66,1.06.06,1.07-.29,1.94-1.54,1.1.19-.22.14-1.08.33-1.29-.01-.21.35-.87.55-.87ZM144.46,201.44l-.22-.43c-.06-1.07.5-1.73,1.49-1.96-.35.87-.94,1.09-1.27,2.38ZM139.13,217.2h-.2c-.42-.42-.02-.43.16-.64,0,0,.01.21.21.21.02.43-.18.43-.18.43ZM150.88,187.37c1.6-.03,1.74-1.1,1.89-1.97.18-.43.55-.87,1.15-.88-.74,1.09-1.29,1.96-1.21,3.46.01.21-.39.22-.79.23-.8.01-.81-.2-1.05-.84ZM144.74,206.58q.01.21-.39.22-.01-.21-.24-.64c.38-.44-.06-1.07,1.13-1.31,0,0,.01.21.21.21.04.64-.74,1.09-.72,1.52ZM148.66,201.36c.2,0,.8-.01.83.63.01.21-.56.65-.76.66-.4,0-.8.01-.82-.41-.01-.21.35-.86.75-.87ZM146.12,206.13c-.01-.21.19-.22.18-.43.59-.23,1.34-1.1,1.49-1.96-.02-.43.18-.43.6-.01.21.21.41.21.42.42l-2.69,1.98ZM149.64,201.13c-.2,0-.82-.41-.25-.85-.22-.42.18-.43.38-.44q.6-.01.82.41c.02.43-.55.87-.95.88ZM176.4,182.18c-.04-.64.54-1.08,1.16-.67l-1.16.67ZM195.44,182.9c-.16.65-.55.87-.95.88.19-.22.38-.44.54-1.08.01.21.21.21.41.21ZM196.51,176.87l.42.42c.05.86-.33,1.29-1.3,1.74l-.04-.64.19-.22-.02-.43c-.02-.43.16-.65.75-.87ZM195.51,180.54c-.18.43-.36.65-.79.23-.02-.43.38-.44.79-.23ZM186.28,201.74c-.39.22-.79.23-1.17.45v-.21s1.6-3.46,1.6-3.46c.01.21.02.43.24.64.36-.65.55-.87.33-1.29-.2,0-.19.22-.39.22l3.04-6.49c.16-.65.33-1.29.72-1.52.2,0,.61.2.42.42-.15.86-3.79,11.02-4.78,11.25ZM184.67,205.2c-.4,0-.61-.2-.62-.42-.24-.64.14-1.08.53-1.3.4,0,.81.2.83.63.24.64-.35.86-.74,1.09ZM190.78,189c-.05-.86.74-1.09,1.13-1.31.39-.22.41.21.42.42.23.64.06,1.07-.52,1.51-.4,0-.8.01-1.03-.62ZM194.65,175.83h.6c.2-.01.6-.02.59-.24.02.43-.39.22-.59.23-.56.65-1.55.89-2.31,1.55.35-.87.08-2.15,1.72-1.53ZM190,185.79c-.2,0-.4,0-.41-.21-.02-.43.36-.65.36-.65.2,0,.21.21.42.42.01.21-.18.43-.38.44ZM183.12,206.09c.18-.43.38-.44.6-.01l.04.64c.01.21.02.43-.18.43,0,0-.01-.21-.21-.21-.21-.21-.62-.42-.25-.85ZM182.18,210.83c.74-1.09-.37-3,1.41-3.46,1.11,1.91-.23,3.01-.35,4.51-1.01-.2-1.25-.84-1.06-1.05ZM193.42,186.16l-.04-.64-.36.65h-.4c-.07-1.28.28-2.14,1.03-3.02.18-.43.58-.44,1.18-.45-.39.22-.55.87-.92,1.52-.2,0-.38.44-.35.86.22.43.6-.01,1.02.41-.36.65-.76.66-1.16.66ZM217.44,167.62c-.16.65-.35.86-.33,1.29-.41-.21-1.2.02-1.23-.62.16-.65.79-.23,1.56-.67ZM208.63,178.29c-.2,0-.41-.21-.42-.42.15-.86,1.2-.02,1.37-.45.25.85-.34,1.08-.95.88ZM214.16,173.47c-.79.23-1.35.88-2.36.69.04.64.27,1.28-.52,1.51-.2,0-.4,0-.61-.2-.05-.86.33-1.29,1.13-1.31.74-1.09.86-2.59,2.41-3.48-.74,1.09,1.12,2.13-.05,2.79ZM214.6,170.46c-.42-.42-.06-1.07.34-1.08.6-.01,1.25.84,1.89,1.68-1.2.02-1.79.25-2.23-.6ZM224.94,158.46s.01.21.22.43c-2.01-.18-1.69,1.96-2.23,3.05-.48,2.15-2.23,3.05-3.58,3.93-.2,0-.59.23-.76.66q-.14,1.08-1.57.46c.55-.87,1.52-1.53,2.06-2.61.53-1.3,1.67-2.39,2.62-3.27.74-1.09,1.9-1.75,2.43-3.05.73-1.3,1.88-2.18,2.98-3.92.09,1.72-1.01,3.45-1.8,3.68q-.39.22-.36.65ZM230.71,150.63c-.35.86-1.33,1.31-1.06,2.59-.16.65-1.2.02-1.79.25.53-1.3,1.47-2.39,2-3.69-.04-.64.56-.65.99-.23.42.42.04.64-.14,1.08ZM237.01,193.3c.2,0,.21.21.02.43q.01.21-.18.43c-.22-.43-.25-.85.15-.86ZM236.82,182.57c.85-2.81,2.31-5.19,4.18-7.59,0,0,.2,0,.59-.23-1.23,3.03-2.48,5.84-3.93,8.44-.19.22-.16.65-.58.44-.42-.42-.43-.64-.26-1.07ZM234.58,192.7c-.22-.43-.83-.63-.27-1.28-.01-.21.39-.22.61.2.83.63.47,1.28.09,1.72-.18.43.27,1.28-.32,1.51-.4,0-.6.01-.81-.2-.44-.64-.66-1.06-.49-1.71.36-.65.79-.23,1.19-.24ZM231.2,200.27c.4,0,.6-.01.62.42.24.64.06,1.07-.94,1.09,0,0-.41-.21-.63-.63.18-.43.35-.86.95-.88ZM233.28,198.09c-.18.43-.75.87-1.33,1.31-.08-1.5.52-1.51,1.33-1.31ZM229.81,204.16c.24.64.26,1.07-.54,1.08.01.21.22.42.22.42h-.2c.2,0-.01-.21-.02-.42-.01-.21-.04-.64.54-1.08ZM228.63,211.69c-.4,0-.42-.42-.66-1.06-.08-1.5.23-3.01.97-4.1,1.26,1.05,1.32,2.12.38,3.21-.19.22-.16.65-.33,1.29-.18.43.05.86-.36.65ZM235.49,198.26c-.19.22-.4,0-.4,0-.43-.64-1.05-.84-1.46-1.05-.42-.42-.62-.42-.65-.85-.05-.86.56-.65.76-.66,1.37-.45,1.47,1.26,2.12,2.11,0,0-.18.43-.38.44ZM263.99,203.75c-.4,0-.42-.42-.64-.63-.01-.21-.04-.64.16-.65.4,0,6.42-6.99,6.44-6.56.01.21-5.97,7.84-5.97,7.84Z"/>
  <path class="cls-2" d="M279.96,174.26c.94-1.09,1.87-2.4,1.56-4.32.8-.01.76-.66.93-1.3-.01-.21-.24-.64-.42-.42-.59.23-.76.66-.53,1.3q.01.21-.18.43c-.41-.21-.83-.63-.8.01-.13,1.29-1.3,1.74-.62,3.23.01.21-.58.44-.99.23-.41-.21-.61-.2-.98.45.8-.01,1.47,1.26,2.02.39Z"/>
  <path class="cls-2" d="M189.44,193.74c.19-.22.75-.87.7-1.73-.56.65-.94,1.09-.7,1.73Z"/>
  <path class="cls-2" d="M282.42,168c1.38-.45,1.52-1.53,1.88-2.18-.02-.43.15-.86-.25-.85-.01-.21-.4,0-.4,0-.14,1.08-.9,1.73-1.23,3.03Z"/>
  <path class="cls-2" d="M143.04,179.36c-.02-.43-.63-.63-.62-.42-.4,0-1.2.02-.75.87.02.43.44.64.84.63-.01-.21.56-.65.54-1.08Z"/>
  <path class="cls-2" d="M141.74,181.1c-.85-.84-1.27-1.26-1.4.03.04.64-.74,1.09-.89,1.95-.19.22-.79.23-.74,1.09h.6c.2-.01.59-.24.95-.89-.01-.21.38-.44.15-.86-.04-.64.13-1.29,1.33-1.31Z"/>
  <path class="cls-2" d="M342.51,140.71c.98-.45,1.75-.89,1.68-2.18-.99.23-1.34,1.1-1.68,2.18Z"/>
  <path class="cls-2" d="M337.99,149.38c.39-.22.58-.44.54-1.08-.79.23-.96.66-.54,1.08Z"/>
  <path class="cls-2" d="M343.99,138.54c.39-.22.56-.65.94-1.09-.59.23-.98.45-.94,1.09Z"/>
  <path class="cls-2" d="M335.32,151.79c1.22.41,1.56-.67,1.9-1.75-1.19.24-1.34,1.1-1.9,1.75Z"/>
  <path class="cls-2" d="M307.79,185.77c.39-.22.36-.65.13-1.29-.21-.21-.61-.2-.79.23-.11,1.72-1.9,1.75-2.23,3.05.81.2,2-.04,2.62.38-.46-1.06-.72-2.13.27-2.37Z"/>
  <path class="cls-2" d="M336.09,147.69c-.86-1.06-.11-1.93-.35-2.78l-.69,1.94c-.35.86.24.64,1.05.84Z"/>
  <path class="cls-2" d="M336.65,215.72c.25-2.79.68-5.81,1.52-8.61.49-1.94.57-4.09,1.07-6.03,1.07-2.38,1.31-5.17,2.18-7.55.69-1.94,1.19-3.88,1.68-5.83l3.37-11.44c.29-1.94,1-3.67.53-4.95-.49-1.71.12-1.5.69-1.94.39-.22,1.35-.88,1.13-1.31-.46-1.06.3-1.72.43-3.01,1.06-2.6,1.91-5.19,2.77-7.78,1.27-2.38,1.3-5.39,2.99-7.35,1.12-1.52,2.01-3.47,2.3-5.41.7-1.73,1.66-2.61.95-4.52-.22-.43.18-.43.38-.44l3.92-8.66c-.04-.64-.06-1.07.1-1.72,1.13-1.31,2.02-3.26,2.91-5.2.34-1.08.88-2.16.63-3.02-.4,0-.61-.2-.65-.85,1.8-.03,2.55-.91,2.81-3.49.56-.65.14-1.08-.28-1.5.59-.23,1.01.2,1.17-.45,1.63-3.03,2.69-5.63,3.75-8.22,1.07-2.38,2.17-4.12,3.04-6.49.88-2.16,2.71-8.85,4.4-10.81,2.04-2.83,12.23-27.26,14.92-29.24,1.16-.67,1.7-1.75,1.83-3.04.35-.86.48-2.15.87-2.38,2.17-.47,1.82-3.25,3.38-3.93.65-2.8,3.58-3.93,4.43-6.73.73-1.3.41-3.44.14-4.72-1.13-2.34-2-3.61-4.61-3.78-.2,0,.36-.65-.05-.86-1.67-1.26-3.53-2.3-5.7-1.83-1.77.46-1.7,1.75-2.83,3.06-1.1,1.74-2.17,4.12-3.49,5.64-.9,1.73-1.39,3.89-2.68,5.84-.92,1.52-1.81,3.47-2.9,5.42l-16.41,34.85c-1.04,2.81-4.43,10.38-5.67,13.2-1.21,3.46-2.83,6.71-4.26,9.74l-5.17,11.47c-.52,1.51-1.09,1.95-2.53,1.33-1.01-.2-1.49-1.69-2.29-1.67-3.22-.37-5.96-2.9-9.2-3.69-1.43-.62-3.27-1.23-5.45-.97-2.01-.18-3.78.28-6.16.76-3.56.71-7.05,2.71-9.92,5.12-1.35.88-1.87,2.4-2.83,3.06-2.1,1.76-4,3.72-5.87,5.9-3.36,4.35-6.37,7.84-9.34,11.98-1.68,2.18-2.72,4.99-4.2,7.16-1.32,1.53-2.01,3.47-3.1,5.42-.54,1.08-1.5,1.74-1.64,2.82-.45,2.8-2.14,4.76-3.42,6.93-1.19,3.89-3.02,6.92-4.23,10.38-1.73,4.97-3.63,10.37-4.94,15.54-1,3.67-2.61,7.13-3.4,10.79-.12,1.5-.43,3.01-1.15,4.53-.35.87-.92,1.52-1.04,2.81.11,1.93.01,3.86,1.49,5.34,1.68,1.47,2.26,4.68,4.88,5.06q.4,0,.41.21c1.46,1.05,3.24.8,4.56-.73,1.52-1.53,2-3.69,3.95-4.58.96-.66,1.67-2.39,2.43-3.05,1.71-1.53,2.82-3.27,4.36-4.37l7.43-6.79c1.14-1.09,2.67-2.41,3.98-3.94.92-1.52,2.43-3.05,3.2-3.71,2.1-1.76,3.4-3.71,4.7-5.45,2.61-3.48,5.02-6.96,7.06-9.79,1.49-1.96,3.03-3.06,3.9-5.44.16-.65.54-1.08,1.5-1.74.76-.66.72-1.52,1.24-2.81-.74,1.09-2.62-.38-3.14,1.13l.41.21c.2,0,.53-1.3.99-.23.64.63.26,1.07-.33,1.29-.35.87-1.13,1.31-1.9,1.75-.35.86-.53,1.3-1.55.89-.82-.41-.81-.2-.98.45-.19.22.25.85-.15.86-1.6.03-1.32,1.53-2.46,2.62-.59.23-.94,1.09-.49,1.94.22.43-.35.86-.35.86-1.4.03-2.34,1.12-3.08,2.2h-.6c-.2.01-.76.67-1.34,1.11-1.3,1.74-2.2,3.69-4.14,4.8-.7,1.73-2.06,2.61-3.1,1.77-1.23-.62-2.2.04-2.96.7-1.32,1.53-2.41,3.48-4.38,3.94-.6.01-.76.66-.99.23-.64-.63-.24-.64.14-1.08.39-.22.58-.44.14-1.08-.02-.43-.61-.2-.79.23-1.73,1.32-2.63,3.05-3.95,4.58-1.52,1.53-2.42,3.26-3.55,4.57-.18.43-.95.88-.99.23-.26-1.07-.13-2.36.22-3.22l1.49-5.61c.68-2.16.96-4.31,1.84-6.47,1.63-3.03,3.23-6.71,4.46-9.74,1.76-4.32,3.76-8.01,5.54-11.91,1.06-2.59,2.92-4.99,4.39-7.38.74-1.09,1.08-2.17,1.83-3.04,1.7-1.75,2.77-4.13,4.68-5.88,1.34-1.1,2.03-3.04,3.35-4.57,1.94-1.11,4.04-2.86,5.55-4.61,2.27-2.4,5.02-3.31,7.73-4.86.39-.22.76-.66,1.35-.88,2.56-.69,4.49-2.01,7.06-2.49,2.79-.27,5.35-.96,8.45.92-.16.65-.95.88-1.33,1.31-.13,1.29-1.34,1.1-1.48,2.17-.68,2.16-3.44,2.85-3.69,5.65-1.57.46-1.68,2.18-2.82,3.27,1.85.82,2.93-1.34,4.74-1.16,0,0,.16-.65-.04-.64-.6.01-.21-.21-.22-.43-.08-1.5.92-1.52,1.48-2.17.72-1.52,1.66-2.61,2.17-4.12.89-1.95,3.49-2,4.17-4.15-.31,1.72-.63,3.02-1.36,4.32-.29,1.94-1.21,3.46-2.1,5.4-2.14,4.76-3.44,10.15-5.35,15.34-1.03,3.02-1.83,6.69-3.26,9.72-1.12,1.52-.79,3.88-1.51,5.18-.7,1.73-.79,3.88-1.29,5.6-.9,5.38-2.61,10.78-4.51,16.18-1.17,4.1-2.52,8.63-2.85,13.57-.27,2.37-1.14,4.74-1.2,7.32-.16.65-.28,2.15.35,2.78,1.85.82,2.15,2.75,3.01,3.81.63.63.69,1.7,1.33,2.34.82.41.89,1.7,1.85.82h.2c.67,1.27,1.66,1.04,2.43.6,1.99-.25,4.04-2.86,3.14-4.78-.48-1.49-.18-3.22-.26-4.72ZM294.65,172.28c.24.64-.15.86-.53,1.3-.05-.86.14-1.08.53-1.3ZM290.76,181.58c.02.43.04.64-.33,1.29-.45-.85-.06-1.07.33-1.29ZM288.47,187.2c.05.86.07,1.29-.49,1.94-.25-.85-.27-1.28.49-1.94ZM299.08,158.25c.4,0,.8-.01.42.42v.21q-.18.22-.8-.2c-.01-.21.58-.44.38-.44ZM290.95,174.06c.47,1.28.11,1.93-.47,2.37q-.06-1.07.47-2.37ZM283.53,199.1c-.02-.43.15-.86.35-.86.18-.43.6-.01.22.43.01.21-.18.43-.58.44ZM286.58,192.81h-.4c-.61-.2-1.03-.62-1.63-.61-.2,0-.21-.21-.21-.21l.38-.44c1.43.62,2.21.17,2.13-1.33.39-.22.59-.23.59-.23.4,0,.22.43.22.43-.35.86-.7,1.73-1.07,2.38ZM299.21,164.25c-.19.22-.4,0-.41-.21-.02-.43.36-.65.56-.65.4,0,.6-.01.42.42.01.21-.38.44-.58.44ZM300.44,161.23c.53-1.3,1.29-1.96,2.28-2.19-.35.86-.92,1.52-2.28,2.19ZM340.26,186.89c-.14,1.08-.48,2.16-.61,3.45.01.21-.16.65-.56.65-.6.01-1.01-.2-.85-.84.14-1.08.06-2.58.79-3.88-.01-.21.18-.43.59-.23.6-.01.82.41.65.85ZM341.58,181.93c-.4,0-.61-.2-.83-.63.16-.65.34-1.08.94-1.09.39-.22.61.2.42.42.22.42-.14,1.08-.53,1.3ZM334.91,195.15c-.2,0-.4,0-.41-.21-.02-.43.18-.43.38-.44.2,0,.4,0,.41.21.02.43-.18.43-.38.44ZM365.15,116.04c.58-.44,1.14-1.09,1.52-1.53.61.2.45.85.46,1.06-.16.65-.54,1.08-1.12,1.52.01.21-.78.44-1.01-.2-.42-.42-.04-.64.15-.86ZM364.51,119.06c.64.63.68,1.49.31,1.93-1.37.45-1.68,2.18-3.01,3.49.7-1.73,1.22-3.24,1.54-4.75-.02-.43.74-1.09,1.16-.67ZM360.38,127.5c.99-.23-.29-1.71,1.09-1.95-.15.86-.09,1.93-.26,2.58-.18.43-.38.44-.76.66l-.64-.63c-.02-.43-.04-.64.56-.65ZM355.6,138.75c.16-.65.6-.01.8-.01.2,0,.61.2,1.03.62.01.21-.59.23-.78.44-1.1,1.74-2.03,3.04-2.1,5.4.06,1.07-.68,2.16-1.26,2.6-.36.65-.54,1.08-.68,2.16.07,1.29-.88,2.16-2.31,1.54-.18.43.05.86.07,1.29.89,1.7.55,2.78-.77,4.09,0,0-.19.22-.18.43.86,1.06-.31,1.72-.66,2.59-.33,1.29-.88,2.16-.8,3.66.46,1.06-1.14,1.09-1.67,2.39.1-1.72.05-2.79-1.01-3.84-.65-.85.32-1.51.92-1.52,1.61.18,1.97-.47,2.09-1.97.16-.65.53-1.3.9-1.73.38-.44.53-1.3.09-1.93l-.02-.43c.15-.86.48-2.16-.75-2.78,0,0-.02-.43.16-.65.53-1.3,1.24-2.81,2.15-4.55.25.85.28,1.5.69,1.7,1.18-.45,1.12-1.52,1.24-2.81.26-2.58,1.77-4.11,2.83-6.7ZM345.08,169.21c-.43-.64-.66-1.06.12-1.5.22.43.83.63.47,1.28.01.21-.38.44-.59.23ZM343.24,168.38c-.26-1.07-.08-1.5.49-1.94.18-.43.39-.22.41.21.25.85-.34,1.08-.9,1.73ZM341.69,172.92l-.18.43c-.2,0-.21-.21-.41-.21l.36-.65c.4,0,.21.21.22.43ZM345.91,158.89l.53-1.3c.66,1.06.27,1.28.09,1.72-.16.65-.15.86-.75.87l-.21-.21c-.02-.43-.04-.64.34-1.08ZM347.3,155c.38-.44.78-.44.65.85-.6.01-.42-.42-.65-.85ZM338.76,174.26c-.41-.21-.46-1.06-.47-1.28.38-.44.94-1.09,1.74-1.1.26,1.07-.34,1.08-.72,1.52.24.64.07,1.29-.55.87ZM349.01,146.17c-.21-.21-.02-.43-.02-.43.4,0,.62.42.65.85l-.62-.42ZM340.17,170.8l-.36.65c-.22-.43-.83-.63-.24-.64,0,0,.19-.22.39-.22,0,0,.2,0,.21.21ZM344.44,157.63l-.41-.21c.19-.22.39-.22.39-.22.6-.01.41.21.41.21,0,0,.21.21-.39.22ZM343.94,159.35c-.36.65-.33,1.29-1.08,2.17.13-1.29.5-1.73,1.08-2.17ZM352.44,143.1c.21.21-.16.65-.14,1.08.01.21-.38.44-.58.44l.15-.86c-.04-.64-.05-.86.15-.86.2,0,.4,0,.41.21ZM352.92,140.95c.53-1.3,1.06-2.59,1.79-3.9.31,1.93-.42,3.23-1.79,3.9ZM364.24,114.13h.2c-.54,1.08-.89,1.94-1.23,3.02.01.21.04.64-.58.44-.21-.21-.24-.64-.05-.86.34-1.08.7-1.73,1.66-2.61ZM359.59,124.08c1.22.41.07,1.29.12,2.14.22.43-.14,1.08-.74,1.09-.4,0-.22-.43-.05-.86-.04-.64.3-1.72.67-2.37-.2,0-1,.02-1.39.24q.16-.65,1.39-.24ZM357.22,124.56c.23.64.25.85.45.85.01.21.02.43-.38.44l-.43-.64.36-.65ZM347.01,149.85c.65.85-.42,3.23-1.41,3.46-.18.43.23.64-.13,1.29-.19.22.26,1.07-.13,1.29,0,0-.2,0-.21-.21-.42-.42-.06-1.07-.08-1.5l.55-.87c.33-1.29.23-3.01,1.41-3.46ZM363.7,104.26c-.35.86-.52,1.51-.67,2.37-.18.43-.38.44-.59.23-.41-.21-.24-.64-.25-.85.56-.65.52-1.51,1.5-1.74ZM360.08,111.2c.46,1.06-.09,1.93-.27,2.37-.19.22-.4,0-.61-.2-.24-.64.54-1.08.88-2.16ZM361.11,108.17c.19-.22.4,0,.61.2.01.21-.87,2.38-1.07,2.38,0,0-.41-.21-.42-.42.36-.65.52-1.51.88-2.16ZM358.32,115.52c.19-.22.59-.23.8-.01.22.43.01.21-.16.65l-2.04,2.83c.13-1.29.46-2.58,1.41-3.46ZM354.61,124.39c.14-1.08.53-1.3,1.09-1.95-.14,1.08-.29,1.94-1.09,1.95ZM341.37,156.4c.14-1.08.26-2.58,1.01-3.45,1.12-1.52,1.42-3.25,1.93-4.97.53-1.3.46-2.58,1.2-3.67.92-1.52,1.86-2.61,2.57-4.13.31-1.72,1.23-3.03,1.54-4.75.13-1.29.73-1.3,1.3-1.74.48,1.49-.67,2.37-.81,3.45-1.31,5.18-3.48,9.51-5.23,14.05-.53,1.3-1.66,2.61-1.16,4.31.25.85-1.32,1.53-2.35.9ZM333.83,182.72c-.42-.42-.45-.85.15-.86.38-.44.55-.87.12-1.5-.47-1.28,1.48-2.17.81-3.45-.01-.21.18-.43.57-.44.94-1.09.87-2.38.81-3.45-.04-.64.14-1.08.53-1.3.75-.87.92-1.52.89-1.95-.73-2.35.59-3.87,1.33-4.96q.39-.22.36-.65c-.13-2.36,1.17-4.1,1.85-6.26.19-.22.38-.44.59-.23.41.21.44.64.05.86-.65,2.8-1.91,5.19-2.16,7.98-1.2,3.67-2.64,6.49-3.22,10.58-.11,1.72-1.01,3.45-1.7,5.4.01.21.04.64-.36.65-.4,0-.6.01-.62-.42ZM333.23,186.38c-.45-.85-.29-1.71.87-2.38-.14,1.08-.49,1.94-.87,2.38ZM331.4,189.42c-.02-.43.52-1.51,1.14-1.09q.61.2.63.63c.04.64.06,1.07-.74,1.09-.4,0-1.2.02-1.03-.62ZM329.43,200.83c0-3.65,2.04-6.48,2.26-9.7.87,1.27-.76,7.95-2.26,9.7ZM340.44,175.73c.54-1.08,1.16-.67,1.6-.03.36-.65,1.53-1.32.85-2.81-.02-.43.16-.65.55-.87.4,0,.6-.01.81.2.42.42-.16.65-.15.86-.13,1.29-.68,2.16-.6,3.66.23.64-.33,1.29-.72,1.52-.79.23-1.06-1.05-1.67-1.26h-.2c-.39.23-.32,1.51-1.34,1.1-.81-.2-.09-1.72.87-2.38ZM338.66,179.63c1.2-.02,1.21.19,1.23.62-.16.65.26,1.07-.54,1.08,0,0-.81-.2-.63-.63.39-.22-.06-1.07-.06-1.07ZM334.58,189.14l.19-.22c.38-.44.41.21.63.63-.21-.21-.59.23-.82-.41ZM332.07,197.99c-.15-2.79.65-2.8,2.11-1.54-.58.44-1.8.03-2.11,1.54ZM332.92,202.48c-.2,0-.41-.21-.62-.42-.22-.42-.04-.64.36-.65.21.21,1.21.19,1.23.62.01.21-.58.44-.97.45ZM332.67,205.27c.18-.43.59-.23,1-.02-.38.44-.79.23-1,.02ZM337.53,195.53c-.2,0-.4,0-.41-.21-.05-.86.13-1.29.32-1.51.02.43.67,1.28.09,1.72ZM365.69,181.83c-.29.55-.44.92-.31,1.25.01-.35.7-.6.31-1.25ZM367.08,176.63c-.01.35-.43.74-.17.89.27.14.41-.22.56-.59,1.1-.65,1.03-2.38,2-3.18.14-.19.59-1.28.35-2.3-.88,2.01-2.01,3.36-2.75,5.18ZM366.6,178.94c.27-.03.41-.05.41-.22,0-.17.01-.35-.12-.33-.27.03-.41.05-.41.22,0,.17.12.33.12.33ZM323.62,216.96c.23,1.19.32,2.56.71,3.04.66.62,1.03,1.61.86,2.67l.13.16c.79.77,1.31,1.41,1.84,1.69.25.66,1.04,1.26,1.33.71.31-1.08.84-.97,1.11-.65.66.44,1.2.38,2.04-.24.56-.41,1.51-.7,2.19-.6,2.04-.24,3.54-.76,5.2-1.65,1.39-1.03,2.65-2.22,3.79-3.91.84-.97,1.7-2.11,2.81-2.93.85-1.14,1.16-2.22,2.01-3.36,1.97-2.14,3.68-4.59,5.25-7.03.44-1.09.88-2.01,1.72-2.8l1.85-2.65c.44-.92.21-2.28,1.45-2.77.32-1.43,1.05-3.07,1.91-4.56.7-.6,1.4-1.38,1.84-2.47,1.29-2.23,2.32-4.43,3.74-6.51-.41.05-.82.27-1.11.82-.85,1.14-1.57,2.44-2.55,3.42-.73,1.65-1.74,3.5-3.25,4.02.13.16.26.32.12.51-.46,1.44-1.69,1.93-2.01,3.36,0,.17-.14.19-.28.21-.37-1-.95.11-1.23.49-.56.59-1.28,1.71-1.7,2.28l-.05,1.57c-.52-.63-1.22.14-1.51.7-1.99,2.84-4.26,5.88-6.51,8.4-1.69,1.93-3.38,3.87-5.21,5.82-1.27,1.54-2.55,3.25-4.2,3.96-.69.25-1.24.67-1.5.35-.53-.46.05-1.57.34-2.12.3-.9.74-1.82,1.3-2.41"/>
  <path class="cls-2" d="M312.19,174.75c-.63-.63-1,.02-1.18.45-1.09,1.95-3.02,3.27-4.12,5.01-2.24,2.83-4.7,5.45-7.14,8.29-.54,1.08-2.5,1.76-2.41,3.48,1.13-1.31,2.9-1.77,4.02-3.29,1.3-1.74,2.42-3.26,3.96-4.36,1.52-1.53,2.2-3.69,3.74-4.79,1.15-.88,1.88-2.18,2.81-3.49.56-.65.54-1.08.33-1.29Z"/>
  <path class="cls-2" d="M310.19,182.08s-.62-.42-.81-.2c-.39.22-.16.65.45.85l.07,1.29c.19-.22.58-.44.56-.65.36-.65.33-1.29-.27-1.28Z"/>
  <path class="cls-2" d="M329.22,160.91c-.19.22-1.4.03-1.15.88.24.64.05.86-.36.65-.2,0-.41-.21-.25-.85.18-.43-.26-1.07-.27-1.28l-1.14,1.09c-.58.44-1.35.88-.92,1.52.45.85.82.41,1.83.61.07,1.29-.89,1.95-.99,3.88.58-.44,1.35-.88,1.52-1.53.34-1.08,1.29-1.96,2.23-3.05.18-.43.56-.65.34-1.08-.02-.43-.46-1.06-.85-.84Z"/>
  <path class="cls-2" d="M316.16,170.6c-.01-.21-.02-.43-.25-.85l-.59.23c-.93,1.3-2.07,2.4-2.96,4.35l.62.42c.74-1.09,1.3-1.74,2.26-2.62.58-.44.95-.88.92-1.52Z"/>
  <path class="cls-2" d="M330.24,154.03c-.39.22-.8.01-.75.87.62.42.79-.23.75-.87Z"/>
  <path class="cls-2" d="M321.51,162.56c-.19.22.04.64.25.85l3.69-5.65c-.2,0-.6.01-.98.45l-2.96,4.35Z"/>
  <path class="cls-2" d="M319.88,165.59c-.56.65-1.35.88-1.93,1.32-.36.65-1.34,1.1-1.49,1.96.01.21-.18.43-.16.65.41.21.61.2.6-.01,1.12-1.52,2.49-1.98,2.98-3.92Z"/>
  <path class="cls-2" d="M323.99,164.01l-.19.22q.01.21.41.21s.2,0,.39-.22c-.2,0-.21-.21-.61-.2Z"/>
  <path class="cls-2" d="M335.38,149.21s.21.21.39-.22c-.2,0-.61-.2-.61-.2-.21-.21-.2,0-.19.22,0,0,.01.21.41.21Z"/>
  <path class="cls-2" d="M332.61,156.99c-.22-.43-.07-1.29.34-1.08,1.23.62.74-1.09.29-1.94,0,0,.38-.44.58-.44l-.02-.43c.19-.22,1.22.41.98-.45-.04-.64-.8.01-1.21-.19-.2,0-.21-.21-.41-.21.15-.86.93-1.3.89-1.95-1.19.24-2.12,1.54-3.05,2.63.78-.44,1.76-.68,2.06,1.04-2.37.47-3.64,2.86-4.93,4.81.4,0,.82.41,1.42.4.4,0,1.21.19.67,1.28-.19.22.02.43.04.64.41.21.61.2.8-.01.52-1.51,2.46-2.62,1.57-4.11Z"/>
  <path class="cls-2" d="M437.76,148.83c-.2,0-.8.01-.78.44-.18.43.23.64.86,1.06.2,0,.38-.44.55-.87-.02-.43-.24-.64-.63-.63Z"/>
  <path class="cls-2" d="M522.91,166.15c2.19-.25,2.37-.47,1.86-2.61-.96.66-1.29,1.96-1.86,2.61Z"/>
  <path class="cls-2" d="M514.64,175.75c1.16-.67,2.53-1.33,2.62-3.27-.04-.64.14-1.08.52-1.51.74-1.09,1.28-2.17,1.2-3.67.6-.01.99-.23,1.54-1.1.72-1.52.81-3.45,1.74-4.75,1.49-1.96,2.36-4.34,3.23-6.71.74-1.09,1.05-2.81,1.77-4.11,1.06-2.59,2.29-5.62,3.32-8.65,1.04-2.81,2.09-5.62,2.71-8.85.66-2.59,1.73-4.97,1.98-7.55-.11-1.93-.18-3.22-.68-5.14-.07-1.29-.32-2.14-1.34-2.55-.61-.2-.82-.41-1.27-1.26-.25-.85-.87-1.27-1.87-1.25-.6.01-.81-.2-1.25-.84-1.87-1.25-3.39-3.37-5.96-2.9h-.2c-1,.02-2.2.04-3.14,1.13-1.17.45-.93,1.3-1.67,2.39-1.54,1.1-3.23,3.06-4.56,4.38-1.3,1.74-1.98,3.9-3.74,4.79-1.15.88-1.48,2.17-2.03,3.04-1.72,1.53-3.2,3.71-4.29,5.66-.19.22-.16.65.05.86-1.17.45-1.55.89-1.92,1.54-1.35.88-.65,2.8-2.43,3.05-.67,2.37-2.78,3.91-3.88,5.87-1.12,1.52-2.03,3.04-3.34,4.78-1.34,1.1-2.26,2.62-2.98,3.92-.69,1.94-2.01,3.47-2.94,4.78-.7,1.73-2.21,3.47-3.54,4.79-.35.86-.47,2.37-2.13,1.33-.02-.43-.4,0-.6.01-.15.86-.72,1.52-1.69,1.96.54-1.08.92-1.52,1.69-1.96.48-2.15,1.16-4.31,2.04-6.48,1.64-2.82,2.25-6.27,3.86-9.73,1.3-1.74,1.77-4.11,2.67-6.06.32-1.51.65-2.8,1.17-4.1.74-1.09.87-2.38,1-3.67.13-1.29.07-2.36.6-3.66.33-1.29,1.02-3.24-.45-4.5-1.07-1.27-1.76-2.97-3.74-2.51-.4,0-.65-.85-1.06-1.05-.62-.42-.87-1.27-1.66-1.04-.99.23-2.01-.18-2.66-1.02-1.83-.61-3.61-.15-5,.09-.4,0-1.41-.19-1.56.67-.9,1.73-2.84,2.84-4.58,3.95-2.07,2.4.34,2.57,4.65.99.58-.44.74-1.09,1.6-.03.42.42.65.85.28,1.5-.34,1.08-.9,1.73-1.04,2.81-.3,1.41-.59,2.82-.71,4.4-.28-.43-1.05-.3-2.41.6l-3.76.71c-1.49,1.96-3,3.7-4.9,5.46-4.91,5.24-9.66,14.9-15.22,19.3-4.03,3.08-7.5,6.29-12.2,8.09-.59.23-.24-6.71-.69-7.56-.64-.63-.06-1.07.29-1.94,1.21-3.46-.3-5.36.71-8.81.17-.65-.47-1.28-.09-1.71,2.31-1.54,4.79-7.38,5.46-9.76,2.16-.68,1.02-3.24,2.36-4.34.16-.65-.45-.85-1.05-.84-.59.23-1.94,1.11-2.21-.17-.06-1.07,1.57-.46,2.16-.68.58-.44,1.18-.45,1.36-.67,1.36-.67-.61-1.68-1.47-2.74-1.07-1.27-1.34-1.91-1-2.99,1.03-3.02-.73-1.47-.5-4.48.14-1.08-1.57-.9-2.62-1.74-1.84-.82-1.82-2.47-3.77-1.57-3.7,1.79.36-.68-1.86,2.58-2.37,4.12-5.42,6.91-5.14,12.06.02.43-.14,1.08-.32,1.51,2.77,4.16,1.87,6.85,2.37,12.45.75,5.73-.75,8.72-1.49,13.45.48,1.49-1.07,6.58-1.25,8.34-.67,6.9-6.28,13.38-8.84,17.72-5.31,8.9-9,15.03-16.6,22.25-4.19,3.73-12.29,7.64-19.9,6.94-1.19.24-2.75.91-3.46-1.01-.96-2.99-1.94-6.19-.72-9.43.9-1.73-1.2-3.63-.91-5.56,1.15-4.53,1.62-10.55,3.38-14.87l6.85-17.3c1.61-3.46,3.43-6.72,5.25-9.97q.19-.22.18-.43l2.56-4.34c.74-1.09,1.27-2.38,2.01-3.47,2.94-4.78,6.05-9.98,8.77-14.97,1.1-1.74,5.45-2.68,5.93-4.83.32-1.51,1.28-2.17,2.43-3.05,1.18-.45,2.14-1.11,2.67-2.41.35-.86,1.33-1.31,2.14-1.11,1.03.62,2.21.17,2.49,1.67.28,1.5,1.33,2.34,2.86,1.02.75-.87,1.29-1.96,2.68-2.2,1.75-.89,1.87-2.4.57-4.09-.01-.21-.42-.42-.66-1.06-1.18-3.2-2.01-3.83-4.97-3.13-.4,0-.79.23-.8.01-1.33-2.34-3.26-1.01-5.05-.98-6.59.12-12.07,2.37-16.83,6.75-3.81,3.5-6.79,7.42-9.55,11.77-4.49,5.66-8.55,11.75-11.97,18.68-1.28,2.17-3.2,3.71-3.84,6.51-.39,3.87-2.41,7.13-3.4,10.79-1.74,4.75-2.07,9.7-3.4,14.44-1.19,3.88-1.68,9.47-1.84,13.77-.39,3.87-.76,7.95.85,11.79,3.04,7.89,6.8,14.47,15.52,16.67,1.62.4,3.21.16,5.23.55,2.03.61,3.8-.07,5.55-.96,1.74-1.1,3.04-2.85,4.61-3.52,3.93-1.36,9.14-4.1,12.26-7.36,3.49-3.65,4.53-5.32,7.14-8.8.94-1.09,4.19-4.85,4.32-6.14,2.82-4.15,3.94-6.34,6.31-10.46,2.56-4.34,2.2-10.17,2.69-15.91.52-1.51,1.49-1.96,2.89-1.99,2.81.16,5.74-1.18,5.34-1.17,3.98-.29,7.05-2.7,9.94-4.69,4.05-2.65,8.1-5.51,10.87-9.64,5.27-3.77,10.32-9.91,13.24-14.62-.63,1.99-1.27,4.01-2.75,5.41l-.36.65c.15,2.79-4.48,12.96-5.74,15.56-.53,1.3-.65,2.8-1.36,4.32-1.67,2.39-2.11,5.19-3.17,7.78-.39.22-.55.87.07,1.29.34-1.08.68-2.16,1.26-2.6.98-.45.92-1.52,1.67-2.39.72-1.52,1.21-3.46,1.71-5.18.67-2.37,5.91-12.56,6.61-14.29.53-1.3,1.49-1.96,1.41-3.46.19-.22-.04-.64.35-.87.39-.22.8-.01,1.01.2.21.21.24.64.07,1.29-.14,1.08-1.1,1.74-1.23,3.03-.12,1.5-.41,3.44-1.11,5.17-.18.43-.96.66-.94,1.09.32,2.14-1.19,3.88-1.7,5.4-.32,1.51-.65,2.8-.77,4.09-.36.65-.53,1.3-.7,1.73-1.13,1.31-1.83,3.04-2.55,4.55-.15.86-1.16.67-.7,1.73.05.86-.48,2.16-1.04,2.81-.76.66-1.7,1.75-.85,2.81.22.42.07,1.29-.52,1.51-.59.23-.74,1.09-2.16.68-.2,0-.39.22-.18.43.26,1.07.09,1.72.13,2.36.41.21.86,1.06.88,1.49.01.21.21.21.02.43-.4,0-.01-.21-.02-.43h-.6c-1.52,1.54-.73,4.96-3.27,6.08-.46,2.58-2.75,4.56-2.59,7.34.02.43-.36.65-.55.87-.4,0-.59.23-.76.66-1.33,1.31-2.29,1.97-4.09,2.01-1.19.24-1.54,1.1-1.89,1.97-.39.22-.16.65.27,1.28.21.21.41.21.8-.01.76-.66.98-.45,1.01.2.45.85.48,1.49-.08,2.15-.78.44-.74,1.09.29,1.71.2,0,.22.43.45.85.31,1.93,2.14,2.54,3.39,3.37,2.05.82,4-.07,6.02.32.4,0,.97-.45.95-.88.13-1.29.68-2.16,1.47-2.39,1.54-1.1,1.68-2.18,2-3.69-.02-.43.15-.86.52-1.51,1.43-3.03,3.25-6.28,4.26-9.74.68-2.16.95-4.52,2.04-6.48,2.14-4.76,5.07-9.54,7.79-14.74,2.17-4.12,4.57-7.81,6.74-11.93.18-.43.56-.65.54-1.08-.31-1.93,1.03-3.02,1.97-4.11.02.43-.35.86.06,1.07.56-.65,1.15-.88.92-1.52-.02-.43-.04-.64.36-.65,1.95-.89,2.22-3.26,3.36-4.35.38-.44-.67-1.28.13-1.29,1.17-.45,1.73-1.32,2.06-2.61-.35.87-.93,1.3-1.49,1.96.33-1.29,2-3.69,3.15-4.56.09-1.93,1.46-2.6,3.04-2.85-.24-.64-1,.02-.64-.63-.05-.86-.11-1.93.88-2.16.79-.23,1.16-.67.89-1.95-.01-.21.16-.65.38-.44.65.85.6-.01.99-.23.54-1.08.47-2.37,1.06-2.59,1.76-.68,2.29-1.97,2.4-3.69-.01-.21.19-.22.16-.65.63.63,1.26,1.05,1.62.4.35-.87.5-1.73.87-2.38.72-1.52,1.27-2.38,3.05-2.63-.72,1.52-1.87,2.4-2.37,4.12,1.7-1.75,2.98-3.92,4.68-5.88-1,.02-1.17.45-1.54,1.1-.2,0-.38.44-.4,0-.21-.21-.24-.64-.24-.64.18-.43.36-.65.55-.87,1.9-1.75,2.98-3.92,4.5-5.45.55-.87,1.29-1.96,1.71-1.53,1.27,1.26,1.79-.25,2.37-.47.79-.23,1.16-.67,1.95-.89.95-.88,1.2-.02,1.03.62-.61,3.45-1.41,7.11-2.22,10.56-1.01,3.45-2.43,6.7-3.64,10.15-.67,2.37-1.14,4.74-2.43,6.7-2.41,3.48-3.61,7.15-4.58,11.24-1.6,3.68-3.19,7.36-4.59,11.03-1.62,3.25-2.83,6.7-4.26,9.74-.88,2.16-1.77,4.11-2.68,5.84-.9,1.73-1.4,3.67-2.09,5.62-.91,1.73-5.83,12.64-6.93,14.59-.54,1.08-1.07,2.38-.39,3.87.01.21.26,1.07.45.85,1.71-1.53,1.81.18,2.07,1.25,1.18,3.2,2.62,4.03,5.63,4.19,1.21.19,2.2-.04,3.41.15,1.23.62,1.59-.24,1.75-.89.7-1.73,1.44-2.82,1.75-4.54.46-2.58,1.73-4.97,2.38-7.56,1.14-4.74,4.24-8.96,5.76-13.93.16-.65.27-2.37,1.87-2.4-.04-.64-.61-.2-.63-.63.74-1.09,1.5-1.74,2.23-3.05,1.21-3.46,3.65-6.29,5.67-9.55.74-1.09.87-2.38,1.62-3.25.76-.66.94-1.09.69-1.94-2.24,2.83-4.26,6.09-5.9,9.12q-1.29,1.96-2.37.47ZM414.34,119.64c.2,0,.41.21.41.21l.02.43c-.21-.21-.41-.21-.61-.2-.21-.21-.02-.43.18-.43ZM436.57,145.42c-.01-.21-.22-.42-.62-.42-.59.23,1.89-1.97,1.92-1.54.22.43-.73,1.3-1.29,1.96ZM439.53,141.07q-.21-.21-.24-.64s-.01-.21.19-.22l.21.21c.02.43-.16.65-.16.65ZM473.61,146.24s-.21-.21-.01-.21c-.02-.43-.04-.64.16-.65q.2,0,.21.21c.02.43-.16.65-.36.65ZM462.35,185.08c.48-2.16,1.2-3.67,2.35-4.55-.09,1.93-.63,3.02-2.35,4.55ZM466.16,177.93c-.91-1.91-.78-3.21,1.34-4.75.46,1.06-.4,3.66-1.34,4.75ZM468.52,169.94c.56-.65.92-1.52,1.49-1.96q.2,0,.41.21c-.35.87-.92,1.52-1.9,1.75ZM476.47,169.15c-.06-1.07.74-1.09.89-1.95-.15.86-.1,1.72-.89,1.95ZM517.86,118.17c-.02-.43.16-.65.96-.66-.16.65-.35.86-.96.66ZM513.89,151.3c-.02-.43.56-.65,1.52-1.53-.28,2.15-1.61,3.46-1.73,4.97,1.18-.45,1-.02.87,1.27-.15.86-.9,1.73-1.23,3.03-.4,0-.59.23-.79.23-.21-.21-.22-.43-.04-.64-.01-.21-.02-.43.13-1.29-.6.01-.98.45-.85-.84.29-1.94,1.83-3.04,2.11-5.19ZM512.61,160.76l-1.14,1.09c-.04-.64.14-1.08.5-1.73.56-.65.41.21.63.63ZM502.29,183.92c-.08-1.5.08-2.15,1.62-3.25-.34,1.08-.89,1.95-1.62,3.25ZM504.05,179.59c-.61-.2-.45-.85-.46-1.06-.13-2.36.59-3.87,2.1-5.4-.15.86.52,2.14-.63,3.02-.59.23-.52,1.51-.47,2.37.04.64-.14,1.08-.54,1.08ZM507.07,172.67c.01.21-.39.22-.59.23-.01-.21-.22-.43-.22-.43.35-.86.72-1.52,1.89-1.97-.35.87-.52,1.51-1.08,2.17ZM508.39,167.71c.04.64.26,1.07-.12,1.5-.2,0-.4,0-.41-.21-.22-.43.16-.65.53-1.3ZM510.45,165.09c-.81-.2-1.26-1.05-1.28-1.48-.64-.63.3-1.72.72-1.52.4,0,1.05.84,1.68,1.47-.56.65.08,1.5-1.12,1.52Z"/>
  <path class="cls-2" d="M495.88,147.55c-.4,0-.59.23-.79.23.22.43.25.85.25.85.4,0,.35-.87.54-1.08Z"/>
  <path class="cls-2" d="M516.38,120.34c-1.53,1.32-2.83,3.06-4.13,4.8-.18.43-.36.65-.34,1.08,1.69-1.96,3.18-3.92,4.89-5.67-.2,0-.21-.21-.41-.21Z"/>
  <path class="cls-2" d="M486.65,154.16c-.56.65-.95.88-1.13,1.31.6-.01.58-.44,1.13-1.31Z"/>
  <path class="cls-2" d="M587.39,174.84c-.36.65-.54,1.08-.32,1.51-.02-.43.96-.66.32-1.51Z"/>
  <path class="cls-2" d="M588.85,168.59c.02.43-.55.87-.14,1.08.41.21.59-.23.76-.66,1.56-.67,1.25-2.81,2.6-3.7.19-.22.72-1.52.25-2.79-1.07,2.38-2.58,3.91-3.46,6.07Z"/>
  <path class="cls-2" d="M538.04,146.77c-.39.22-.54,1.08-.33,1.29.42.42.81.2,1.4-.03.54-1.08.9-1.73,1.23-3.03-.96.66-1.33,1.31-2.3,1.76Z"/>
  <path class="cls-2" d="M537.56,148.93c-.44-.64-1.02-.41-1.6.03-.92,1.52-2.26,2.62-3.17,4.14-1.88,2.18-3.78,3.93-5.45,6.32-.34,1.08-.09,1.93-1.08,2.17.04.64.43.64.81.2,1.74-1.1,2.44-2.84,3.76-4.36,1.64-2.82,4.11-5.23,6.17-7.84.39-.22.78-.44.56-.65Z"/>
  <path class="cls-2" d="M588.4,171.39c.4,0,.6-.01.59-.23-.01-.21-.02-.43-.22-.43-.4,0-.6.01-.59.23.01.21.22.42.22.42Z"/>
  <path class="cls-2" d="M585.52,177.24c-1.13,1.31-2.04,2.83-3.38,3.93-.89,1.95-2.17,4.12-4.35,4.59.21.21.42.42.23.64-.5,1.73-2.28,2.19-2.58,3.91.01.21-.19.22-.39.22-.67-1.28-1.4.03-1.77.46-.76.66-1.69,1.96-2.26,2.62-.38.44-.54,1.08.26,1.07.2,0,.21.21.24.64.01.21-.19.22-.39.22-.85-.84-1.8.03-2.16.68-2.62,3.27-5.63,6.76-8.67,9.6-2.28,2.19-4.56,4.38-7.04,6.57-1.7,1.75-3.4,3.71-5.76,4.4-.99.23-1.76.68-2.19.25-.83-.63-.11-1.93.26-2.58.34-1.08.88-2.16,1.64-2.82.67-2.37,1.74-4.75,2.62-6.92.15-.86.72-1.52,1.07-2.38.86-2.59,1.93-4.97,2.58-7.56.5-1.73,2.22-3.26,2.5-5.41.15-.86.68-2.16.63-3.02-.09-1.72,1.06-2.59,1.97-4.11,1.1-1.74,1.57-4.11,2.45-6.27,1.57-4.11,2.54-8.42,5.54-11.91.36-.65.52-1.51.47-2.37-.13-2.36.77-4.09,1.47-6.04.68-2.16,2.16-4.33,2.63-6.7,1.08-2.17.94-4.74,2.22-6.91.75-.87.7-1.73.86-2.59.3-1.72.2-3.65.93-4.95,1.49-1.96.3-5.37-1.37-6.63-1.22-.41-2.03-.61-2.49-1.67-.25-.85-1.26-1.05-1.86-1.04-1.61-.19-2.81-.16-4.44-.78-1.47-1.26-3.66-1.01-5.25-.98-1.77.46-3.5,1.78-4.18,3.94.21.21.01.21-.39.22-.2,0-.4,0-.59.23-.88,2.16-2.18,3.9-3.89,5.65-2.09,1.97-4.17,4.15-6.25,6.34-1.13,1.31-2.65,2.62-3.77,4.15,1.19-.24,1.76-.68,2.93-1.34,1.73-1.32,2.17-4.12,4.53-4.81.2,0,.39-.22.36-.65-.04-.64.16-.65.55-.87,1.15-.88,1.93-1.32,2.68-2.2,2.1-1.76,4.43-3.09,6.52-5.06,1.14-1.09,2.37-.47,2.65.81.12,2.14-.15,4.51-.86,6.24-1.03,3.02-2.89,5.63-3.5,9.08-.86,2.59-1.94,4.76-2.83,6.71-1.41,3.46-2.24,6.48-3.68,9.51-.67,2.37-1.51,5.18-2.61,7.13-.58.44-.95.88-1.13,1.31-.42,3.23-2.06,6.26-2.9,9.07-1.44,2.82-2.88,5.85-3.92,8.66-.15.86.47,1.28-.12,1.5-1.57.46-2.09,1.97-2.63,3.05-1.95,4.54-3.89,9.3-5.23,14.05-.53,1.3-.66,2.59-.59,3.87.22.42.06,1.07-.33,1.29-.76.66-1.54,1.1-1.49,1.96.48,1.49.78,3.21,1.41,3.84,1.05.84,1.72,2.11,1.59,3.4l.21.21c1.26,1.05,2.1,1.89,2.93,2.31.45.85,1.69,1.69,2.06,1.04.33-1.29,1.14-1.09,1.56-.67,1.03.62,1.83.61,3-.05.78-.44,2.16-.68,3.17-.49,3-.06,5.17-.52,7.52-1.43,1.94-1.11,3.67-2.43,5.16-4.39,1.14-1.09,2.27-2.4,3.82-3.29,1.13-1.31,1.46-2.6,2.58-3.91,2.67-2.41,4.91-5.24,6.96-8.07.53-1.3,1.07-2.38,2.22-3.26l2.43-3.05c.54-1.08.05-2.79,1.82-3.25.3-1.72,1.2-3.67,2.3-5.41.96-.66,1.92-1.54,2.44-2.83,1.66-2.61,2.91-5.2,4.78-7.6-.6.01-1.19.24-1.55.89ZM540.22,189.87c-.2,0-.21-.21-.21-.21l.38-.44c.2,0,.21.21.21.21.01.21-.18.43-.38.44ZM555.38,185.52c-.06-1.07-.07-1.29.32-1.51.22.43.04.64-.32,1.51ZM572.82,193.57c-.2,0-.4,0-.41-.21.16-.65.54-1.08.94-1.09.05.86-.13,1.29-.53,1.3Z"/>
  <path class="cls-2" d="M450.13,199.25c-.01-.21-.21-.21-.21-.21-.4,0-.39.22-.35.86.4,0,.58-.44.56-.65Z"/>
  <path class="cls-2" d="M448.67,201.64q-.19.22-.39.22l.04.64c.2,0,.4,0,.38-.44l-.02-.43Z"/>
  <path class="cls-2" d="M453.42,189.96c-.61-.2-.79.23-.96.66.02.43-.36.65-.13,1.29.62.42.55-.87,1.15-.88.38-.44.55-.87-.06-1.07Z"/>
  <path class="cls-2" d="M672.32,147.01c.41-1.16.7-2.31,1.22-3.48.59-1.36-3.06.91-3.61.56-.27-.17-.85-.14-1.26.07-1.64.85.75-2.3-.66-2.41-.5-.16-1.21.25-1.78.28-.46.02-.85-.14-1.3-.12-1.07-.13-2.15-.26-3.36,0-.52.22-1.19.82-1.8.67-.05-.19-.34.02-.57.03-.34.02-.62-.16-.85-.14-.27-.17-.5-.16-.73-.15-.23.01-.59.41-.82.42-1.26.07-2.63.14-3.95.4-1.26.07-2.69.33-3.95.4l-2.05.11c-.57.03-.96-.14-1.53-.11-.11,0-.3.21-.34.02-.85-.14-1.51-.49-2.29-.83l-.69.04c-.34.02-.93.43-1.21.25-.44-.36-.82.42-1.3.83-.3.21-.66.6-.77.61-.57.03-.96-.14-1.53-.11-.39-.17-.85-.14-1.3-.12-.73-.15-1.53-.11-2.33-.06-.23.01-.71.42-1,.62-.34.02-.73-.15-1.14.06-1.53.84-2.15-.26-3.22-.4-.23.01-.57.03-.87.24-.48.4-1.02,1-1.48,1.03-1.32.26-2.69.33-4.06.41-.64.22-1.32.26-1.98.86-.66.6-1.12.63-1.37.07-.37-.55-.91.05-1.37,1.02-.14.39-.55.6-.84.8-.3.21-.64.22-.82.42-.11,0-.32.59-.27.77.05,1.13-.61,1.74-1.34,2.54-.41.21-.89.62-1.21,1.2-.75,1.18-1.27,2.34-1.84,3.32l-.2.58-1.43,4.06c-.48,1.35-.41,2.11.39,2.06.57-.03,1.28-.45,1.85-.48.62.16,1.32-.26,2.23-1.26.36-.4.84-.8,1.19-.82.8-.04,1.6-.09,2.53-1.46h.23s1.26-.08,1.26-.08c.46-.02.93-.43,1.28-.45,1.05.51,2.28-.12,3.56-.57,1.51-.46,2.69-.33,4.06-.41,1.14-.06,2.22.07,3.24.02.39.17.91-.05,1.44-.27.34-.02.75-.23,1.1-.25.57-.03.94.52,1.58.29,1.1-.25,2.26-.69,3.35-.94l-.2.58c1.37-.07,2.79.04,4.22-.23,1.26-.07,2.69-.33,4.02-.59.11,0,.16.18.27.18l2.54.43,1.03-.05c.73.15,1.53.11,2.26.26.46-.02,1.1-.25,1.48-.08l2.19.45c-.07.19.23-.01.23-.01.77-.61,1.37-1.02,1.48-.08-.07.19.05.19.16.18.57-.03.96.14,1.42.11.46-.02.85.14,1.3.12.57-.03,1.21-.25.73,1.1-.14.39-.09.57-.04.76.18-.2.36-.4.48-.4.48-.41.89-.62,1.3-.83l.34-.02,1.26-.07c.34-.02.69-.04.98-.24.23-.01.41-.21.57-.03.57-.03,1.53-.84,2.1-1.82,1.11-1.58,1.73-3.32,2.11-5.04.43-1.54,1.16-3.28,1.7-4.83ZM621.19,152.59c-.16-.18-.25-.56-.3-.74.18-.2.36-.4.77-.61l.3.74c-.3.21-.66.6-.77.61ZM627.04,152.85c-.09-.37-.07-.75,0-.95.07-.19.36-.4.73-.8-.02.38.14.56.07.75-.14.39-.43.59-.8.99ZM631.11,149.21c-.5-.16-1.19-.13-1.81-.28-.23.01-.32-.36-.37-.55.11,0,.41-.21.59-.41.18-.2.41-.21.52-.22.64-.22,1.39-.45,2.08-.49.11,0-.04.76,0,.95-.39.78-.59,1.36-1.02,1ZM635.54,148.41c-.3.21-.71.42-.87.24-.27-.18-.37-.55-.64-.72.36-.4.66-.6,1.07-.82l1.35-.64.28,1.12c-.41.21-.77.61-1.18.82ZM641.86,148.26c-.23.01-.21-.37-.18-.75.07-.19.55-.6.66-.6s.21.37.41.74c-.41.21-.84.8-.89.62ZM644.56,147.92c-.34.02-.57.03-.85-.14-.05-.19-.32-.36-.25-.56.14-.39.5-.78.75-1.18.5.16.85.14,1.05.51.16.18.14.56.23.94-.34.02-.71.42-.94.43ZM648.12,147.35c-.11,0-.21-.37-.14-.56-.05-.19.25-.39.43-.59l.18.75c-.18.2-.43.59-.48.4Z"/>
  <path class="cls-2" d="M92.15,22.98c.19-.22.39-.22.15-.86-.21-.21-.4,0-.61-.2.23.64-.16.65.05.86-.38.44.22.43.41.21Z"/>
  <path class="cls-2" d="M97.55,23.1c-.6.01-.78.44-.38.44.66,1.06,1.42.4,2.21.17-.85-.84-1.26-1.05-1.83-.61Z"/>
  <path class="cls-2" d="M110.67,17.92c.6-.01.79-.23.76-.66-.6.01-1.38.45-.76.66Z"/>
  <g>
    <path class="cls-2" d="M811.05,246.74l-4.75-1.66-.75-.06c.29.24.37.67.62.69,1.83.57,3.67,1.15,5.54,1.94.21-.2.46-.18.71-.16l-.58-.47c-.25-.02-.54-.26-.79-.28Z"/>
    <g>
      <path class="cls-2" d="M735.59,0c.12.65-.26,1.27-.39,1.9-.26,1.27-24.05,85.12-24.27,86.61l-.62,4.67-.82,3.58-.43,1.68c.04.22-.13.63-.3,1.05-.6,2.1-1.16,4.41-2.01,6.48-.13.63-.8,1.01-.93,1.64l-1.59,6.09-1.41,4.39c-.43,1.68-.86,3.36-1.54,5.02l-.98,2.71-1.49,3.95-.9,3.14-1.33,4.82c-.51,1.25-.77,2.51-1.57,3.52-.76,1.23-1.31,2.25-1.32,3.54-.09.85-.64,1.88-.98,2.71-.26,1.27-1.81,2.21-.99,3.99.04.22-.17.42-.13.63-.89,1.86-1.82,3.5-2.46,5.38l-1.41,4.39c-.13.63-.55,1.03-.72,1.44-.47,1.46-.69,2.95-1.16,4.41-.05,1.07-.1,2.14-.44,2.97-.55,1.03-1.14,1.84-1.48,2.67-.31,2.33-.91,4.43-2.01,6.48.04.22-.17.42-.13.63-.6,2.1-1.2,4.19-2.05,6.27-.3,1.05-.02,2.57-1.36,3.32l.12.65c-.13.63.28,1.52-.1,2.14-.3,1.05-1.18,1.62-1.73,2.65l-2.08,4.76c-.13.63.03,1.5-.35,2.12-.3,1.05-.89,1.86-1.48,2.67-.55,1.03-1.06,2.27-2.44,2.81-1.59.73-1.35,2.04-.61,3.38.12.65.24,1.3.61,1.98l1.88,6.15.12.65c.33.45.41.89.7,1.13.54.26,1.08.51,1.58.55.29.24.5.04.71-.16.25.02.46-.18.42-.4.29.24.58.48.62.69.08.44.12.65-.05,1.07.2,1.09.11,1.94,1.91,2.3l.25.02c.7,1.13,1.53,1.62,2.79,1.72,1.29.32,1.58.55,1.63-.51.13-.63,0-1.28-.07-1.72l.63-.59c.04.22.33.45.37.67.08.44-.05,1.07.32,1.74l1.24,1.38c.46-.18.67-.38.84-.79.13-.63.63-.59,1.42-.32.83.49,1.83.57,2.63.85.5.04.75.06,1.04.3l.75.06c1.55-.95,3.4-1.66,4.04-3.54.09-.85-.07-1.72.02-2.57.34-.83.39-1.9.73-2.73.05-1.07.35-2.12.15-3.2,0-1.29-.23-2.59.57-3.6.17-.42.38-.61.34-.83l.86-3.36.94-2.93c.43-1.68.65-3.16.83-4.86.94-2.93,1.88-5.85,2.57-8.8l2.15-8.4,2.59-6.01c.38-.61.22-1.48.35-2.12.21-.2.13-.63.09-.85,1.47-1.38,1.86-3.28,2.29-4.96l1.45-4.17.21-.2c.38-.61.8-1.01.97-1.42.76-1.23,1.48-2.67,1.95-4.13.38-.61.68-1.66,1.06-2.27.55-1.03,1.35-2.04,1.65-3.08.81-2.29,1.95-4.13,3.01-6.4.13-.63.51-1.24.64-1.88l3.17-5.53.88-.57c.33.45.62.69.7,1.13.65,2.2.55,4.33,1.96,6.59.37.67.28,1.52.44,2.39l1.47,3.98c1.06,3.08,1.88,6.15,2.98,9.45.53,1.54,1.57,3.12,1.85,4.65.32,1.74,2.07,3.16,1.64,4.85.49,1.32.73,2.63,1.18,3.74.12.65.2,1.09.53,1.54.9,2.22,2.02,4.23,2.88,6.23.53,1.54,1.82,3.14,2.14,4.89.28,1.52,1.52,2.91,2.31,4.47.9,2.22,1.81,4.43,2.96,6.67.74,1.34,1.74,2.71,2.48,4.05.37.67.74,1.35.86,2,.33.45.37.67.66.91,1.03,1.58,2.28,2.97,2.85,4.73.2,1.09.9,2.22,1.56,3.12,1.41,2.26,3.06,4.53,4.67,6.59,1.61,2.06,2.6,4.71,5.13,6.41,0,0,.04.22.29.24,1.62,2.06,3.02,4.31,4.84,6.17,2.2,2.53,4.6,4.87,7.22,7,1.49,1.4,3.45,2.63,4.69,4.02,1.79,1.64,3.99,2.89,5.95,4.12,1.12.73,2.58,1.92,3.92,1.17.21-.2.75.06,1,.08,1.08.51,2.17,1.03,3.21,1.33,3.5,1.56,6.96,2.91,10.41,4.26.29.24.5.04.79.28l3.51.28c1.25.1,2.42-.24,3.47.06,2.3.4,4.55.58,6.77.54l2.59.63c.67-.38,1.3-.97,2.26-1.11.92-.36,2.13-.47,3.35-.59l.38-.61c.21-.2.13-.63.34-.83,1.13-.55,2.22-1.32,3.61-1.86.92-.36,1.05-.99.93-1.64-.37-.67-.49-1.33.63-.59.25.02.46-.18.71-.16,1.09-.77,2.18-1.54,3.03-2.33.21-.2.38-.61.34-.83-.66-.91-.53-1.54.35-2.12l.51-1.25c-.08-.44.09-.85.3-1.05l1.44-2.89c.17-.41.09-.85.84-.79,0,0,.21-.2.17-.41l-1.39-3.54c-.04-.22.17-.42.17-.42.88-.57.51-1.25.35-2.12-.08-.43-.2-1.09,0-1.29,1.09-.77.93-1.64.98-2.71l.34-6.19-.08-.43c-.21.2-.46.18-.42.4.08.44.16.87,0,1.29l-.63.59-.16-.87c-.12-.65-.24-1.31-.57-1.76-.91-.93-.99-1.36-.07-1.72.92-.36,1.05-.99.93-1.64-.2-1.09-1.69-2.49-.35-3.24.25.02-.04-.22-.04-.22-.2-1.09-.69-2.41-.89-3.5l-.83-.49.08.43c-.05,1.07.36,1.96.27,2.81l-.31,2.33-1.41,4.39c-.34.83-1.18,1.62-1.23,2.69-.68,1.66-.86,3.36-1.29,5.04-.13.63-.3,1.05-.22,1.48-.34.83-.68,1.66-1.06,2.27-.13.63-.51,1.25-.64,1.88l-.59.81-.99,3.99c-.55,1.03-.81,2.29-1.36,3.32l-2.36,3.24c-1.47,1.38-2.36,3.24-5,3.67-.96.14-1.63.51-2.3.89l.71-.16.08.43c.04.22-.21.2-.42.4,0,0-.29-.24-.33-.45l-.04-.22c-.08-.43-.62-.69-1.08-.51-.21.2-.75-.06-1-.08-1.04-.3-2.17-1.03-3.05-.46-.25-.02-.58-.47-.58-.47-.54-.26-.83-.49-1.08-.51,0,0-.46.18-.42.4.29.24.58.47.62.69.29.24.54.26.58.47.29.24.62.69.41.89.04.22-.46.18-.96.14-.25-.02-.79-.28-1.08-.51-.25-.02-.54-.26-.54-.26-.04-.22.17-.42.38-.61.71-.16.42-.4-.37-.67-.25-.02-.54-.26-.54-.26-1.24-1.38-2.46-1.27-3.67-1.15-.75-.06-1.21.12-.34.83.29.24.37.67.12.65-.42.4-1.75-.14-1.87-.79-.41-.89-.83-.49-1.29-.32-.21.2-.63.59-.79-.28l-.25-.02c.12.65-1.67.3-.72,1.44l-.21.2c-.83-.49-1.96.06-2.42-1.05,0,0-.5-.04-.79-.28-.5-.04-.75-.06-1.04-.3l-2.75-1.5c-.04-.22-.29-.24-.33-.45,0,0,.21-.2.46-.18l1.92,1.01c.29.24.79.28,1.04.3-.04-.22-.12-.65-.41-.89-1.16-.95-2.54-1.7-3.7-2.65,0,0-.5-.04-.46.18l.12.65c.08.44-.09.85-.05,1.07-.5-.04-1.04-.3-1.58-.55-1.08-.51-1.96-1.23-2.79-1.72-.29-.24-.62-.69-.66-.91-.04-.22.46-.18.67-.38-.04-.22.21-.2.46-.18-.29-.24-.33-.45-.87-.71l-1-.08c-1.16-.95-1.61-2.06-2.99-2.81-.83-.49-1.74-1.42-2.37-2.12-.91-.93-1.41-.97-2-.16-.21.2-.46.18-.71.16l-.08-.43c-.12-.65-.24-1.31.43-1.68,0,0-.08-.43-.37-.67-.12-.65-.45-1.11-.78-1.56-.62-.69-.95-1.15-1.53-1.62,0,0-.29-.24-.33-.45l-1.03-1.58c.04.22-.13.63-.05,1.07.04.22-.17.41-.13.63l-.21.2c-.25-.02-.54-.26-.58-.47.13-.63-.03-1.5.1-2.14q.13-.63-.45-1.11c-.83-.49-1.45-1.19-2.04-1.66-.04-.22-.29-.24-.54-.26-.29-.24-1.33-.53-1.12-.73-.16-.87-2.54-1.7-1.48-2.69-.91-.93-.53-1.54-.44-2.39,0,0-.33-.45-.58-.47-.25-.02-.46.18-.42.4l.53,1.54c.04.22-.17.42-.13.63-.25-.02-.5-.04-.79-.28-.87-.71-1.15-2.23-.27-2.81.63-.59.22-1.48-.44-2.39-.91-.93-3-1.52-2.28-2.97-.04-.22-.29-.24-.33-.45l-1.44-3.76c-.29-.24-.08-.44.13-.63,0,0,.21-.2.25.02.58.47,1.16.95,1.28,1.6.41.89.82,1.78,1.74,2.71.91.93,1.4,2.25,2.32,3.18,1.32,1.82,1.9,3.58,2.97,5.38.66.91,1.32,1.82,2.2,2.53,1.12.73,1.82,1.86,1.98,2.73-.05,1.07.49,1.33,1.32,1.82l1.66.99c.25.02.75.06.71-.16.46-.18.88-.57,1.05-.99.17-.42.3-1.05,0-1.29-.95-1.15-1.86-2.08-2.78-3.01-.33-.45-.41-.89-.74-1.34-.74-1.35-.81-3.07-2.52-4.27l-.08-.44-3.22-5.4c-.29-.24-.83-.49-1.08-.51-.6,2.1-.92.36-1.29-.32-.04-.22-.33-.45-.37-.67-.37-.67-.99-1.36-1.36-2.04-1.24-1.38.23-2.77-1.52-4.19-.25-.02-.04-.22-.08-.44l-.52-2.83c-.08-.43-.33-.45-.37-.67-.25-.02-.5-.04-.71.16-.25-.02-.21.2-.46.18-.04-.22-.33-.45-.33-.45-.24-1.31-.4-2.18-2.03-2.95-1.12-.73-1.15-2.23-.52-2.83.88-.57.97-1.42.27-2.55-.62-.69-1.28-1.6-1.44-2.47-.7-1.13-.73-2.63-1.48-3.98-1.03-1.58-1.57-3.13-1.6-4.63-.08-.43-.41-.89-.74-1.34-.41-.89-.82-1.78-.94-2.43-.37-.67-.2-1.09-.32-1.74-.61-1.98-.97-3.94-1.84-5.93-.61-1.98-.72-3.92-1.34-5.89-.12-.65-.24-1.3-.61-1.98-.12-.65-.49-1.32-.61-1.98l-1.01-5.44c-.97-3.94-1.74-8.07-2.75-12.22-.12-.65-.49-1.33-.86-2l-.65-2.2-.7-1.13c-.29-.24-.58-.47-.66-.91-1.28-1.6-2.91-2.37-4.53-3.15-1.29-.32-2.72,0-3.97-.1-.75-.06-1.46.1-1.84.71-1.05.99-2.14,1.76-4.15,1.6-1.5-.12-3.22-.04-3.65,1.64-.17.42-1.13.55-1.59.73.04.22-.29-.24-.29-.24l1.45-4.17s-.04-.22.21-.2c.63-.59,1.51-1.17,2.39-1.74.63-.59.93-1.64.06-2.35-.91-.93-.2-1.09.34-.83,1.75.14,2.31-.89,2.94-1.48.97-1.42,1.9-3.06,3.79-3.56.21-.2.17-.42.17-.42,1.01-1.21.44-2.97,2.32-3.46.46-.18.38-.61.55-1.03l.59-.81c.97-1.42,1.94-2.85,3.16-4.25.84-.79.3-1.05-.74-1.35-.29-.24-.79-.28-.75-.06-.88.57-2.38.45-2.39,1.74-.96.14-1.09.77-.97,1.42.16.87-.26,1.27-1.22,1.4-.71.16-.38.61.12.65,1.08.51.62.69.12.65-.46.18-1.21.12-1.75-.14-.54-.26-1.2-1.17-1.03-1.58.13-.63.64-1.88,1.14-1.84,1.5.12,1.3-.97,1.68-1.58.88-.57.89-1.86,1.19-2.91-.04-.22.38-.61.63-.59,1,.08,1.09-.77,1.51-1.17.21-.2.17-.42.13-.63l-.75-.06c-.8,1.01-2.56.87-3.07,2.11-.51,1.25-2.14,1.76-2.57,3.44-.3,1.05-1.35,2.04-1.57,3.52.04.22-.46.18-.92.36-.21.2-.71.16-.92.36-.67.37-1.05.99-1.47,1.38-.92.36-1.13.55-.26,1.27l-.09.85c-.25-.02-.54-.26-.54-.26-.29-.24-.54-.26-.58-.47.04.22-.17.41-.13.63l.16.87c-.84.79-1.64,1.8-2.23,2.61-.42.4-1.13.55-.51,1.24l-.17.41c-.75-.06-.71.16-.38.61l-.67.38c.04.22-.46.18-.42.39l-.47,1.46c-.17.42-1.13.55-1.25-.1-.41-.89-.5-.04-.5-.04-.72,1.44-1.19,2.91-1.66,4.37.04.22-.46.18-.67.38-.04-.22-.33-.45-.62-.69-.12-.65-.24-1.31.1-2.14.55-1.03.56-2.31.82-3.58.21-.2.38-.61.34-.83.13-.63-.32-1.74.14-1.92,1.34-.75.22-1.48-.4-2.18-.04-.22-.29-.24-.33-.45.25.02.46-.18.5.04,1.25.1,1.88-.49,1.97-1.34.17-.42.38-.61.3-1.05.26-1.27.02-2.57.61-3.38.97-1.42,1.19-2.91,1.66-4.37.47-1.46-.14-3.44,1.12-4.63-.95-1.15-.11-1.94.19-2.99.18-1.7.61-3.38.83-4.86.34-.83.72-1.44.06-2.35-.29-.24-.08-.43-.12-.65.55-1.03,24.63-84.65,24.1-86.19-.12-.65-.49-1.33-.57-1.76-.2-1.09.14-1.92-.02-2.79M721.89,138.46c-.67.38-1.42.32-2.13.47-.25-.02-.54-.26-.54-.26-.29-.24-.12-.65-.16-.87.88-.57.93-1.64,2.43-1.52.5.04,1.04.3,1.54.34-.59.81-.72,1.44-1.14,1.84ZM729.11,128.1c-.8,1.01-3.1.61-2.69,2.79.29.24-.13.63-.38.61-1.21.12-.55,1.03-.47,1.46.08.43.37.67.45,1.11.04.22-.17.42-.42.4,0,0-.25-.02-.54-.26-.25-.02-.29-.24-.58-.47l.28,1.52-.89,1.86.08.43c-.25-.02-.54-.26-.58-.47.21-.2.38-.61.3-1.05-.04-.22-.08-.43-.37-.67-.33-.46-1.16-.95-1.2-1.17.17-.41.55-1.03,1.01-1.21.21-.2.46-.18.92-.36l.21-.2c-.95-1.15.39-1.9-.02-2.79-.04-.22.21-.2.17-.41l2.61-3.22c.21-.2.38-.61.55-1.03,0,0,.21-.2.17-.42l1.3-.97c.25.02.21-.2.21-.2,2.01.16,1.01-1.21,1.6-2.02.17-.42.59-.81.97-1.42.17-.41.38-.61.51-1.25.17-.42,2.44-2.81,3.19-2.75,1.17-.34.83.49.95,1.15.37.67.45,1.11-.51,1.25-.71.16-1.05.99-1.43,1.6-.59.81-1.1,2.06-1.94,2.85-.38.61-1.05.99-1.72,1.36-.88.57-1.01,1.21-.81,2.29.08.44.86,2-.93,1.64ZM754.83,205.8c-.25-.02-.33-.46-.37-.67l-1.61-2.06c-.33-.45-.45-1.11-.53-1.54-.04-.22.17-.42.38-.61l.58.47c.74,1.34,1.73,2.71,2.52,4.27.04.22-.17.41-.13.63-.25-.02-.54-.26-.83-.49ZM826.24,251.56c.04.22-.29-.24-.58-.47-.08-.44-.16-.87-.41-.89.46-.18.96-.14,1.17-.34.04.22-.17.42-.13.63.25.02.5.04.79.28,0,0,.29.24.33.46-.21.2-.67.38-1.17.34Z"/>
      <path class="cls-2" d="M856.34,32.44c-3.17-1.27-6.37-1.2-9.6-1.32-1.41-.05-2.78.28-3.94.62-1.79.12-3.33.64-5.1.96-2.15.49-4.07,1.19-6.22,1.68-1.95.5-3.71.82-5.19,1.91q-.18.19-.38.18c-.96.35-1.97.31-2.76,2.01-.66,1.13-1.85,1.27-2.99,1.81-.18.19-.53.56-.74.55-.63-.22-1.21-.05-1.57.32-1.7.9-3.64,1.4-5.14,2.3-1.32.72-2.18,1.84-3.3,2.56-.18.19-.38.18-.58.17-1.39.14-2.12.69-2.61,1.63l-1.07,1.11c-.94.54-2.33.68-3.01,1.61-.33.56-.91.73-1.72.7-.6-.02-1.14.53-1.49.9-.38.18-.56.36-.74.55-.94.54-1.42,1.48-2.61,1.63,0,0-.18.19-.15.38l-.53.56c-.81-.03-1.19.15-1.72.7-.51.75-1.67,1.09-2.59,1.82l-2.94,2.19c-.18.18-.13.57-.08.96l.83.22,1.82.07c.71-.74,1.67-1.09,1.73-2.24-.02-.19.36-.37.36-.37.63.22,1.2,1.58.62,1.75-.76.36-1.09.92-.77,1.89.02.19-.15.38-.36.37-.72-.99-1.01-.04-1.39.14-.56.36-.89.93-1.7.9-.2,0-.4-.02-.38.18-1.18,1.87-3.75,2.16-4.27,4.44-.18.19-.81-.03-.96.35-.2,0-.13.57-.08.96-.76.35-1.29.91-2.05,1.27-.76.36-1.54.52-1.65,1.28.02.19-.38.18-.38.18-.47-.59-.43-.21-.38.18.12.96-.26,1.14-1.27,1.1-.6-.02-1.19.15-1.57.32l-2.29,2.6-2.07,2.8c-.2,0-.38.18-.58.17-.45-.4-.38.18-.56.36l-.33.56c-2.1.88-3.3,2.56-4.93,4.03-.36.37-.89.93-.82,1.5-.04,1.34-1.67,1.09-2.16,2.03-.18.19-.56.36-.71.74-.36.37-.49.94-.87,1.12-.94.54-1.65,1.28-1.91,2.42-.16.38-.49.94-1.07,1.11-.18.19-.85-.42-.98.15-.15.38-.08.96-.46,1.13-.33.56-.44,1.33-1.25,1.3-.58.17-1.57.32-1.42,1.48.02.19-.31.76-.71.74-.38.18-.78.16-.69.93.27.59-.69.93-.01,1.53-.18.19-.38.18-.38.18-.81-.03-1.87,1.08-2.01,1.65-.31.76.64,1.94-.72,2.27-.2,0-.15.38.1.77l.45.4c-.02-.19.15-.38.33-.56.53-.56.64-1.32.77-1.89-.05-.39.53-.56.91-.73l.53-.56c.2,0,.36-.37.56-.36,1.34-.52,1.4-1.67,2.09-2.61.15-.38.33-.56.51-.75,1.14-.53,1.87-1.08,2.56-2.01.46-1.13,1.38-1.87,2.29-2.6,1.29-.91,2.39-1.83,3-3.34.36-.37.49-.94.62-1.51.11-.76.78-.16,1.14-.53l2.14-2.22c.18-.19.56-.36.71-.74.56-.36,1.09-.92,1.42-1.48.2,0,.38-.18.58-.17q.58-.17.11-.76c-.22-.2-.3-.78-.3-.78.76-.35,1.72-.7,2.5-.86.78-.16,1.14-.53,1.47-1.1.15-.38.53-.56.71-.74l2.77-2.01.74-.55.53-.56c.13-.57.26-1.14.62-1.51,1.12-.73,2.43-1.44,3.57-1.98l.56-.36c1-1.69,3.1-2.57,4.55-3.86l2.69-2.58c.56-.36.91-.73,1.27-1.1.56-.36,1.16-.34,1.52-.71.76-.35,1.5-.9,2.43-1.44l1.09-.92c.36-.37.49-.94.84-1.31.76-.35,1.52-.71,2.26-1.26,1.32-.72,2.61-1.63,3.7-2.55.71-.74.69-.93-.39-1.55-.85-.42-1.45-1.97-.91-2.53.56-.36,1.52-.71,2.33-.68.61.02.78-.16.94-.54.36-.37.51-.75,1.34-.53.83.22,1.57-.32,1.67-1.09-.01-1.73,1.35-2.06,2.49-2.59.38-.18,1.26.43,1.89.65.2,0,.23.2.25.39l-1.21-.05c-.91.73-2.05,1.27-2.76,2.01-.56.36-.84,1.31-1.38,1.87-.51.75-1.27,1.1-2.3.87-.83-.22-1.21-.05-1.34.52.05.39-.33.56-.31.76.05.39-.08.96.14,1.16.23.2.85.42,1.26.43.4.02.78-.16.96-.35l6.18-3.6c.38-.18.71-.74,1.32-.72.81.03,1.14-.53,1.7-.9.91-.73,1.63-1.47,2.56-2.01.56-.36,1.11-.73,1.7-.9.6.02.98-.15,1.12-.73.31-.76.89-.93,1.67-1.09.2,0,.4.02.58-.17.58-.17,1.14-.53,1.92-.69.58-.17,1.36-.33,1.72-.7.31-.76.89-.93,1.67-1.09.58-.17.74-.55,1.09-.92.2,0,.18-.19.38-.18l3.69-1.01c.96-.35,2.15-.49,2.86-1.24l.18-.19c1.24,1.97,1.86.45,2.74,1.06.2,0,.38-.18.56-.36.38-.18.53-.56.76-.36,1.01.04,1.25-1.3,2.15-.49l.18-.19c.58-.17.96-.35,1.57-.32,1.16-.34,2.35-.49,3.54-.63,1.37-.33,2.75-.47,4.16-.42.61.02,1.46.44,2.02.08l1.27-1.1M827.91,39.62l1.28-2.64s.18-.19.4.01c.65.41,1.66.45,2.4-.1.36-.37.51-.75.89-.93.38-.18.53-.55,1.39-.14.63.22,1.73,1.02,2.74,1.06.18-.19.4.02.61.02.02.19.23.2.25.39-.58.17-1.16.34-1.86-.45-.38.18-.98.15-1.14.53-.13.57-.42,1.52-.84,1.31-.62-1.75-1.04-1.96-1.01-.04-.2,0-.38.18-.38.18-.76.36-1.54.52-1.87,1.08-.33.56-.74.55-1.32.72-.4-.01-1.03-.23-.94.54l-.38.18c-.25-.39-.88-.61-.92-.99-.02-.19.33-.56.71-.74ZM812.72,46.72c1.23.24,1.44.25,1.09-.92-.27-.59-.07-.58.36-.37.81.03,1.84.26,1.9-.89-.02-.19.18-.19.38-.18,1.61.06,2.68-1.05,4.02-1.58l.33-.56c-.23-.2-.25-.39-.27-.59-.05-.39.13-.57.08-.96.43.21.65.41.85.42.23.2.4.02.63.22.2,0,.38-.18.61.02.85.42,1.23.24,1.54-.52.11-.76.58-.17.98-.15.78-.16,1.21.05.9.8-.18.19.07.58-.11.76.02.19-.15.38-.15.38-.18.19-.61-.02-.63-.22-.47-.59-.88-.61-1.23-.24l-1.65,1.28-.56.36c-.88-.61-1.01-.04-.74.55.05.39-.15.38-.56.36-.81-.03-1.84-.26-2.1.88.02.19-.58.17-.78.16l-1.95.5-2.25,1.26c-.18.19-.6-.02-1.01-.04-.23-.2-.07-.58-.3-.78l.61.02ZM795.14,57.18c.58-.17,1.12-.73,1.47-1.1.46-1.13.66-1.13,1.92-.7.43.21.99-.15,1.57-.32.2,0,.36-.37.56-.36-.02-.19.38-.18.4.02l.05.39-.87,1.12c-.18.19-.36.37-.56.36-.61-.02-1.01-.04-.94.54-.18.19-.78.16-1.16.34-.2,0-.6-.02-.78.16l-2.01,1.65c-.2,0-.38.18-.58.17l-.47-.59c-.14-1.16.21-1.53,1.4-1.67Z"/>
    </g>
    <path class="cls-2" d="M792.02,236.54c2,1.45,3.74,2.87,5.02,4.47.58.48,1.37.75,1.7,1.21,1.2,1.17,2.54,1.7,3.67,1.15q.25.02.46-.18c-.25-.02-.29-.24-.54-.26-.83-.49-1.45-1.19-1.83-1.86-.37-.67-.95-1.15-2.17-1.03l-.62-.69s-.04-.22-.33-.45c-.04-.22-.54-.26-.79-.28l.63-.59c-.04-.22.17-.42.17-.42-.25-.02-.54-.26-.54-.26-.25-.02-.79-.28-.79-.28-.37-.67-.24-1.31-.57-1.76-.62-.69-1.53-1.62-2.04-1.66-1-.08-1.29-.32-1.66-.99l-.29-.24-.42.4c-.29-.24-1.16-.95-.95-1.15.3-1.05-.82-1.78-1.48-2.69-.33-.46-.87-.71-.96.14.08.43-.09.85-.88.57-.79-.28-.71.16-.38.61l1.95,2.51c.33.46.58.47.75.06l.42-.39c.62.69,1.91,1.01,1.61,2.06-.59.81.28,1.52.86,2Z"/>
    <path class="cls-2" d="M751.59,96.44c-.58.17-1.14.53-1.72.7l.05.39c.23.2.63.22.83.22l.53-.56s.2,0,.22.2c.38-.18.81.03.99-.15.89-.93,1.76-2.04,2.44-2.98.2,0,.16-.38-.05-.39-.25-.39-.27-.59.33-.56.2,0,.4.02.58-.17.69-.93,1.38-1.87,2.79-1.81.2,0,.18-.19.15-.38.53-.56.19-1.72,1.42-1.48l-.19-1.54c.78-.16.71-.74.87-1.12.16-.38.49-.94.89-.93.81.03,1.14-.53,1.5-.9.94-.54,1.85-1.27,1.69-2.62-.02-.19.16-.38.36-.37.38-.18,1.3.82.94-.54,1.44.25,1.18-1.87,2.63-1.44l.18-.19c.16-.38.08-.96.44-1.33.15-.38.71-.74,1.12-.73.6.02.98-.15.91-.73-.27-.59.08-.96.66-1.13.2,0,.38-.18.56-.36l1.35-2.06c.18-.19.76-.36,1.14-.53.36-.37.91-.73.89-.93-.47-.59.13-.57.31-.76,1.34-.53,1.98-1.84,2.87-2.77.53-.56.71-.74,1.54-.52l.56-.36c.33-.56.46-1.13,1-1.69.15-.38.04-1.34,1.09-.92.2,0,.18-.19.18-.19.76-.36,1.29-.91,1.85-1.27.36-.37.91-.73,1.07-1.11.11-.76.51-.75,1.07-1.11.78-.16,1.54-.52,1.87-1.08.33-.56.66-1.13,1.5-.9.2,0,.78-.16.76-.36-.12-.96.44-1.33,1.22-1.49l.53-.56c.58-.17.94-.54,1.5-.9l.56-.36c-.27-.59-.52-.98-.97-1.38,0,0-.4-.02-.58.17q-.38.18-.83-.22h-.2c-.51.74-1.45,1.28-1.55,2.04-.11.76-.71.74-1.29.91l-2.21,1.64.07.58c.52.98.32.97-.66,1.13-.58.17-1.14.53-1.72.7-.38.18-.91.73-1.52.71-.61-.02-.56.36-.91.73-.71.74-1.18,1.87-2.54,2.21-.98.15-1.9.89-1.58,1.86.12.96-.31.76-.69.93-.58.17-1.57.32-1.67,1.09.02.19-.15.38-.15.38-1.03-.23-1.14.53-1.5.9-.38.18-.53.56-.71.74-.98.15-1.32.72-1.83,1.47-.31.76-.62,1.51-1.63,1.47-.2,0-.38.18-.56.36-.51.75-.82,1.5-1.35,2.06-.18.19-.33.56-.53.56-.98.15-1.32.72-1.63,1.47-.33.56-.46,1.13-1.04,1.3-.2,0-.18.19-.15.38.07.58-.75,2.08-1.15,2.07h-.2c-1.26-.44-1.64-.26-1.7.89-.44,1.33-1.35,2.06-2.27,2.79-.74.55-1.29.91-1.83,1.47-1.45,1.29-2.47,2.78-2.84,4.69.02.19-.33.56-.53.56-.61-.02-.76.35-.89.93-.18.19-.58.17-.76.36-.38.18-.58.17-.98.15.23.2.45.4.47.59l.07.58c-.15.38-.33.56-.51.75-.36.37-.53.56-.91.73Z"/>
    <path class="cls-2" d="M757.18,98.22c-1.17.34-2.34.67-3.48,1.22-.21.2,0,1.29.24,1.31,1.88.79,3.89-.33,3.82-2.05-.04-.22-.33-.46-.58-.47Z"/>
  </g>
  <path class="cls-2" d="M435.73,168.99s0,13.12-13.45,29.55c-13.45,16.44-14.44,10.96-14.44,10.96l16.11-22.25,6.97-24.74,4.81,6.48Z"/>
  <path class="cls-2" d="M248.03,138.44s7.14-6.64,7.47-3.74c.33,2.91-1.33,9.88-1.33,9.88l6.39-15.36s-6.31-3.74-8.22-1.49-.91,4.48-.66,4.48-3.65,6.23-3.65,6.23Z"/>
  <path class="cls-2" d="M115.56,19.6s-10.5,1.28-9.78,2.33,5.89.28,6.56,0,3.22-2.33,3.22-2.33Z"/>
  <path class="cls-2" d="M118.62,18.71l2-.56s-.61,1.44-.83,1.5-1.17-.94-1.17-.94Z"/>
  <path class="cls-2" d="M133.62,17.32s2.33-1.44,1.89-.11-3.06,2-3.06,2l1.17-1.89Z"/>
  <path class="cls-2" d="M92.92,117.74s.58.25.36.42-1.06,0-1.06,0l.69-.42Z"/>
  <g>
    <path class="cls-1" d="M96.06,116.99c.22-.39-1.14-.28-1.14-.28l-.36.72s1.28-.06,1.5-.44Z"/>
    <path class="cls-2" d="M101.88,105.93c.22-.04-.28,0,0,0h0Z"/>
    <path class="cls-2" d="M213.25,15.82c-.73-1.67-1.83-1.37-2.89-1.8-1.05-.68-2.11-1.11-3.46-1.03-1.33-.41-2.69-.34-3.76-.52-.54.03-1.32-.66-2.12-.86-2.71.15-5.69.32-8.66.24-3.51-.05-7.29-.08-11.06-.36-2.98.17-5.69.32-8.11-.03-2.7-.09-5.44.8-8.39.23-1.07-.18-2.44.14-3.78-.03q-1.9.11-1.99,2.07l-.03.74c.27-.02.53.21-.05.98-2.99.41-5.97.58-8.68.73-2.18.37-4.33.24-6.79.63.52.46.75,1.18,1.28,1.4.5.95.43,2.42-.16,3.44-.31.75-.63,1.99-1.21,2.76-.29.51-1.4,1.06-1.94,1.09l-.27.02.84-.54c-.27.02-.79-.45-1.6-.4l-.27.02c-.25-.48-1.04-.92-1.04-.92-1.64.34-3.55.69-4.94,1.5-.27.02-.55.28-.84.54v-.25s-.27.26-.27.26l.26.23c-1.13,1.04-1.79,3.53-2.64,4.31-.25-.48-.51-.71-1.05-.68-.54.03-.79-.45-1.03-1.17h.27s.01-.26.01-.26l-.27.02.12-2.46,1.09-5.94c.02-.49.31-.75.6-1.26.85-.78,1.98-1.83,2-2.32l-8.41.72c-.28.26-.58.77-.59,1.01-.6,1.26-.67,2.73-.73,3.96.15,2.44-2.37,4.3-4.51,3.93-1.35.08-2.97-.08-4.31-.25-.81.05-1.64.34-2.2.86-.86,1.03-1.68,1.32-2.47.87-.79-.45-2.13-.61-2.65-1.07.28-.26.55-.28,1.11-.55-1.63.09-2.16-.12-2.99.41-1.63.09-3.25.18-4.87.03-1.07-.18-2.14-.37-2.93-.81,1.37-.32,3.02-.9,4.12-1.46-.25-.48-.78-.69-1.87-.38-1.88-.14-3.79.21-5.42.3-.51-.71.36-1.98,1.46-2.29l4.1-.97c.54-.03,1.11-.55,1.66-.83-.27.02-.26-.23-.26-.23l-5.98.83c-1.36.08-3.26.43-4.89.52-1.07-.19-1.87-.38-2.96-.32-3.53.44-6.79.63-10.05,1.06l-7.11,1.14s-3.22,6.7-2,6.97c1.22.28,1.28,2,1.17,2.98-.11.97-1.18,2.59-1.53,3.37-.35.78.02,3.29.02,3.29l3.48-.26c2.46-.63,5.17-.78,7.63-1.41l3.56-.93c1.37-.32,2.73-.64,3.52-.2.22.97.71,2.16.11,3.42-.95,2.99-2.72,6.03-4.2,8.81-1.21,2.76-2.7,5.54-3.91,8.3-.58.77-.89,1.76-1.2,2.52l-5.37,10.58c-1.49,3.02-2.72,6.03-3.66,8.77l-5.36,10.34c-.6,1.26-1.19,2.27-1.52,3.51-.91,2.01-1.55,4.25-2.19,6.24-.91,2.01-2.37,4.3-3.01,6.54-.01.25-.28.26-.29.51-.27.02-.26-.23-.53-.21q.26.23.25.48c-.88,1.52-2.3,2.82-4.48,3.19-.81.05-1.9.11-2.72.4-1.97,1.58-3.84,1.2-6.29,1.58-3.55.69-7.06.64-10.59,1.09-.81.05-1.64.34-2.72.4-3.29.92-7.04.4-9.38,3.96-2.74.89-2.31,3.07-2.66,4.8-.35,1.73-.38,2.22,1.76,2.84.8.2,1.61.15-2.19.61,1.6.4,7.01.34,8.06,1.02,1.32.66,1.85.88,2.95.57,1.37-.32,2.46-.63,3.53-.44,3.74,1.01,7.86-.44,11.91-.43.54-.03,1.63-.09,1.89.14.25.48-.07,1.47-.1,2.21-.02.49-.31.75-.33,1.24-1.19,2.27-1.3,4.73-2.77,7.01-1.73,2.3-6.13,10.67-7.88,13.46-.92,2.26-2.12,4.77-3.58,7.06-.35,1.73-.98,3.48-1.88,5.49-.93,2.5-2.13,5.02-3.31,7.04-.93,2.5-1.59,4.99-2.25,7.47-.6,1.26-1.21,2.76-1.55,4.25-.87,1.27-1.47,2.53-1.8,3.77-.58.77-.88,1.52-.92,2.26-.65,2.24-2.49,2.11-2.87,4.33-1.21,2.76-7.99,16.94-9.21,19.7-1.18,2.02-2.34,3.8-4.06,5.86-.91,2.01-2.34,3.8.29,5.37-.64,1.99.68,2.65,1.7,4.07.99,1.9,2.53,3.53,4.64,4.64.78.69,1.84,1.12,3.17,1.54,2.93.81,5.01,2.66,4.54,1.21,1.12-.8,1.97-1.58,3.1-2.62,2.24-1.6,2.34-3.8,2.99-6.04.15-3.19.3-6.38,2.34-9.44,2.9-4.08,9.62-17.78,11.44-22.04,1.52-3.51,2.52-7.49,3.51-11.21.01-.25.57-.52.85-.78.02-.49.31-.75.34-1.49.05-.98.39-2.47.99-3.73,1.37-.32,2.23-1.35,2.57-2.84.06-1.23.94-2.75,1.53-3.76,1.46-2.29,2.9-4.08,2.74-6.52-.53-.22-.25-.48.03-.74.15-3.19,3.77-5.35,3.65-8.53v-.25c2.27-2.09,5.04-10.37,6.5-12.65.03-.74-.2-1.46-.17-2.19-.19-1.7.39-2.47,1.79-3.53,1.12-.8,2.24-1.59,2.56-2.59.87-1.27.94-2.75,2.1-4.28.92-2.26,2.66-4.8,5.92-5.23.53.22.82-.29,1.65-.58.96-.48,2.1-.78,2.89-.25l6.64-1.27,4.64-1c1.34.17,3.24.06,5.15-.29.81-.05,1.64-.34,2.72-.4,1.08-.06,2.17-1.53,3.25-1.59,2.97.08-2.45,1.43.51,1.51.81-.05,1.36-.08,2.46-.63,1.38-.57-1.45-3.62.15-3.22,1.15,3.46,6.6,3.33,7.69,3.27,1.08-.06,1.92-.6,2.74-.89,1.64-.34,3.56-.93,4.58.23,1.31.91,3.5.29,5.4.19,0,0,.58-.77.59-1.01.05-.98-.15-2.44-.38-3.41-.21-1.21-.44-2.18.43-3.45.31-.75.61-1.5-.45-1.93-1.4-.6-2.84-1.05-4.3-1.41-.42.62-.86,1.25-.73.95.22-.56-.22-.61-.61-.72-.39-.11-.83.44-1,.61s-.83,1.67-.72,1.11c.11-.56,0-1.11,0-1.11l-3.94,3.44s.72-1.72,2.56-3.06c.91-.66.7-1.41.25-1.99-3.06-.4-6.16-.54-9.19-.75-.87.05-1.26.06-1.41.06-.15.03-.6.09-1.82.23l-5.15.29c-1.35.08-2.97-.08-4.32,0-.37-.02-.67-.08-.94-.17l-9.12,1.47c-1.91.35-3.75-.77-3.66-2.49.4-2.72,1.87-5.25,3.33-7.53,1.15-1.53,1.75-2.79,2.38-4.54.62-1.75,1.8-3.77,2.16-5.75.59-1.01,1.2-2.52.72-3.71-.18-1.95.96-3.24,2.34-3.8,1.94-1.09,2.01-2.56,2.34-3.8,1.21-2.76,1.61-5.48,3.07-7.76,2-2.32,3.2-4.83,4.4-7.35l3.8-6.09c.58-.77.63-1.99.94-2.75,1.47-2.53,2.13-5.02,3.85-7.07,1.97-1.58,3.66-3.14,3.51-5.58,2.51-1.61,2.33-3.56,1.61-5.48-.22-.97.88-1.52,2.5-1.36l.81-.05c.24.72.52.46.8.2,1.63.55,2,1.55,1.28,2.99l6.52,1.67c1.02-.49,2.34-.69,4.16-.44,2.14.37,4.59-.01,6.48.12l7.62-1.16,9.25-1.26c1.08-.06,2.45-.38,3.51.05,2.16.12-1.39.81.77.94,1.88.14,4.04.26,5.94.16.54-.03,1.07.18,1.34.17,1.63-.09,2.97.08,4.32,0,1.63-.09,3.24.06,4.57.48,3.25-.18,6.49-.12,9.46-.04,1.35-.08,2.69.34,4.31.25,2.44-.14,4.9-.77,7.54.55,1.32.66,2.67.58,3.46,1.03,3.18,1.29,6.41,1.6,10.05-1.06,1.13-1.04,2.52-1.86,3.63-2.41,1.38-.57,2.23-1.35,1.75-2.79-.17-2.19-.61-4.13-.79-6.08-.46-1.69.29-6.14,1.68-6.95,1.13-1.04,1.15-1.53.96-3.24ZM94.92,116.71s1.36-.11,1.14.28c-.22.39-1.5.44-1.5.44l.36-.72Z"/>
  </g>
</svg>